<svg xmlns="http://www.w3.org/2000/svg" xmlns:xlink="http://www.w3.org/1999/xlink" width="234" viewBox="0 0 175.5 62.999997" height="84" preserveAspectRatio="xMidYMid meet"><defs><clipPath id="9217c51d09"><path d="M 151.535156 30.558594 L 174.992188 30.558594 L 174.992188 46.984375 L 151.535156 46.984375 Z M 151.535156 30.558594 " clip-rule="nonzero"></path></clipPath><clipPath id="367dc2a1bc"><path d="M 0 13.390625 L 38 13.390625 L 38 37 L 0 37 Z M 0 13.390625 " clip-rule="nonzero"></path></clipPath></defs><path fill="#ed1c23" d="M 100.074219 30.742188 L 93.351562 46.835938 L 103.761719 46.835938 L 106.257812 41.871094 L 108.75 47.160156 L 120.789062 47.160156 L 127.1875 30.742188 L 116.558594 30.742188 L 113.957031 36.253906 L 111.570312 30.742188 " fill-opacity="1" fill-rule="nonzero"></path><path fill="#ed1c23" d="M 129.140625 30.851562 L 151.480469 30.851562 L 149.746094 35.0625 L 140.09375 35.0625 L 139.660156 36.359375 L 148.988281 36.359375 L 147.578125 40.355469 L 137.707031 40.355469 L 137.382812 41.328125 L 147.035156 41.328125 L 145.40625 46.730469 L 123.066406 46.730469 " fill-opacity="1" fill-rule="nonzero"></path><g clip-path="url(#9217c51d09)"><path fill="#ed1c23" d="M 153.648438 30.636719 L 174.992188 30.636719 L 172.738281 36.359375 L 168.183594 36.359375 L 164.0625 46.945312 L 152.132812 46.945312 L 156.363281 36.253906 L 151.589844 36.253906 " fill-opacity="1" fill-rule="nonzero"></path></g><path fill="#ed1c23" d="M 40.316406 14.21875 L 31.75 35.605469 L 46.609375 35.605469 L 49.210938 29.554688 L 54.089844 35.820312 L 71.984375 35.820312 L 65.585938 25.34375 L 76.105469 17.675781 L 81.097656 29.878906 L 79.035156 35.820312 L 93.785156 35.820312 L 95.410156 31.285156 L 115.582031 14.21875 L 99.53125 14.21875 L 93.132812 20.484375 L 91.398438 14.003906 L 63.09375 14.003906 L 52.898438 20.808594 L 55.394531 14.21875 " fill-opacity="1" fill-rule="nonzero"></path><g clip-path="url(#367dc2a1bc)"><path fill="#ed1c23" d="M 34.640625 23.128906 L 37.171875 17.152344 C 36.019531 16.515625 34.769531 16.027344 33.527344 15.59375 C 30.179688 14.425781 26.65625 13.765625 23.121094 13.539062 C 18.695312 13.257812 12.980469 13.128906 9.085938 15.5 C 8.125 16.085938 7.207031 16.773438 6.449219 17.605469 C 5.15625 19.019531 4.511719 20.894531 4.898438 22.789062 C 5.582031 26.136719 9.726562 26.550781 12.523438 26.992188 C 13.164062 27.09375 15.4375 26.902344 15.21875 27.9375 C 15.117188 28.414062 14.519531 28.589844 14.109375 28.675781 C 14.109375 28.675781 8.46875 29.96875 2.757812 26.082031 L 0.0078125 32.851562 C 0.0078125 32.851562 2.828125 36.234375 15.84375 36.308594 C 20.53125 36.332031 25.652344 36.144531 29.4375 32.96875 C 31.515625 31.226562 32.691406 28.808594 31.421875 26.300781 C 29.984375 23.460938 26.394531 22.664062 23.492188 22.457031 C 22.433594 22.382812 22.636719 21.929688 23.222656 21.378906 C 23.953125 20.691406 25.164062 20.605469 26.097656 20.644531 C 29.074219 20.761719 31.914062 22.050781 34.640625 23.128906 " fill-opacity="1" fill-rule="nonzero"></path></g></svg>