<svg xmlns="http://www.w3.org/2000/svg" xmlns:xlink="http://www.w3.org/1999/xlink" width="234" viewBox="0 0 175.5 62.999997" height="84" preserveAspectRatio="xMidYMid meet"><defs><clipPath id="dcf25957a4"><path d="M 0 21 L 35 21 L 35 41.941406 L 0 41.941406 Z M 0 21 " clip-rule="nonzero"></path></clipPath><clipPath id="510a80c6b9"><path d="M 3 21 L 34 21 L 34 41.941406 L 3 41.941406 Z M 3 21 " clip-rule="nonzero"></path></clipPath><clipPath id="4b4e3c60ec"><path d="M 1 26 L 28 26 L 28 41.941406 L 1 41.941406 Z M 1 26 " clip-rule="nonzero"></path></clipPath><clipPath id="8c9c54ddd7"><path d="M 35 21 L 56 21 L 56 41.941406 L 35 41.941406 Z M 35 21 " clip-rule="nonzero"></path></clipPath><clipPath id="d25d0087f0"><path d="M 68 21 L 87 21 L 87 41.941406 L 68 41.941406 Z M 68 21 " clip-rule="nonzero"></path></clipPath><clipPath id="a132f1e934"><path d="M 53 21 L 71 21 L 71 41.941406 L 53 41.941406 Z M 53 21 " clip-rule="nonzero"></path></clipPath><clipPath id="554d4fe171"><path d="M 85 21 L 103 21 L 103 41.941406 L 85 41.941406 Z M 85 21 " clip-rule="nonzero"></path></clipPath><clipPath id="fc97d5aef5"><path d="M 101 38 L 105 38 L 105 41.941406 L 101 41.941406 Z M 101 38 " clip-rule="nonzero"></path></clipPath><clipPath id="17ea0a5577"><path d="M 142 21 L 169 21 L 169 41.941406 L 142 41.941406 Z M 142 21 " clip-rule="nonzero"></path></clipPath><clipPath id="e23595488b"><path d="M 105 21 L 124 21 L 124 41.941406 L 105 41.941406 Z M 105 21 " clip-rule="nonzero"></path></clipPath><clipPath id="6e9188857f"><path d="M 121 21 L 143 21 L 143 41.941406 L 121 41.941406 Z M 121 21 " clip-rule="nonzero"></path></clipPath></defs><g clip-path="url(#dcf25957a4)"><path fill="#ffffff" d="M 30 42.03125 L 34.46875 21 L 4.847656 21 L 0.378906 42.03125 Z M 30 42.03125 " fill-opacity="1" fill-rule="nonzero"></path></g><g clip-path="url(#510a80c6b9)"><path fill="#333366" d="M 22.40625 25.410156 C 25.84375 26.210938 25.933594 27.058594 25.933594 27.058594 C 28.167969 27.058594 28.75 27.058594 29.152344 27.460938 C 30.445312 28.664062 28.257812 31.605469 28.257812 31.605469 C 27.988281 31.78125 3.328125 41.40625 3.328125 41.40625 L 29.285156 41.40625 L 33.441406 21.847656 L 5.5625 21.847656 C 5.5625 21.847656 22.003906 25.320312 22.40625 25.410156 " fill-opacity="1" fill-rule="nonzero"></path></g><path fill="#333366" d="M 24.953125 28.261719 C 24.59375 28.441406 23.519531 28.617188 23.164062 28.664062 C 22.804688 28.707031 22.628906 28.707031 22.628906 28.796875 C 22.628906 28.929688 23.121094 28.886719 23.296875 28.886719 C 24.101562 28.886719 27.273438 28.664062 28.035156 28.796875 C 28.613281 28.886719 27.945312 30.042969 27.765625 30.757812 C 27.722656 31.023438 27.898438 30.890625 27.988281 30.757812 C 28.210938 30.402344 28.839844 29.242188 28.882812 28.796875 C 28.972656 27.90625 28.347656 27.773438 27.273438 27.773438 L 25.621094 27.773438 C 25.488281 27.773438 25.441406 27.816406 25.398438 27.90625 C 25.265625 28.039062 25.039062 28.171875 24.953125 28.261719 " fill-opacity="1" fill-rule="nonzero"></path><g clip-path="url(#4b4e3c60ec)"><path fill="#333366" d="M 14.675781 34.855469 L 1.40625 41.40625 L 4.621094 26.390625 L 18.027344 26.390625 C 18.25 26.390625 25.21875 26.390625 25.351562 27.773438 L 13.289062 27.773438 L 15.167969 33.476562 C 17.3125 32.449219 22.582031 30.3125 25.753906 30.179688 C 27.097656 30.132812 27.632812 30.355469 27.363281 30.535156 C 27.183594 30.625 25.890625 30.800781 24.863281 31.070312 C 23.074219 31.515625 22.984375 31.515625 21.109375 32.136719 C 19.007812 32.851562 17.265625 33.652344 14.675781 34.855469 " fill-opacity="1" fill-rule="nonzero"></path></g><g clip-path="url(#8c9c54ddd7)"><path fill="#333366" d="M 42.464844 41.851562 C 37.28125 41.851562 34.199219 39.800781 35.226562 35.210938 C 36.925781 27.28125 38.042969 21.980469 38.042969 21.980469 L 42.375 21.980469 C 42.375 21.980469 39.738281 34.1875 39.828125 33.921875 C 39.160156 36.949219 39.828125 38.777344 43.136719 38.777344 C 46.308594 38.777344 47.914062 36.949219 48.585938 33.921875 C 48.988281 32.183594 51.132812 21.980469 51.132812 21.980469 L 55.464844 21.980469 C 52.5625 35.210938 55.464844 21.980469 52.605469 35.210938 C 51.535156 39.757812 47.601562 41.851562 42.464844 41.851562 " fill-opacity="1" fill-rule="nonzero"></path></g><g clip-path="url(#d25d0087f0)"><path fill="#333366" d="M 78.609375 34.054688 C 77.941406 34.054688 76.511719 33.964844 75.796875 33.832031 L 76.332031 31.023438 C 76.867188 31.070312 77.582031 31.160156 78.253906 31.160156 C 81.199219 31.160156 82.273438 29.152344 82.496094 27.949219 C 82.945312 25.8125 81.871094 25.054688 80.308594 25.054688 L 76.777344 25.054688 L 73.292969 41.496094 L 68.960938 41.496094 L 73.113281 21.980469 L 82.496094 21.980469 C 86.742188 21.980469 87.234375 25.679688 86.695312 28.128906 C 85.890625 31.78125 82.453125 34.054688 78.609375 34.054688 " fill-opacity="1" fill-rule="nonzero"></path></g><g clip-path="url(#a132f1e934)"><path fill="#333366" d="M 69.449219 25.097656 L 64.847656 25.097656 C 62.480469 25.097656 61.453125 25.589844 61.230469 26.523438 C 60.558594 29.644531 69.003906 32.09375 68.199219 36.90625 C 67.753906 39.578125 65.429688 41.496094 60.023438 41.496094 L 53.410156 41.496094 L 54.082031 38.375 L 59.351562 38.375 C 61.007812 38.375 63.015625 38.464844 63.375 36.816406 C 64 34.007812 55.691406 31.246094 56.316406 26.570312 C 56.71875 23.761719 59.21875 21.980469 64.269531 21.980469 L 70.078125 21.980469 Z M 69.449219 25.097656 " fill-opacity="1" fill-rule="nonzero"></path></g><g clip-path="url(#554d4fe171)"><path fill="#333366" d="M 101.664062 25.097656 L 97.0625 25.097656 C 94.695312 25.097656 93.667969 25.589844 93.441406 26.523438 C 92.773438 29.644531 101.21875 32.09375 100.414062 36.90625 C 99.964844 39.578125 97.644531 41.496094 92.238281 41.496094 L 85.625 41.496094 L 86.292969 38.375 L 91.609375 38.375 C 93.265625 38.375 95.273438 38.464844 95.632812 36.816406 C 96.257812 34.007812 87.949219 31.246094 88.574219 26.570312 C 88.976562 23.761719 91.476562 21.980469 96.527344 21.980469 L 102.332031 21.980469 Z M 101.664062 25.097656 " fill-opacity="1" fill-rule="nonzero"></path></g><g clip-path="url(#fc97d5aef5)"><path fill="#333366" d="M 103.136719 38.019531 C 102.199219 38.019531 101.394531 38.777344 101.394531 39.757812 C 101.394531 40.691406 102.15625 41.496094 103.136719 41.496094 C 104.078125 41.496094 104.878906 40.738281 104.878906 39.757812 C 104.878906 38.777344 104.078125 38.019531 103.136719 38.019531 " fill-opacity="1" fill-rule="nonzero"></path></g><g clip-path="url(#17ea0a5577)"><path fill="#333366" d="M 168.011719 21.890625 L 163.765625 41.449219 L 160.148438 41.449219 L 163.363281 26.925781 L 154.742188 41.449219 L 151.03125 41.449219 L 148.976562 27.859375 L 145.984375 41.449219 L 142.410156 41.449219 L 146.566406 21.890625 L 151.746094 21.890625 L 153.9375 36.28125 L 162.335938 21.890625 Z M 168.011719 21.890625 " fill-opacity="1" fill-rule="evenodd"></path></g><g clip-path="url(#e23595488b)"><path fill="#333366" d="M 114.574219 41.851562 C 111.984375 41.851562 109.660156 41.273438 107.964844 40.023438 C 106.265625 38.777344 105.238281 36.816406 105.238281 34.1875 C 105.238281 33.386719 105.328125 32.539062 105.550781 31.605469 C 106.980469 24.609375 112.832031 21.488281 118.777344 21.488281 C 120.207031 21.488281 121.769531 21.667969 123.152344 21.933594 L 123.464844 21.980469 L 122.75 25.144531 L 122.484375 25.097656 C 121.5 25.007812 120.832031 24.921875 119.9375 24.921875 C 119.132812 24.921875 118.375 24.964844 117.523438 25.054688 C 115.425781 25.367188 114.800781 25.722656 113.636719 26.480469 C 111.894531 27.550781 110.375 29.375 109.839844 31.78125 C 109.707031 32.40625 109.617188 32.984375 109.617188 33.519531 C 109.617188 35.257812 110.332031 36.460938 111.582031 37.261719 C 112.789062 38.0625 114.574219 38.507812 116.585938 38.507812 C 117.792969 38.507812 118.375 38.464844 119.535156 38.332031 L 119.980469 38.285156 L 119.3125 41.359375 L 119.089844 41.40625 C 117.480469 41.671875 116.230469 41.851562 114.574219 41.851562 Z M 114.574219 41.851562 " fill-opacity="1" fill-rule="nonzero"></path></g><g clip-path="url(#6e9188857f)"><path fill="#333366" d="M 134.324219 21.847656 C 128.335938 21.847656 123.378906 24.964844 121.949219 31.78125 C 120.785156 37.261719 124.136719 41.761719 130.078125 41.761719 C 136.109375 41.761719 140.9375 38.777344 142.453125 31.78125 C 143.617188 26.078125 140.222656 21.847656 134.324219 21.847656 M 138.433594 31.828125 C 137.496094 36.726562 134.546875 38.820312 130.839844 38.820312 C 127.175781 38.820312 125.164062 35.65625 125.835938 31.828125 C 126.726562 27.015625 129.765625 24.875 133.429688 24.875 C 137.09375 24.832031 139.195312 27.816406 138.433594 31.828125 " fill-opacity="1" fill-rule="nonzero"></path></g><path fill="#333366" d="M 170.15625 24.339844 C 170.15625 23.183594 171.050781 22.292969 172.164062 22.292969 C 173.28125 22.292969 174.175781 23.183594 174.175781 24.339844 C 174.175781 25.542969 173.28125 26.433594 172.164062 26.433594 C 171.003906 26.433594 170.15625 25.542969 170.15625 24.339844 M 169.707031 24.339844 C 169.707031 25.722656 170.824219 26.792969 172.164062 26.792969 C 173.507812 26.792969 174.625 25.722656 174.625 24.339844 C 174.625 22.960938 173.507812 21.933594 172.164062 21.933594 C 170.824219 21.890625 169.707031 22.960938 169.707031 24.339844 M 171.226562 25.765625 L 171.675781 25.765625 L 171.675781 24.5625 L 172.164062 24.5625 L 172.925781 25.8125 L 173.417969 25.8125 L 172.613281 24.5625 C 173.058594 24.519531 173.371094 24.296875 173.371094 23.808594 C 173.371094 23.273438 173.058594 23.003906 172.390625 23.003906 L 171.273438 23.003906 L 171.273438 25.765625 M 171.675781 23.273438 L 172.253906 23.273438 C 172.566406 23.273438 172.878906 23.316406 172.878906 23.71875 C 172.878906 24.164062 172.523438 24.207031 172.121094 24.207031 L 171.675781 24.207031 Z M 171.675781 23.273438 " fill-opacity="1" fill-rule="nonzero"></path></svg>