<svg xmlns="http://www.w3.org/2000/svg" xmlns:xlink="http://www.w3.org/1999/xlink" width="84" viewBox="0 0 63 46.499999" height="62" preserveAspectRatio="xMidYMid meet"><defs><clipPath id="31c3b4cdbb"><path d="M 0.335938 0 L 62.664062 0 L 62.664062 46.003906 L 0.335938 46.003906 Z M 0.335938 0 " clip-rule="nonzero"></path></clipPath><clipPath id="95fa48fc37"><path d="M 12.179688 0 L 50.761719 0 L 50.761719 46 L 12.179688 46 Z M 12.179688 0 " clip-rule="nonzero"></path></clipPath><clipPath id="de0f061aae"><path d="M 12.179688 0 L 50.761719 0 L 50.761719 46.003906 L 12.179688 46.003906 Z M 12.179688 0 " clip-rule="nonzero"></path></clipPath></defs><g clip-path="url(#31c3b4cdbb)"><path fill="#ffffff" d="M 0.335938 0 L 62.664062 0 L 62.664062 46.003906 L 0.335938 46.003906 Z M 0.335938 0 " fill-opacity="1" fill-rule="nonzero"></path><path fill="#ffffff" d="M 0.335938 0 L 62.664062 0 L 62.664062 46.003906 L 0.335938 46.003906 Z M 0.335938 0 " fill-opacity="1" fill-rule="nonzero"></path></g><g clip-path="url(#95fa48fc37)"><path fill="#330000" d="M 17.917969 38 C 14.660156 35.332031 12.914062 31.46875 12.914062 26.867188 L 12.914062 5.015625 C 18.101562 2.300781 24.304688 0.921875 31.46875 0.921875 C 38.636719 0.921875 44.835938 2.300781 50.027344 5.0625 L 50.027344 26.914062 C 50.027344 31.511719 48.28125 35.378906 45.019531 38.046875 C 42.035156 40.4375 32.574219 44.625 31.46875 45.085938 C 30.367188 44.625 20.90625 40.4375 17.917969 38 Z M 17.917969 38 " fill-opacity="1" fill-rule="nonzero"></path></g><g clip-path="url(#de0f061aae)"><path fill="#ffbe00" d="M 49.015625 4.785156 C 46.628906 4.554688 44.148438 4.417969 41.621094 4.417969 C 32.25 4.417969 22.238281 6.441406 13.96875 14.03125 L 13.96875 27.050781 C 13.96875 31.285156 15.53125 34.824219 18.515625 37.265625 C 21.136719 39.378906 29.21875 43.058594 31.515625 44.074219 C 33.765625 43.058594 41.804688 39.472656 44.515625 37.265625 C 47.5 34.78125 49.0625 31.328125 49.0625 27.050781 L 49.0625 4.785156 M 15.667969 25.671875 L 15.667969 15.089844 L 19.023438 15.089844 L 19.023438 25.808594 C 19.023438 26.773438 19.25 28.15625 20.8125 28.15625 C 21.363281 28.15625 21.914062 28.015625 22.421875 27.742188 L 22.421875 15.136719 L 25.773438 15.136719 L 25.773438 29.71875 C 24.257812 30.683594 22.511719 31.144531 20.722656 31.054688 C 17.367188 31.054688 15.667969 29.257812 15.667969 25.671875 M 30.828125 37.90625 L 27.472656 37.90625 L 27.472656 15.964844 C 28.851562 15.136719 30.414062 14.722656 32.023438 14.769531 C 36.019531 14.769531 38.222656 17.804688 38.222656 22.726562 C 38.222656 27.648438 36.0625 31.007812 32.34375 31.007812 C 31.835938 31.007812 31.332031 30.960938 30.828125 30.824219 Z M 30.828125 28.0625 C 31.195312 28.199219 31.5625 28.246094 31.929688 28.246094 C 33.859375 28.246094 34.777344 26.453125 34.777344 22.773438 C 34.777344 19 33.949219 17.4375 32.023438 17.4375 C 31.609375 17.4375 31.195312 17.527344 30.828125 17.667969 Z M 38.957031 19.183594 C 39.003906 16.746094 41.023438 14.769531 43.460938 14.8125 C 44.792969 14.722656 46.078125 15.136719 47.132812 15.917969 L 47.132812 18.863281 C 46.351562 18.035156 45.25 17.527344 44.148438 17.480469 C 43.183594 17.480469 42.21875 17.894531 42.171875 19.09375 C 42.128906 20.335938 43.136719 20.792969 44.378906 21.53125 C 47.179688 23.1875 47.730469 24.660156 47.640625 26.636719 C 47.59375 28.800781 46.078125 31.144531 42.769531 31.144531 C 41.484375 31.144531 40.199219 30.777344 39.09375 30.085938 L 39.09375 27.003906 C 39.96875 27.785156 41.117188 28.292969 42.3125 28.386719 C 43.550781 28.386719 44.332031 27.695312 44.332031 26.5 C 44.285156 25.441406 43.6875 24.890625 42.21875 24.015625 C 39.464844 22.265625 38.957031 20.933594 38.957031 19.183594 M 17.367188 38.597656 C 13.96875 35.835938 12.179688 31.835938 12.179688 27.050781 L 12.179688 4.277344 C 17.550781 1.425781 24.027344 0 31.46875 0 C 38.910156 0 45.386719 1.425781 50.761719 4.277344 L 50.761719 27.050781 C 50.761719 31.835938 48.972656 35.835938 45.570312 38.644531 C 42.449219 41.175781 32.617188 45.542969 31.46875 46.003906 C 30.320312 45.5 20.492188 41.175781 17.367188 38.597656 Z M 43.78125 43.382812 L 43.78125 45.359375 L 44.148438 45.359375 L 44.148438 44.53125 L 44.195312 44.53125 C 44.238281 44.578125 44.746094 45.359375 44.746094 45.359375 L 45.160156 45.359375 C 45.160156 45.359375 44.609375 44.578125 44.5625 44.488281 C 44.835938 44.441406 45.019531 44.210938 45.019531 43.980469 C 45.019531 43.613281 44.699219 43.335938 44.378906 43.382812 Z M 44.332031 43.660156 C 44.652344 43.660156 44.699219 43.796875 44.699219 43.933594 C 44.699219 44.117188 44.609375 44.257812 44.238281 44.257812 L 44.195312 44.257812 L 44.195312 43.660156 Z M 45.710938 44.394531 C 45.710938 45.589844 44.285156 46.1875 43.414062 45.3125 C 42.539062 44.441406 43.183594 43.015625 44.378906 43.015625 C 45.113281 43.058594 45.710938 43.660156 45.710938 44.394531 M 44.378906 42.738281 C 42.953125 42.738281 42.21875 44.488281 43.230469 45.5 C 44.238281 46.511719 45.984375 45.820312 45.984375 44.347656 C 45.984375 43.472656 45.25 42.738281 44.378906 42.738281 " fill-opacity="1" fill-rule="nonzero"></path></g></svg>