<svg xmlns="http://www.w3.org/2000/svg" xmlns:xlink="http://www.w3.org/1999/xlink" width="150" viewBox="0 0 112.5 112.499997" height="150" preserveAspectRatio="xMidYMid meet"><defs><clipPath id="b87ce51fbf"><path d="M 18.636719 6.273438 L 92.089844 6.273438 L 92.089844 84.515625 L 18.636719 84.515625 Z M 18.636719 6.273438 " clip-rule="nonzero"></path></clipPath><clipPath id="d141e6cbfa"><path d="M 56.78125 23.179688 L 58.476562 22.925781 C 62.179688 22.066406 65.136719 20.203125 66.726562 16.617188 C 67.667969 14.496094 67.003906 12.847656 64.972656 11.75 C 62.597656 10.464844 60.753906 10.734375 59.4375 12.71875 C 57.386719 15.839844 57.109375 19.433594 56.789062 23.179688 M 53.816406 23.382812 L 54.03125 23.089844 C 53.726562 20.804688 53.398438 18.648438 52.867188 16.535156 C 52.308594 14.300781 51.628906 12.039062 49.941406 10.367188 C 49.3125 9.742188 48.289062 9.179688 47.441406 9.164062 C 44.085938 9.113281 41.875 12.527344 43.070312 15.660156 C 44.132812 18.453125 46.066406 20.460938 48.738281 21.671875 C 50.359375 22.402344 52.113281 22.824219 53.816406 23.382812 M 89.402344 37.070312 L 89.394531 29.394531 C 89.375 26.988281 88.027344 25.652344 85.601562 25.652344 L 58.242188 25.660156 C 57.773438 25.660156 57.304688 25.734375 56.855469 25.773438 L 56.855469 37.070312 Z M 54.085938 25.800781 L 53.429688 25.667969 C 43.707031 25.660156 34.261719 25.644531 24.824219 25.675781 C 23.148438 25.683594 21.65625 26.875 21.589844 28.421875 L 21.550781 37.039062 L 54.085938 37.039062 Z M 21.703125 39.78125 L 21.015625 39.726562 C 19.261719 39.675781 18.886719 39.308594 18.878906 37.816406 L 18.855469 29.304688 C 18.796875 25.667969 21.910156 23.03125 25.078125 23.105469 L 45.265625 23.152344 C 45.378906 23.152344 45.5 23.121094 45.460938 23.128906 L 42.667969 20.03125 C 40.683594 17.527344 39.375 14.78125 40.511719 11.515625 C 41.527344 8.589844 43.847656 7.105469 46.769531 6.589844 C 49.476562 6.113281 51.367188 7.589844 52.742188 9.703125 C 53.570312 10.980469 54.101562 12.449219 54.742188 13.839844 L 55.265625 15.257812 C 55.929688 13.914062 56.429688 12.644531 57.140625 11.503906 C 58.445312 9.390625 60.351562 8.128906 62.917969 8.472656 C 65.972656 8.882812 68.519531 10.152344 69.511719 13.371094 C 70.117188 15.324219 69.617188 17.199219 68.546875 18.8125 C 67.539062 20.34375 66.226562 21.679688 65.007812 23.152344 L 65.816406 23.152344 C 72.796875 23.152344 79.332031 23.246094 85.855469 23.105469 C 89.296875 23.03125 92.144531 25.988281 92.054688 29.324219 L 92.03125 37.589844 C 92.03125 39.375 91.742188 39.660156 89.910156 39.71875 L 89.589844 39.75 L 89.230469 41.308594 C 89.238281 49.785156 89.246094 58.261719 89.246094 66.734375 L 89.246094 67.382812 C 89.121094 68.503906 88.695312 68.976562 87.851562 68.9375 C 87 68.898438 86.648438 68.390625 86.65625 67.570312 L 86.65625 62.097656 C 86.65625 55.125 86.65625 48.148438 86.65625 41.167969 L 86.65625 39.785156 L 56.773438 39.785156 L 56.773438 41.21875 C 56.773438 51.160156 56.773438 61.089844 56.773438 71.027344 L 56.90625 71.855469 C 56.40625 72.574219 55.90625 73.222656 55.464844 73.230469 C 55.027344 73.238281 54.4375 72.617188 54.183594 72.140625 C 53.964844 71.722656 54.121094 71.109375 54.121094 70.578125 L 54.121094 39.773438 L 24.417969 39.773438 C 24.390625 40.027344 24.328125 40.257812 24.328125 40.480469 L 24.300781 77.832031 C 24.285156 80.308594 25.964844 81.816406 28.292969 81.796875 L 46.542969 81.800781 C 47.082031 81.808594 47.796875 82.011719 48.117188 82.390625 C 48.714844 83.101562 48.164062 84.148438 47.207031 84.273438 L 45.386719 84.328125 C 39.75 84.328125 34.113281 84.238281 28.472656 84.355469 C 24.015625 84.453125 21.597656 81.234375 21.65625 77.472656 L 21.710938 48.15625 C 21.710938 45.402344 21.710938 42.652344 21.710938 39.765625 " clip-rule="nonzero"></path></clipPath><clipPath id="c326cc7ebc"><path d="M 48.65625 50.664062 L 93.367188 50.664062 L 93.367188 105.59375 L 48.65625 105.59375 Z M 48.65625 50.664062 " clip-rule="nonzero"></path></clipPath><clipPath id="9793130cb6"><path d="M 64.554688 68.019531 L 64.5625 79.816406 C 64.570312 81.019531 64.21875 81.988281 63.058594 82.480469 C 61.859375 82.996094 60.871094 82.585938 60 81.691406 L 56.296875 78.003906 C 54.628906 76.425781 52.03125 77.21875 51.554688 79.429688 C 51.316406 80.539062 51.769531 81.4375 52.589844 82.117188 C 55.628906 84.648438 57.601562 87.894531 59.050781 91.515625 L 60.207031 94.054688 C 63.238281 100.34375 69.839844 103.761719 77.015625 102.785156 C 83.308594 101.925781 88.804688 96.632812 89.917969 90.089844 C 90.351562 87.542969 90.417969 84.929688 90.53125 82.339844 L 90.558594 75.285156 C 90.539062 73.871094 89.574219 72.859375 88.367188 72.835938 C 87.253906 72.8125 86.238281 73.796875 86.09375 75.121094 L 86.074219 76.941406 C 86.109375 77.84375 85.773438 78.523438 84.832031 78.546875 C 83.878906 78.5625 83.40625 77.964844 83.414062 76.964844 L 83.355469 72.589844 C 83.265625 71.214844 82.316406 70.363281 81.09375 70.394531 C 79.875 70.421875 78.996094 71.339844 78.941406 72.714844 L 78.925781 75.753906 C 78.933594 76.65625 78.6875 77.425781 77.644531 77.457031 C 76.539062 77.488281 76.230469 76.738281 76.246094 75.753906 L 76.246094 70.402344 C 76.222656 69.09375 75.335938 68.019531 74.222656 67.871094 C 73.109375 67.71875 72.066406 68.554688 71.742188 69.902344 L 71.660156 70.625 C 71.648438 72.363281 71.65625 73.746094 71.648438 75.121094 C 71.648438 75.902344 71.199219 76.472656 70.480469 76.351562 C 69.980469 76.261719 69.480469 75.71875 69.152344 75.253906 L 69.078125 74.46875 C 69.078125 68.234375 69.09375 62.394531 69.070312 56.566406 C 69.0625 54.625 68.199219 53.570312 66.785156 53.578125 C 65.375 53.585938 64.5625 54.683594 64.5625 56.59375 L 64.5625 68.027344 M 71.617188 65.726562 C 75.402344 64.875 76.46875 65.300781 78.570312 68.386719 C 81.710938 67.101562 83.742188 67.675781 85.828125 70.929688 C 87.417969 70.148438 89.015625 69.953125 90.644531 70.945312 C 92.210938 71.910156 93.203125 73.269531 93.160156 75.089844 C 93.046875 80.070312 93.023438 85.066406 92.554688 90.015625 C 91.867188 97.257812 85.296875 103.964844 78.128906 105.1875 C 69.003906 106.75 61.171875 102.546875 57.398438 94.109375 C 56.527344 92.152344 55.726562 90.121094 54.5625 88.34375 C 53.464844 86.679688 51.949219 85.28125 50.574219 83.8125 C 48.820312 81.929688 48.449219 79.332031 49.695312 77.210938 C 51.441406 74.230469 55.4375 73.613281 57.9375 75.992188 L 61.484375 79.824219 C 61.640625 79.75 61.789062 79.675781 61.949219 79.59375 L 61.949219 78.367188 C 61.949219 71.027344 61.949219 63.6875 61.957031 56.339844 C 61.957031 54.042969 62.875 52.25 65.0625 51.292969 C 68.136719 49.949219 71.535156 52.316406 71.617188 55.894531 L 71.632812 65.726562 " clip-rule="nonzero"></path></clipPath></defs><g clip-path="url(#b87ce51fbf)"><g clip-path="url(#d141e6cbfa)"><path fill="#000000" d="M 15.125 2.757812 L 96.878906 2.757812 L 96.878906 109.105469 L 15.125 109.105469 Z M 15.125 2.757812 " fill-opacity="1" fill-rule="nonzero"></path></g></g><g clip-path="url(#c326cc7ebc)"><g clip-path="url(#9793130cb6)"><path fill="#000000" d="M 15.125 2.757812 L 96.878906 2.757812 L 96.878906 109.105469 L 15.125 109.105469 Z M 15.125 2.757812 " fill-opacity="1" fill-rule="nonzero"></path></g></g></svg>