<svg xmlns="http://www.w3.org/2000/svg" xmlns:xlink="http://www.w3.org/1999/xlink" width="150" viewBox="0 0 112.5 112.499997" height="150" preserveAspectRatio="xMidYMid meet"><defs><clipPath id="fa4c00258a"><path d="M 3.246094 11.445312 L 109 11.445312 L 109 100.554688 L 3.246094 100.554688 Z M 3.246094 11.445312 " clip-rule="nonzero"></path></clipPath><clipPath id="65c6022ca4"><path d="M 35.367188 50.675781 L 36.011719 51.214844 C 42.65625 53.773438 49.0625 56.253906 55.507812 58.644531 C 56.195312 58.898438 57.171875 58.734375 57.902344 58.457031 L 75.957031 51.550781 C 76.4375 51.363281 76.882812 51.101562 77.683594 50.699219 C 74.085938 49.324219 70.859375 48.085938 67.617188 46.859375 C 63.964844 45.488281 60.316406 43.054688 56.664062 43.058594 C 52.9375 43.066406 49.203125 45.449219 45.488281 46.832031 L 35.367188 50.675781 M 29.730469 55.207031 L 29.582031 56.140625 C 29.574219 65.28125 29.605469 74.09375 29.539062 82.894531 C 29.53125 84.277344 30.222656 84.710938 31.300781 85.121094 L 51.570312 92.847656 C 52.125 93.058594 52.707031 93.199219 53.460938 93.429688 C 53.460938 83.949219 53.492188 74.71875 53.394531 65.492188 C 53.386719 64.871094 52.527344 63.953125 51.863281 63.683594 L 37.554688 58.210938 C 34.996094 57.230469 32.433594 56.246094 29.730469 55.214844 M 59.410156 93.3125 L 60.277344 93.253906 C 67.738281 90.40625 74.898438 87.695312 82.007812 84.859375 C 82.613281 84.621094 83.222656 83.523438 83.230469 82.8125 L 83.277344 56.410156 C 83.277344 56.082031 83.179688 55.753906 83.132812 55.457031 L 82.714844 55.359375 C 75.242188 58.1875 67.878906 60.957031 60.554688 63.847656 C 60.007812 64.066406 59.488281 65.085938 59.464844 65.757812 L 59.410156 74.273438 Z M 99.226562 93.960938 C 95.171875 92.476562 91.535156 91.070312 87.84375 89.839844 C 87.082031 89.585938 86.039062 89.734375 85.253906 90.035156 L 59.21875 99.988281 C 57.304688 100.734375 55.589844 100.742188 53.675781 99.996094 L 27.855469 90.070312 C 26.273438 89.453125 24.953125 89.460938 23.40625 90.101562 L 12.746094 94.179688 C 13.394531 95.984375 13.976562 97.621094 14.773438 99.839844 C 10.667969 98 7.09375 96.394531 3.246094 94.671875 C 4.949219 90.878906 6.589844 87.226562 8.445312 83.105469 C 9.289062 85.1875 9.9375 86.792969 10.699219 88.683594 L 22.988281 83.933594 C 23.414062 83.753906 23.625 82.621094 23.625 81.933594 L 23.667969 52.320312 C 23.667969 49.191406 23.988281 48.726562 26.902344 47.613281 L 51.371094 38.320312 C 52.929688 37.738281 53.574219 37.070312 53.519531 35.308594 C 53.378906 30.203125 53.46875 25.09375 53.46875 19.726562 L 48.4375 19.726562 C 51.222656 16.933594 54.011719 14.125 56.679688 11.445312 C 59.082031 13.859375 61.859375 16.636719 64.789062 19.570312 L 59.382812 19.570312 C 59.382812 25.429688 59.335938 31.015625 59.457031 36.59375 C 59.464844 37.117188 60.457031 37.824219 61.136719 38.09375 L 85.800781 47.496094 C 88.914062 48.675781 89.210938 49.117188 89.21875 52.511719 L 89.191406 82.125 C 89.183594 83.546875 89.53125 84.285156 90.960938 84.746094 C 94.378906 85.867188 97.746094 87.175781 101.324219 88.472656 C 102.023438 86.703125 102.667969 85.082031 103.535156 82.910156 C 105.394531 87.011719 107.027344 90.625 108.769531 94.46875 C 104.96875 96.171875 101.375 97.777344 97.253906 99.621094 C 98.015625 97.441406 98.605469 95.769531 99.234375 93.953125 " clip-rule="nonzero"></path></clipPath></defs><g clip-path="url(#fa4c00258a)"><g clip-path="url(#65c6022ca4)"><path fill="#000000" d="M 3.246094 11.445312 L 108.71875 11.445312 L 108.71875 100.554688 L 3.246094 100.554688 Z M 3.246094 11.445312 " fill-opacity="1" fill-rule="nonzero"></path></g></g></svg>