<svg xmlns="http://www.w3.org/2000/svg" xmlns:xlink="http://www.w3.org/1999/xlink" width="150" viewBox="0 0 112.5 112.499997" height="150" preserveAspectRatio="xMidYMid meet"><defs><clipPath id="a7976a4794"><path d="M 23.003906 11.445312 L 89 11.445312 L 89 100.683594 L 23.003906 100.683594 Z M 23.003906 11.445312 " clip-rule="nonzero"></path></clipPath><clipPath id="1d1443217a"><path d="M 29.066406 90.921875 C 30.152344 92.296875 31.421875 93.894531 32.867188 95.738281 L 32.867188 90.921875 Z M 70.328125 97.785156 L 70.328125 29.808594 C 68.671875 29.808594 67.15625 29.925781 65.664062 29.753906 C 65.027344 29.679688 64.46875 29 63.871094 28.589844 C 64.476562 28.128906 65.042969 27.359375 65.699219 27.261719 C 67.125 27.050781 68.597656 27.1875 70.054688 27.195312 C 73.113281 27.214844 73.195312 27.304688 73.195312 30.441406 L 73.195312 89.90625 L 78.246094 89.90625 L 78.246094 21.96875 L 75.894531 21.96875 C 68.546875 21.96875 61.199219 21.96875 53.851562 21.96875 C 52.648438 21.96875 51.246094 21.96875 51.664062 20.257812 C 51.78125 19.773438 53.1875 19.332031 54 19.324219 L 78.222656 19.308594 C 80.859375 19.316406 81.042969 19.527344 81.042969 22.199219 L 81.050781 82.023438 L 86.121094 82.023438 L 86.121094 14.230469 L 41.769531 14.230469 L 41.769531 19.285156 C 42.925781 19.285156 43.867188 19.226562 44.808594 19.300781 C 45.859375 19.382812 47.464844 18.773438 47.527344 20.570312 C 47.585938 22.394531 45.996094 21.894531 44.921875 21.953125 L 41.867188 21.960938 C 39.132812 21.960938 36.40625 21.960938 33.710938 21.960938 L 33.710938 27.179688 C 40.378906 27.179688 46.914062 27.179688 53.449219 27.179688 L 58.683594 27.261719 C 59.144531 27.296875 59.882812 28.015625 59.890625 28.441406 C 59.898438 28.867188 59.257812 29.507812 58.757812 29.71875 C 58.1875 29.949219 57.472656 29.808594 56.816406 29.808594 L 28.222656 29.816406 C 27.457031 29.816406 26.6875 29.882812 25.902344 29.910156 L 25.902344 88.011719 C 28.457031 88.011719 30.851562 88.054688 33.242188 87.996094 C 35.019531 87.953125 35.722656 88.75 35.667969 90.503906 L 35.648438 97.769531 Z M 30.949219 27.1875 C 30.949219 25.007812 30.964844 23.191406 30.941406 21.378906 C 30.925781 19.9375 31.546875 19.234375 33.054688 19.285156 C 34.863281 19.347656 36.667969 19.300781 38.789062 19.300781 L 38.773438 13.761719 C 38.722656 12.074219 39.460938 11.445312 41.132812 11.445312 L 86.539062 11.445312 C 88.316406 11.4375 89.003906 12.066406 88.996094 13.867188 L 88.980469 82.402344 C 88.980469 84.203125 88.308594 84.921875 86.53125 84.832031 C 84.808594 84.75 83.066406 84.808594 81.039062 84.808594 L 81.050781 90.378906 C 81.105469 92.019531 80.453125 92.796875 78.738281 92.714844 C 77.003906 92.632812 75.273438 92.699219 73.210938 92.699219 L 73.226562 98.25 C 73.28125 99.921875 72.539062 100.5625 70.867188 100.554688 L 35.289062 100.488281 C 34.390625 100.480469 33.292969 100.011719 32.636719 99.390625 L 24.296875 91.066406 C 23.601562 90.3125 23.085938 89.0625 23.078125 88.042969 L 23.003906 29.539062 C 23.003906 27.6875 23.773438 27.089844 25.507812 27.164062 C 27.238281 27.238281 28.964844 27.179688 30.949219 27.179688 " clip-rule="nonzero"></path></clipPath><clipPath id="91a6d5fa4e"><path d="M 32.183594 54 L 61.453125 54 L 61.453125 81.746094 L 32.183594 81.746094 Z M 32.183594 54 " clip-rule="nonzero"></path></clipPath><clipPath id="c623b5f6de"><path d="M 37.738281 67.46875 C 38 72.957031 41.941406 77.109375 47.191406 77.5 C 48.558594 77.59375 49.332031 77.175781 49.984375 76.011719 C 50.378906 75.316406 51.101562 74.382812 51.707031 74.355469 C 52.3125 74.324219 52.96875 75.304688 53.65625 75.878906 C 57.769531 73.324219 59.527344 68.566406 58.0625 63.921875 C 57.488281 62.09375 56.726562 60.78125 54.441406 61.078125 C 53.796875 61.160156 52.769531 60.71875 52.460938 60.199219 C 52.207031 59.765625 52.761719 58.867188 52.976562 58.113281 C 49.28125 55.574219 43.507812 56.523438 40.171875 60.300781 C 38.984375 61.644531 38.191406 62.914062 39.625 64.65625 C 40.035156 65.15625 40.207031 66.277344 39.925781 66.789062 C 39.679688 67.238281 38.617188 67.230469 37.738281 67.476562 M 54.097656 78.835938 L 54.097656 81.730469 C 53.320312 81.65625 52.515625 81.671875 51.765625 81.484375 C 50.328125 81.121094 48.945312 80.378906 47.488281 80.238281 C 39.917969 79.476562 35.050781 74.273438 34.953125 66.671875 L 34.90625 66.246094 L 34.191406 66.007812 C 33.382812 65.6875 32.578125 65.4375 32.449219 65.027344 C 32.324219 64.617188 32.765625 63.707031 33.191406 63.496094 C 35.3125 62.480469 36.558594 60.691406 37.953125 58.914062 C 42.148438 53.574219 49.167969 52.625 55.730469 56.425781 L 55.972656 55.984375 C 56.652344 55.425781 57.171875 55.058594 57.6875 54.679688 C 58.070312 55.21875 58.816406 55.792969 58.769531 56.292969 C 58.546875 58.660156 59.53125 60.617188 60.414062 62.691406 C 62.667969 67.976562 60.585938 74.324219 55.582031 77.878906 C 54.992188 78.296875 54.375 78.671875 54.097656 78.84375 " clip-rule="nonzero"></path></clipPath></defs><g clip-path="url(#a7976a4794)"><g clip-path="url(#1d1443217a)"><path fill="#000000" d="M 19.273438 7.714844 L 92.730469 7.714844 L 92.730469 104.414062 L 19.273438 104.414062 Z M 19.273438 7.714844 " fill-opacity="1" fill-rule="nonzero"></path></g></g><g clip-path="url(#91a6d5fa4e)"><g clip-path="url(#c623b5f6de)"><path fill="#000000" d="M 19.273438 7.714844 L 92.730469 7.714844 L 92.730469 104.414062 L 19.273438 104.414062 Z M 19.273438 7.714844 " fill-opacity="1" fill-rule="nonzero"></path></g></g></svg>