<svg xmlns="http://www.w3.org/2000/svg" xmlns:xlink="http://www.w3.org/1999/xlink" width="150" viewBox="0 0 112.5 112.499997" height="150" preserveAspectRatio="xMidYMid meet"><defs><clipPath id="9369849a0d"><path d="M 11 11.109375 L 101 11.109375 L 101 100.894531 L 11 100.894531 Z M 11 11.109375 " clip-rule="nonzero"></path></clipPath><clipPath id="73e55dbada"><path d="M 18.164062 67.925781 L 18.421875 68.074219 C 21.902344 64.742188 25.253906 61.332031 28.601562 57.925781 C 32.796875 53.65625 37.105469 52.976562 42.453125 55.671875 L 58.992188 63.929688 C 61.789062 65.320312 62.574219 65.191406 64.777344 62.996094 L 93.046875 34.765625 C 93.488281 34.324219 93.800781 33.554688 93.816406 32.929688 L 93.847656 22.46875 C 93.847656 19.601562 92.570312 18.324219 89.671875 18.324219 L 22.335938 18.324219 C 19.476562 18.324219 18.175781 19.628906 18.167969 22.503906 L 18.164062 61.929688 C 18.164062 63.929688 18.164062 65.921875 18.164062 67.925781 M 93.457031 43.875 L 86.101562 51.429688 C 80.644531 56.910156 75.148438 62.355469 69.683594 67.828125 C 65.417969 72.097656 61.113281 72.769531 55.699219 70.039062 L 38.570312 61.464844 C 36.957031 60.644531 35.523438 60.785156 34.277344 62.027344 L 18.625 77.667969 C 18.335938 77.96875 18.183594 78.527344 18.175781 78.96875 L 18.167969 89.832031 C 18.183594 92.347656 19.574219 93.691406 22.105469 93.691406 L 66.914062 93.699219 C 67.945312 93.699219 68.972656 93.691406 69.996094 93.773438 C 71.976562 93.9375 73.28125 95.441406 73.179688 97.367188 C 73.089844 99.203125 71.660156 100.539062 69.714844 100.546875 L 46.632812 100.554688 C 38.269531 100.554688 29.90625 100.546875 21.542969 100.546875 C 16.207031 100.546875 11.613281 96.492188 11.382812 91.140625 C 11.136719 85.5625 11.246094 79.960938 11.246094 74.375 L 11.242188 22.46875 C 11.210938 16.441406 15.429688 12.164062 20.132812 11.566406 L 23.882812 11.453125 C 46.066406 11.453125 68.25 11.445312 90.425781 11.460938 C 96.144531 11.46875 100.738281 16.058594 100.738281 21.78125 L 100.753906 69.261719 C 100.753906 71.582031 99.304688 73.203125 97.273438 73.1875 C 95.191406 73.175781 93.859375 71.660156 93.851562 69.230469 L 93.839844 44.152344 C 93.710938 44.054688 93.585938 43.964844 93.457031 43.867188 " clip-rule="nonzero"></path></clipPath><clipPath id="37730aa727"><path d="M 66 67.695312 L 101 67.695312 L 101 100.894531 L 66 100.894531 Z M 66 67.695312 " clip-rule="nonzero"></path></clipPath><clipPath id="42539efdbb"><path d="M 86.917969 78.929688 L 86.917969 85.449219 C 86.917969 89.25 86.929688 93.050781 86.925781 96.851562 C 86.925781 99.089844 85.617188 100.523438 83.59375 100.554688 C 81.511719 100.585938 80.128906 99.144531 80.121094 96.851562 L 80.105469 78.550781 C 78.492188 80.042969 77.136719 81.296875 75.792969 82.550781 L 72.371094 85.761719 C 70.742188 87.234375 68.667969 87.257812 67.324219 85.859375 C 65.914062 84.390625 66.007812 82.292969 67.644531 80.746094 L 80.070312 69.105469 C 82.027344 67.289062 85.058594 67.296875 87.019531 69.121094 L 99.445312 80.761719 C 101.117188 82.34375 101.199219 84.367188 99.746094 85.859375 C 98.402344 87.242188 96.300781 87.210938 94.695312 85.734375 L 87.261719 78.804688 C 87.148438 78.839844 87.035156 78.886719 86.917969 78.921875 " clip-rule="nonzero"></path></clipPath><clipPath id="724d497106"><path d="M 31.644531 25.066406 L 52.769531 25.066406 L 52.769531 45.816406 L 31.644531 45.816406 Z M 31.644531 25.066406 " clip-rule="nonzero"></path></clipPath><clipPath id="0a3f64e625"><path d="M 42.308594 38.820312 C 44.199219 38.789062 45.675781 37.28125 45.671875 35.382812 C 45.664062 33.523438 44.109375 32.023438 42.21875 32.046875 C 40.347656 32.070312 38.816406 33.621094 38.835938 35.472656 C 38.859375 37.339844 40.421875 38.839844 42.308594 38.8125 M 52.53125 35.398438 C 52.523438 41.195312 47.925781 45.75 42.125 45.726562 C 36.664062 45.703125 31.929688 40.96875 31.902344 35.519531 C 31.871094 29.828125 36.589844 25.140625 42.332031 25.140625 C 47.960938 25.140625 52.546875 29.746094 52.539062 35.390625 " clip-rule="nonzero"></path></clipPath></defs><g clip-path="url(#9369849a0d)"><g clip-path="url(#73e55dbada)"><path fill="#000000" d="M 7.5 7.710938 L 104.453125 7.710938 L 104.453125 104.289062 L 7.5 104.289062 Z M 7.5 7.710938 " fill-opacity="1" fill-rule="nonzero"></path></g></g><g clip-path="url(#37730aa727)"><g clip-path="url(#42539efdbb)"><path fill="#000000" d="M 7.5 7.710938 L 104.453125 7.710938 L 104.453125 104.289062 L 7.5 104.289062 Z M 7.5 7.710938 " fill-opacity="1" fill-rule="nonzero"></path></g></g><g clip-path="url(#724d497106)"><g clip-path="url(#0a3f64e625)"><path fill="#000000" d="M 7.5 7.710938 L 104.453125 7.710938 L 104.453125 104.289062 L 7.5 104.289062 Z M 7.5 7.710938 " fill-opacity="1" fill-rule="nonzero"></path></g></g></svg>