<svg id="Layer_1" data-name="Layer 1" xmlns="http://www.w3.org/2000/svg" viewBox="0 0 52 52"><defs><style>.cls-1{fill:#ac292a;}</style></defs><path class="cls-1" d="M15,50.38l-.33-.17a1.42,1.42,0,0,1,.65-2.68h2.4V44.28H7a3.8,3.8,0,0,1-3.89-3.16,10.45,10.45,0,0,1,0-1.86H42.78c.52,3.12-1.52,5.05-4,5-3.33,0-6.67,0-10,0h-.59v3.25H30.4A1.44,1.44,0,0,1,32,48.62a1.46,1.46,0,0,1-1,1.7s-.05,0-.07.06Z"/><path class="cls-1" d="M3.06,36.33v-.55c0-6,0-12,0-18A4,4,0,0,1,7.2,13.61c6.08.05,12.16,0,18.24,0H26c-.1.16-.18.27-.24.39a18.66,18.66,0,0,0-1.13,2.34,1.05,1.05,0,0,1-.9.8A7.71,7.71,0,0,0,18,21.82a9.54,9.54,0,0,0-.65,4c0,.62,0,1.24-.07,1.85a4.39,4.39,0,0,1-.76,1.92,3.3,3.3,0,0,0,2,5,2.92,2.92,0,0,0,2.55-.42,4.86,4.86,0,0,1,3.1-.84,12.3,12.3,0,0,0,4.05-.43,7.68,7.68,0,0,0,5.26-6,.85.85,0,0,1,.7-.77,7.75,7.75,0,0,0,4.12-2.83c1.43-1.78,2.88-3.54,4.33-5.31l.24-.25V36.34Z"/><path class="cls-1" d="M39.51,17.16l-6.09-6.08,2.46-2,8.18-6.68a2.93,2.93,0,0,1,4.17,4.11L39.81,16.81Z"/><path class="cls-1" d="M24.72,30.33c-.85.08-1.71.12-2.55.25a5.26,5.26,0,0,0-2.48,1c-.24.19-.53.26-.71,0A.7.7,0,0,1,19,31a7.89,7.89,0,0,0,1.23-4.61,16.56,16.56,0,0,1,.15-2.55,5,5,0,0,1,4.89-4,5.38,5.38,0,0,1,3.62,9.51,5.56,5.56,0,0,1-3.56,1.1h-.57A.08.08,0,0,0,24.72,30.33Z"/><path class="cls-1" d="M33.45,23.26a8.35,8.35,0,0,0-6.11-6.12c.57-2.06,2.41-2.91,3.75-4.17l6.53,6.53C36.38,20.84,35.52,22.67,33.45,23.26Z"/></svg>