<svg id="Layer_1" data-name="Layer 1" xmlns="http://www.w3.org/2000/svg" viewBox="0 0 52 52"><defs><style>.cls-1{fill:#ac292a;}</style></defs><path class="cls-1" d="M34.81,36.63h-5.3c-.75,0-1.51,0-2.26,0-.26,0-.39-.05-.48-.34a4.34,4.34,0,0,0-8.33,0c-.08.25-.17.34-.43.34H13.48a1.57,1.57,0,1,1,0-3.14c.66,0,1.31,0,2,0a1.58,1.58,0,1,0,0-3.15c-2.85,0-5.71,0-8.56,0a1.57,1.57,0,0,1-.48-3.07,2.52,2.52,0,0,1,.73-.08c1.85,0,3.71,0,5.56,0A1.58,1.58,0,0,0,14.27,25a1.62,1.62,0,0,0-1.56-1c-1.53,0-3.05,0-4.58,0A1.58,1.58,0,0,1,7.64,21a2.54,2.54,0,0,1,.68-.09c.9,0,1.8,0,2.71,0a1.59,1.59,0,1,0,0-3.15H3.47a1.57,1.57,0,0,1-.59-3,1.62,1.62,0,0,1,.62-.11H21.71l.26,0v8a.91.91,0,0,0,.42.92c.4.22.72,0,1-.21l2.36-1.77c.8.6,1.58,1.21,2.4,1.78a1.31,1.31,0,0,0,.75.26c.42,0,.64-.36.64-.89v-8.1h5.25C34.81,21.92,34.81,29.24,34.81,36.63Z"/><path class="cls-1" d="M50.12,32.44H48.36V34h1.73v2.67c-.67,0-1.35,0-2,0a1.46,1.46,0,0,1-1.8-1,4.1,4.1,0,0,0-4.14-2.41,4.35,4.35,0,0,0-3.81,3l-.15.47H36.46V19.11h.48c2.07,0,4.13,0,6.2,0a2,2,0,0,1,1.79.92c1.52,2.11,3.06,4.22,4.6,6.32a3.16,3.16,0,0,1,.63,2C50.1,29.67,50.12,31,50.12,32.44ZM47.3,27.29c-1.14-1.57-2.28-3-3.28-4.55a2.15,2.15,0,0,0-2.27-1.16,23.24,23.24,0,0,1-2.64,0v5.68Z"/><path class="cls-1" d="M23.56,21.17v-6.6h1.25c-.08-.17-.12-.29-.18-.39a10,10,0,0,0-2.81-3.12A4.13,4.13,0,0,0,19,10.23c-1.29.16-1.77,1.18-1,2.22a13.48,13.48,0,0,0,1.48,1.44c-.73,0-1.51,0-2.28,0-.12,0-.27-.17-.36-.3a3,3,0,0,1-.48-3.43,3.51,3.51,0,0,1,3.4-1.53,7.8,7.8,0,0,1,5,3l.36.41a10.37,10.37,0,0,1,1.52-4.59c.19-.29.38-.58.59-.85a.82.82,0,0,1,1.16-.23.8.8,0,0,1,.11,1.18,8.48,8.48,0,0,0-1.62,3.54,2.93,2.93,0,0,0,0,.29.69.69,0,0,0,0,.18l.81-.8a7,7,0,0,1,4.07-2.1,3.76,3.76,0,0,1,2.46.49c2,1.17,1.57,3.3.4,4.65a.45.45,0,0,1-.3.12H31.92a7.84,7.84,0,0,0,.85-.63,5.45,5.45,0,0,0,.86-.94,1.25,1.25,0,0,0-1-2.07,4,4,0,0,0-1.68.17c-2,.71-3.19,2.3-4.3,4.12H28v6.69l-1.3-1c-.91-.68-.93-.68-1.82,0l-1.18.88S23.62,21.16,23.56,21.17Z"/><path class="cls-1" d="M26,43.23H2.37a3.84,3.84,0,0,1-.59,0,.72.72,0,0,1-.68-.76.74.74,0,0,1,.66-.79,2.14,2.14,0,0,1,.44,0H49.8a2.14,2.14,0,0,1,.44,0,.74.74,0,0,1,.66.79.72.72,0,0,1-.68.76,3.84,3.84,0,0,1-.59,0Z"/><path class="cls-1" d="M20,45.81H8.05a.74.74,0,0,1-.74-.71A.79.79,0,0,1,8,44.24a2.68,2.68,0,0,1,.49,0H31.77a.82.82,0,0,1,.82.81.77.77,0,0,1-.83.78c-.79,0-1.57,0-2.36,0Z"/><path class="cls-1" d="M22.63,34.75a2.78,2.78,0,0,1,2.77,2.79,2.8,2.8,0,1,1-5.6,0A2.8,2.8,0,0,1,22.63,34.75Z"/><path class="cls-1" d="M45.2,37.53a2.8,2.8,0,0,1-2.77,2.8,2.83,2.83,0,0,1-2.81-2.82,2.78,2.78,0,0,1,2.81-2.75A2.74,2.74,0,0,1,45.2,37.53Z"/><path class="cls-1" d="M6.56,36.63H5.72a1.57,1.57,0,0,1,0-3.13c.6,0,1.21,0,1.82,0A1.61,1.61,0,0,1,9,35.1,1.59,1.59,0,0,1,7.5,36.63Z"/><path class="cls-1" d="M43.62,45.81H40.87c-.59,0-.92-.3-.93-.78a.82.82,0,0,1,.91-.81h5.6a.81.81,0,0,1,.9.82c0,.46-.34.76-.89.77Z"/></svg>