<svg id="Layer_1" data-name="Layer 1" xmlns="http://www.w3.org/2000/svg" viewBox="0 0 52 52"><defs><style>.cls-1{fill:#ac292a;}</style></defs><path class="cls-1" d="M47.27,38.14c-5,7.7-11.58,12-20.4,12.24-9.54.31-16.72-4-22.17-12.24,1.77,0,3.2.06,4.62,0a2.9,2.9,0,0,0,1.75-.62Q24.35,24.31,37.55,11a4.84,4.84,0,0,0,.4-.52,18.58,18.58,0,0,0-10.68-4,19,19,0,0,0-16.08,6.79,1.56,1.56,0,0,1-.88.59c-1.73.06-3.46,0-5.53,0C9.39,6.54,15.7,2.39,24,1.69a23.79,23.79,0,0,1,23,12.21c-1.55,0-3-.05-4.4,0a2.68,2.68,0,0,0-1.65.55c-9,8.92-17.93,17.88-27,27A16.88,16.88,0,0,0,21.15,45a19.14,19.14,0,0,0,18.94-5.4,4.21,4.21,0,0,1,3.7-1.47C44.8,38.23,45.85,38.14,47.27,38.14Z"/><path class="cls-1" d="M29.16,18.38a6.1,6.1,0,0,1-1.65.34,7.52,7.52,0,0,0-8.83,8.72,2.09,2.09,0,0,1-.45,1.43c-.8.93-1.85,1.65-2.55,2.64-1.71,2.39-4,3-6.76,2.67-.68-.08-1.11-.16-1.33-.91a4.41,4.41,0,0,0-2.66-2.74,1.69,1.69,0,0,1-.82-1.18Q4,26,4.11,22.7a1.64,1.64,0,0,1,.81-1.18,5,5,0,0,0,2.76-2.86,1.34,1.34,0,0,1,1-.73c6.7,0,13.4,0,20.1,0C28.76,17.94,28.79,18,29.16,18.38Z"/><path class="cls-1" d="M44.08,34.12H23.23l-.14-.42a4.09,4.09,0,0,1,1.47-.35,7.5,7.5,0,0,0,8.73-8.81,1.78,1.78,0,0,1,.43-1.32c1.52-1.61,3.1-3.18,4.7-4.71a2.29,2.29,0,0,1,1.34-.6c1.41-.08,2.83,0,4.28,0,.6,1.76,1.49,3.19,3.4,3.72.25.07.48.66.49,1q.06,3.39,0,6.8c0,.36-.23.95-.48,1A5,5,0,0,0,44.08,34.12Z"/><path class="cls-1" d="M.88,15H31.94c-.86,1.19-1.63,2-3.19,1.94-6.8-.09-13.61,0-20.41-.05-1,0-1.52.1-1.69,1.29A2.8,2.8,0,0,1,4,20.6c-.81.1-1,.44-1,1.18,0,2.84,0,5.67.05,8.51a1.44,1.44,0,0,0,.87,1.07,3.23,3.23,0,0,1,2.79,2.8c.11.83.51,1,1.23,1,1.22,0,2.43,0,3.89,0-.95,1.22-1.67,2.09-3.27,2C6,37,3.5,37.07.89,37.07.88,29.66.88,22.41.88,15Z"/><path class="cls-1" d="M40.19,16.92a3.69,3.69,0,0,1,3.66-2c2.39.15,4.79,0,7.27,0V37h-31a3.62,3.62,0,0,1,3.35-1.87c6.7.1,13.41,0,20.11.06,1,0,1.65,0,1.8-1.33a2.71,2.71,0,0,1,2.51-2.35c1-.12,1.13-.55,1.12-1.38q0-4.11,0-8.22c0-.79-.19-1.15-1.07-1.28A2.87,2.87,0,0,1,45.32,18c-.13-1-.6-1.13-1.41-1.1C42.74,17,41.57,16.92,40.19,16.92Z"/><path class="cls-1" d="M19.78,26.84a6,6,0,0,1,7-7Z"/><path class="cls-1" d="M32.23,25.15c.92,4.21-3.46,8.13-7.06,7.06Z"/></svg>