<?xml version="1.0" encoding="utf-8"?>
<!-- Generator: Adobe Illustrator 25.4.1, SVG Export Plug-In . SVG Version: 6.00 Build 0)  -->
<svg version="1.1" id="Layer_1" xmlns="http://www.w3.org/2000/svg" xmlns:xlink="http://www.w3.org/1999/xlink" x="0px" y="0px"
	 viewBox="0 0 52 52" style="enable-background:new 0 0 52 52;" xml:space="preserve">
<style type="text/css">
	.st0{fill:none;stroke:#000000;stroke-width:11;stroke-miterlimit:10;}
	.st1{fill:none;stroke:#000000;stroke-width:10;stroke-miterlimit:10;}
	.st2{fill:none;stroke:#000000;stroke-width:7;stroke-miterlimit:10;}
	.st3{fill:#E9374E;}
</style>
<g>
	<path d="M-3646.9-193.9c2.4-4.6,6.1-6,11.3-5.8c11.4,0.4,22.9,0.1,33.5,0.1c-0.7-4.7-1.8-8.8-1.8-13c-0.1-50.7-0.1-101.5-0.1-152.2
		c0-11.3,0.8-12,12.3-12c12.4,0,24.8,0,38.1,0c-0.9,4-1.6,7.2-2.4,10.9c-11.7,0-23.2,0-35.1,0c0,52.5,0,104.5,0,156.9
		c93,0,185.9,0,279.3,0c0-51.9,0-103.9,0-156.5c-11.1,0-22.2,0-34,0c-1.2-3.8-2.3-7.1-3.7-11.4c14.9,0,29.1-0.2,43.3,0.3
		c2,0.1,4.3,3.4,5.8,5.6c0.9,1.4,0.4,3.6,0.4,5.4c0,51.2,0,102.4-0.1,153.6c0,3.8-1,7.5-1.6,12.2c11.3,0,23.3,0.2,35.3-0.1
		c5.2-0.1,8.9,1.4,11.2,6c0,4.1,0,8.3,0,12.4c-130.6,0-261.2,0-391.8,0C-3646.9-185.6-3646.9-189.7-3646.9-193.9z M-3451.9-187
		c3.4,0,7,0.6,10.2-0.2c2.3-0.6,4-3.2,6-4.9c-1.8-1.7-3.5-4.6-5.4-4.8c-6.8-0.6-13.7-0.5-20.6,0c-1.7,0.1-4.8,3.2-4.5,4.4
		c0.4,2,2.7,4.6,4.7,5.2C-3458.6-186.3-3455.1-187-3451.9-187z"/>
	<path d="M-3435.1-427.9c1.4,3.8,2.8,7.7,4.7,12.9c12.3,0,26.1,0.1,39.8-0.1c1.3,0,2.8-2,3.9-3.3c6.3-7.5,15.7-8.4,22.3-1.8
		c6.1,6,5.7,15.9-0.9,21.5c-6.6,5.6-16,4-21.8-3.2c-1.4-1.8-4.2-3.1-6.5-3.4c-5-0.5-10.1-0.2-17.3-0.2c22.2,15,35.7,33.9,40,58.5
		c10.6,3.1,14.2,9.1,10.1,25c-2.9,10.8-13.9,2.9-21,4.8c-4.4,1.2-6.5-1.5-6.7-6.3c-1-20.4-0.9-21.2,8-22.9
		c-1.6-24.4-25.2-50.9-50.8-57.2c-0.3,0.3-0.8,0.6-0.8,0.9c-0.7,9.8-0.7,9.8-10.7,9.8c-4.1,0-8.3,0-12.5,0c-10.8,0-10.8,0-12.1-10.3
		c-22.8,3.1-48.4,31.4-51,56.7c7.2,0.1,8.6,4.2,8.4,10.8c-0.5,20.9,2.3,18.4-18.4,18.5c-9.9,0-10.3-0.4-10.4-10.6c0-2.5,0-5.1,0-7.6
		c0-9.8,0.1-9.9,10.5-10.9c4.9-24.4,17.8-44.1,40.7-59.3c-9.1,0-16.1-0.3-23.1,0.2c-1.9,0.1-3.9,2.5-5.5,4.2
		c-4.7,5.4-10.5,6.8-16.9,4.4c-6.1-2.3-9.4-7.1-9.1-14c0.3-6.5,4.2-11.6,10.8-13.6c6.6-2,11.6,0.8,15.8,5.7c1.2,1.4,2.9,3.5,4.4,3.5
		c14.5,0.3,28.9,0.2,42.8,0.2c1.4-4.8,2.6-8.9,3.9-12.9C-3454.5-427.9-3444.8-427.9-3435.1-427.9z"/>
	<path d="M-3455.9-371.1c2.6-0.5,4.4,1.2,4.3,6.2c-0.2,17.8,0,35.5-0.3,53.2c0,2.4-2.2,4.7-2.5,7.2c-0.3,3-0.8,7.4,0.8,9
		c1.6,1.5,6.6,1.1,8.8-0.3c3.3-2.1,3-5.8,0.2-9c-1.2-1.5-3-3.2-3-4.9c-0.2-19.8-0.1-39.6-0.1-59.2c6.2-2.5,7.9,0.1,10,5.4
		c8.1,20.4,17.3,40.4,25.8,60.7c1.2,2.8,1.6,6.5,0.7,9.3c-3,8.9-6.9,17.5-10.1,26.4c-1.3,3.6-2.9,5.5-7.3,5.3
		c-14.3-0.6-28.6-0.6-42.8-1.3c-2-0.1-4.8-2.3-5.7-4.3c-4-8.8-7.6-17.7-10.9-26.8c-0.8-2.2-0.7-5.4,0.3-7.6
		C-3477.4-324.5-3466.9-347.1-3455.9-371.1z"/>
	<path d="M-3475.1-247.1c0-3,0-5.5,0-8.6c16.7,0,33.4,0,50.4,0c0,2.7,0,5.4,0,8.6C-3441.1-247.1-3457.8-247.1-3475.1-247.1z"/>
</g>
<g>
	
		<image style="overflow:visible;enable-background:new    ;" width="283" height="178" xlink:href="96F3256F.jpeg"  transform="matrix(1 0 0 1 -8166 -8166)">
	</image>
</g>
<g>
	<path d="M-3869.5-387.3c0-40.2,0-80,0-121.2c-6.2,8.2-11.7,15.2-17,22.4c-10.3,13.8-8.2,13-24,6.6c-41.8-16.8-83.6-33.6-125.3-50.5
		c-7.9-3.2-8.8-7-3.6-13.9c10.5-13.9,20.9-27.9,31.5-41.6c1.9-2.5,4.7-4.6,7.6-5.9c12.8-5.5,25.8-10.5,38.7-15.7
		c5.4-2.2,9.1-1.2,10.7,2.7c1.6,3.9-0.3,7.3-5.6,9.5c-8.4,3.4-16.8,6.8-26,10.5c2,1,3.3,1.8,4.7,2.3c37.2,15,74.5,30.1,111.8,45
		c1.9,0.7,4.5,0.8,6.3,0.1c38-15.2,75.9-30.5,113.8-45.8c0.8-0.3,1.5-0.8,3.1-1.6c-9.5-3.9-18.3-7.5-27-11c-3.3-1.3-5.2-3.5-4.9-7.1
		c0.3-4.3,4.3-7.1,8.8-5.4c14.9,5.8,29.7,11.8,44.5,18c1.5,0.6,2.6,2.3,3.6,3.6c10.9,14.4,21.9,28.9,32.8,43.3
		c4.3,5.8,3.2,9.8-3.5,12.5c-44.8,18.1-89.7,36.2-134.5,54.3c-4.4,1.8-7.6,0.8-10.4-3c-7-9.5-14.2-18.8-22.1-29.2
		c0,41,0,80.8,0,121.1c1.8-0.6,3.4-1.1,4.9-1.7c38.4-15.5,76.8-31,115.2-46.3c3.6-1.5,4.5-3.4,4.5-7c-0.1-16.9-0.1-33.8-0.1-50.7
		c0-1.4-0.1-2.8,0.1-4.2c0.3-4.1,2.6-6.5,6.8-6.3c3.9,0.1,6.1,2.5,6.1,6.4c0.1,21.4,0,42.9,0,64.3c0,4.6-3.3,6-6.9,7.5
		c-36.5,14.7-72.9,29.4-109.4,44.1c-7.9,3.2-15.7,6.6-23.8,9.4c-2.7,0.9-6.3,1.1-8.9,0c-44.8-17.8-89.4-35.9-134.1-53.9
		c-4.4-1.8-6.1-4.5-6-9.1c0.1-20,0-40.1,0.1-60.1c0-5.8,2.3-8.7,6.7-8.6c4.2,0.1,6.3,2.8,6.3,8.4c0,17.8,0.1,35.5,0,53.3
		c0,3.1,0.7,5,3.9,6.3c39.1,15.6,78.1,31.4,117.2,47.1C-3872.1-388-3871-387.8-3869.5-387.3z M-3900.4-489.7
		c9.2-12.2,18-23.9,27.1-35.9c-1.9-0.9-3-1.4-4.2-1.9c-36.4-14.7-72.9-29.4-109.3-44c-11.8-4.7-11.8-4.7-19.5,5.6
		c-6.3,8.4-12.7,16.8-19.3,25.7C-3983.6-523.3-3942.2-506.6-3900.4-489.7z M-3699.8-540.2c-8.4-11.2-16.6-21.8-24.5-32.6
		c-2.1-2.8-3.9-3-6.9-1.8c-38.6,15.7-77.3,31.3-116,46.9c-1.5,0.6-3,1.3-4.9,2.2c9.4,12.4,18.3,24.1,27.1,35.8
		C-3783.1-506.7-3741.7-523.4-3699.8-540.2z"/>
	<path d="M-3788.7-659.5c0,11.3-0.1,22.6,0.1,34c0.1,4.8-1.6,7.8-6.2,9.6c-21.3,8.5-42.6,17.2-63.9,25.5c-2.3,0.9-5.6,0.9-7.9,0
		c-21.4-8.4-42.6-17.1-63.9-25.6c-4.3-1.7-6.2-4.4-6.2-9.1c0.1-23.2,0.1-46.3,0-69.5c0-4.6,1.6-7.5,6-9.2
		c21.3-8.5,42.5-17.2,63.9-25.5c2.6-1,6.3-0.9,8.9,0.2c21.1,8.2,41.9,16.8,62.9,25.2c4.5,1.8,6.5,4.6,6.4,9.5
		C-3788.8-682.8-3788.7-671.1-3788.7-659.5z M-3869.2-605.5c0-19.6,0.1-38.2-0.2-56.9c0-1.4-2-3.5-3.5-4.2
		c-15.7-6.5-31.5-12.8-47.4-19.2c-0.9-0.3-1.9-0.4-3.2-0.6c0,19,0,37.6,0.1,56.2c0,1.2,1.1,3.1,2.1,3.5
		C-3904.2-619.6-3887.2-612.8-3869.2-605.5z M-3802-686.4c-1.3,0.2-1.8,0.1-2.2,0.3c-16.3,6.5-32.5,13.2-48.8,19.6
		c-3,1.2-3.1,3.2-3.1,5.8c0,16.9,0,33.8,0,50.6c0,1.3,0.3,2.6,0.5,4.4c17.5-7.1,34.6-13.9,51.6-20.9c1-0.4,2-2,2-3
		C-3802-648.4-3802-667.2-3802-686.4z M-3911.8-697c1.6,0.8,2.1,1.1,2.6,1.4c14.6,5.9,29.3,11.9,44,17.6c1.7,0.7,4.1,0.4,5.8-0.2
		c13.9-5.4,27.7-11.1,41.5-16.7c1.1-0.5,2.2-1.2,4.1-2.2c-16.5-6.7-32-13-47.6-19.1c-1.2-0.5-3,0.1-4.4,0.6
		c-9.9,3.9-19.6,7.9-29.5,11.8C-3900.5-701.6-3905.7-699.5-3911.8-697z"/>
</g>
<path class="st0" d="M-3796.9-1485.1c15.2,0,30.3-0.1,45.5,0.1c6.6,0.1,12.2,2.8,17,7.4c30.9,30.2,61.9,60.2,92.8,90.3
	c21.7,21.1,43.5,42.2,65.2,63.3c11.3,11,11.6,23.3,0.6,34.7c-3.5,3.7-7.3,7.2-10.9,10.8c-21.1,20.9-42.2,41.8-63.4,62.8
	c-4.1,4.1-9,6.9-14.9,7.8c-8.4,1.3-14.6-2.6-20.2-8.2c-51.1-50.6-102.1-101.1-153.2-151.6c-5.2-5.1-9.5-10.7-12.9-17
	c-2.5-4.6-4.3-9.5-4.3-14.8c0-21.8-0.1-43.6,0.1-65.4c0-4.6,0.6-9.2,1.2-13.8c0.5-3.8,2-5.2,5.7-5.7c2.6-0.3,5.2-0.5,7.8-0.5
	c14.6-0.1,29.2,0,43.8,0C-3796.9-1485.1-3796.9-1485.1-3796.9-1485.1z"/>
<path class="st0" d="M-3810.8-1424.2c10.1-0.1,18.7-8.7,18.6-18.8c-0.1-10.3-8.8-18.9-19-18.7c-10.1,0.2-18.5,8.8-18.4,18.9
	C-3829.5-1432.6-3820.8-1424.1-3810.8-1424.2z"/>
<path d="M-3659.2-1307.1c1-1.6,1.7-2.6,2.4-3.7c10.3-15.9,8.8-33.1-4.2-46.8c-10.5-11.1-22.8-13.9-36.9-8.2c-4.5,1.8-8.8,4-12.8,5.8
	c-7.6-7.5-15.1-15-22.7-22.5c5.6-2.3,10.7-0.5,15.7,2.4c4.3-5.7,8.5-11.1,12.8-16.7c-7.3-4.9-14.8-7.7-23.5-6.7
	c-6.2,0.7-11.6,3.2-16.6,6.8c-1.6,1.2-2.7,1.1-3.9-0.4c-1.1-1.4-2.4-2.8-3.5-4c-3.1,3.2-5.9,5.9-9.2,9.3c1.9,1.5,4,3.1,6.1,4.7
	c-1.3,1.9-2.3,3.3-3.3,4.8c-4.6,7.3-6.5,15.1-4.9,23.7c1.8,9.8,7.5,16.8,15.3,22.3c7.4,5.2,15.7,7.6,24.6,5.5
	c6.1-1.4,12-3.7,17.8-5.6c7.9,7.8,15.9,15.8,24.1,23.8c-7.8,2.4-14.9,0.3-21.8-3.8c-4.5,5.6-9,11.1-13.5,16.7
	c16.6,12.1,33.1,13.6,50.2,0.8c3.5,3.7,6.9,7.2,10.1,10.5c3-2.8,5.8-5.5,8.9-8.6C-3651.7-1300.2-3655.5-1303.7-3659.2-1307.1z
	 M-3740.9-1357c-4-4.4-4.8-11.3-2.1-16.4c6.5,6.5,13.1,13.1,19.7,19.7C-3729.8-1350.9-3736.5-1352.1-3740.9-1357z M-3671.6-1321
	c-7.4-7.4-14.9-14.8-22.4-22.3c8.4-4.5,15.3-3.8,20.8,2.2C-3668-1335.3-3667.4-1327.2-3671.6-1321z"/>
<path class="st1" d="M-3708.6-1478l158,158c1,1,2,2,2.9,3.1c4.1,5,5.2,10.5,0.7,17.8c-0.9,1.5-2,2.8-3.2,4.1l-49.8,54.9"/>
<g>
	<path d="M-2917.2-931l-1.6,1.8c-0.6,0.3-1.1,0.5-1.7,0.8c-4,0.2-8.6,1.3-11.4-0.5c-2.7-1.7-3.2-7.1-4.5-10.9
		c-6.9-20.2-23.4-30.7-44.6-28.5c-18.1,2-32.4,17.2-34.7,36.8c0,0.2-0.1,0.4-0.1,0.6c-0.2,1.3-1.3,2.2-2.6,2.2h-24.5
		c-0.7,0-1.3,0.3-1.8,0.7c-0.3,0.3-0.5,0.5-0.5,0.7c-1.2,9.5-1.2,9.5-11,9.5c-11.4,0-22.9,0-34.3,0c-3.7,0-7.2-0.4-7-5.2
		c0.2-4.5,3.8-4.4,7.1-4.4c10.8,0,21.6,0,32.8,0c1.4,0,2.5-1.1,2.6-2.4c0.1-1.4,0.2-2.7,0.2-3.9c0-47.2,0-94.4,0-141.6
		c0-10.2-2.1-12.4-12.3-12.4c-62.9,0-125.7,0-188.6,0c-9.4,0-11.8,2.4-11.8,11.5c0,45.6,0,91.2,0,136.8c0,9.3,2.8,12,12.2,12
		c19.9,0,39.8,0,59.6-0.1c3.7,0,7.5,0.4,7.4,4.9c-0.1,4.4-3.9,4.8-7.6,4.8c-19.3-0.1-38.6-0.4-57.8,0.1c-11.2,0.3-19-3.7-23.3-14
		c-0.1-0.3-0.2-0.7-0.2-1v-150.8c0-0.4,0.1-0.8,0.2-1.1c2.9-6.1,7.3-10.5,13.8-12.6c0.3-0.1,0.5-0.1,0.8-0.1c9.8,0,191.7,0,202.8,0
		c0.4,0,0.7,0.1,1,0.2c9.9,4.2,14.1,11.6,13,22.4c-0.4,3.8-0.1,7.6-0.1,11.4c0,4.9,0,9.8,0,14.4c0,1.2,0.7,2.2,1.9,2.5
		c0.1,0,0.2,0,0.3,0c14.2,0.2,28.5,0.6,42.7,0.6c3.7,0,5.6,1.2,7.4,4.4c6.7,12,13.6,24,20.9,35.8c1.8,2.8,4.7,5.5,7.7,6.9
		c11.5,5.3,23.1,10.2,34.8,14.9c4.6,1.8,7.8,5.9,8.7,10.7c1.4,7.5,2.9,15,4.3,22.5c0,0.2,0.1,0.3,0.1,0.5v17.3
		C-2916.6-932-2916.8-931.4-2917.2-931z M-3032.8-1029.5v25.7c0,1.4,1.2,2.6,2.6,2.6h33.9c2,0,3.2-2.1,2.3-3.8
		c-4.5-8.6-8.8-16.7-13.2-24.8c-0.6-1.1-2.4-2.2-3.7-2.2c-6.3-0.2-12.7-0.1-19.3-0.1C-3031.6-1032.1-3032.8-1030.9-3032.8-1029.5z"
		/>
	<path d="M-3149.2-893.5c-11.7-3.8-21.3-10-25.3-22.5c-5.7-17.7,3.9-36.2,21.6-41.7c17.3-5.3,36.1,4.8,40.9,22.1
		c5.1,18.3-5.4,36.3-23.7,40.9c-0.9,0.2-1.8,0.7-2.7,1.1C-3142-893.5-3145.6-893.5-3149.2-893.5z M-3131-926.4
		c-0.1-7-5.8-12.8-12.5-12.8c-6.7,0-12.8,6-12.8,12.7c-0.1,7.1,5.9,12.9,13.1,12.8C-3136-913.8-3131-919.1-3131-926.4z"/>
	<path d="M-2980.5-893.5c-12.1-3.7-21.5-10.3-25.4-23.1c-5.4-17.8,4.3-35.9,22.3-41.2c17.1-5,35.6,5.2,40.3,22.2
		c5,17.8-5.3,36.1-23,40.8c-1.1,0.3-2.2,0.8-3.3,1.2C-2973.2-893.5-2976.9-893.5-2980.5-893.5z M-2975-913.7
		c7.3,0.1,12.7-5.1,12.8-12.2c0.1-7.2-5.8-13.4-12.7-13.3c-6.7,0.1-12.7,6.1-12.7,12.8C-2987.6-919.6-2981.9-913.8-2975-913.7z"/>
	<g>
		<path d="M-3211.2-1043.3h22.2v7.6h-13.4v3.4h12.4v6.9h-12.4v8.7h-8.9L-3211.2-1043.3L-3211.2-1043.3z"/>
		<path d="M-3186.9-1043.3h13c4.7,0,7.7,1.2,9.6,3c1.6,1.6,2.4,3.6,2.4,6.3v0.1c0,3.9-2,6.6-5.2,8.1l6.2,9h-10.1l-5-7.6h-1.9v7.6
			h-8.9L-3186.9-1043.3L-3186.9-1043.3z M-3174.2-1030.7c2.1,0,3.4-0.9,3.4-2.6v-0.1c0-1.7-1.3-2.5-3.4-2.5h-3.9v5.2H-3174.2z"/>
		<path d="M-3159.8-1043.3h22.6v7.3h-13.9v2.7h13v6.4h-13v2.9h14.1v7.3h-22.8V-1043.3z"/>
		<path d="M-3134.6-1043.3h22.6v7.3h-13.9v2.7h13v6.4h-13v2.9h14.1v7.3h-22.8V-1043.3z"/>
	</g>
	<g>
		<g>
			<path d="M-3241.8-1004.2h8.4c8.7,0,13,4.3,13,10.7v0.1c0,6.5-4.4,11-13.2,11h-8.1L-3241.8-1004.2L-3241.8-1004.2z M-3234.5-997.9
				v9.1h1.2c3.3,0,5.5-1.4,5.5-4.5v-0.1c0-3.2-2.1-4.5-5.5-4.5L-3234.5-997.9L-3234.5-997.9z"/>
			<path d="M-3218.5-1004.2h18.6v6h-11.4v2.2h10.6v5.3h-10.6v2.4h11.6v6h-18.8L-3218.5-1004.2L-3218.5-1004.2z"/>
			<path d="M-3197.8-1004.2h7.3v15.6h10.2v6.2h-17.5L-3197.8-1004.2L-3197.8-1004.2z"/>
			<path d="M-3178.6-1004.2h7.3v21.8h-7.3V-1004.2z"/>
			<path d="M-3170.3-1004.2h8.2l4.2,12.2l4.2-12.2h8l-8.8,22h-7L-3170.3-1004.2z"/>
			<path d="M-3144.8-1004.2h18.6v6h-11.4v2.2h10.6v5.3h-10.6v2.4h11.6v6h-18.8L-3144.8-1004.2L-3144.8-1004.2z"/>
			<path d="M-3124.1-1004.2h10.6c3.9,0,6.3,1,7.9,2.5c1.3,1.3,2,2.9,2,5.2v0.1c0,3.2-1.6,5.4-4.3,6.7l5.1,7.4h-8.3l-4.1-6.2h-1.6
				v6.2h-7.3L-3124.1-1004.2L-3124.1-1004.2z M-3113.6-993.9c1.7,0,2.8-0.8,2.8-2.1v-0.1c0-1.4-1.1-2.1-2.8-2.1h-3.2v4.3H-3113.6z"
				/>
			<path d="M-3096.1-990.2l-8.2-14.1h8.2l3.7,7.2l3.8-7.2h8.1l-8.2,14v7.8h-7.3L-3096.1-990.2L-3096.1-990.2z"/>
		</g>
	</g>
</g>
<g>
	<path d="M-3108.6-1650.6c80.4,0.3,145.5,66.3,145,147c-0.4,80.2-66.7,145.2-147.4,144.6c-79.6-0.6-144.5-66.4-144.2-146.3
		C-3254.9-1585.9-3189.2-1651-3108.6-1650.6z M-3007.8-1412.7c4.7-6.2,9.4-12.5,13.9-18.3c-3.9-4.4-6.9-7.7-9.8-10.9
		c0.7-0.9,1.3-1.8,2-2.7c4.5,0.9,9,1.9,14.6,3c3-7.6,5.9-14.9,8.7-21.7c-5.2-3.4-8.9-5.8-12.6-8.3c0.4-1,0.8-2,1.3-3
		c4.6,0,9.1,0,14.6,0c1.1-8.7,2-16.5,3-24.4c-9-1.5-16.4-2.7-23.8-3.9c0.1-1.4,0.1-2.9,0.2-4.3c7.5-1.1,15-2.1,24.1-3.4
		c-1.3-8.5-2.4-16.3-3.7-24.9c-5.6,0-10.1,0-19,0c7.8-5.6,11.8-8.4,16.2-11.6c-3.4-7.6-6.5-14.5-9.5-21.2c-5.3,1.3-9.7,2.4-14.1,3.4
		c-0.5-1-1.1-2-1.6-3c3-3.5,6-7,9.8-11.4c-4.8-6-9.8-12.1-14.4-17.9c-5.3,2.7-9.3,4.7-13.3,6.7c-0.7-0.9-1.5-1.7-2.2-2.6
		c2-4.1,4-8.3,6.6-13.5c-6.2-4.7-12.5-9.4-18.2-13.8c-4.6,3.9-7.9,6.9-11.3,9.8c-0.9-0.7-1.8-1.3-2.8-2c1-4.5,2-9,3.3-14.5
		c-7.5-3-14.7-5.9-21.6-8.7c-3.3,5-5.8,8.7-8.3,12.4c-1-0.4-2-0.8-3-1.2c-0.2-4.6-0.5-9.2-0.7-14.7c-8.1-1-15.8-1.9-23.7-2.9
		c-1.5,9.1-2.8,16.5-4,23.9c-1.4-0.1-2.8-0.2-4.2-0.2c-1.1-7.5-2.2-15.1-3.6-24.1c-8.5,1.3-16.3,2.5-23.9,3.6
		c-0.3,5.7-0.5,10.3-1,19.3c-5.4-7.8-8.1-11.6-11.3-16.2c-7.2,3.1-14.5,6.2-21.2,9.1c1.2,5.7,2.2,10.1,3.1,14.4
		c-1.1,0.5-2.1,0.9-3.2,1.4c-3.5-3.1-6.9-6.1-11.1-9.8c-6.3,5.1-12.4,10-18,14.5c2.8,5.5,4.8,9.4,6.8,13.3c-0.9,0.7-1.8,1.4-2.7,2.2
		c-4.1-2-8.3-4.1-13.5-6.6c-4.8,6.4-9.5,12.7-13.7,18.4c4,4.5,6.9,7.8,9.8,11.1c-0.7,0.9-1.4,1.9-2.1,2.8c-4.5-1.1-8.9-2.1-14.1-3.4
		c-3.1,7.4-6.1,14.4-9,21.2c4.6,3.4,8.5,6.4,16.1,12c-9.3,0-13.9,0-19.4,0c-1,8.8-1.9,16.5-2.7,24.3c9.1,1.6,16.4,2.8,23.8,4.1
		c-0.1,1.3-0.2,2.6-0.3,3.9c-7.6,1.2-15.1,2.4-24.1,3.8c1.4,8.6,2.6,16.3,4,24.7c5.7,0,10.1,0,19.2,0c-7.9,5.3-11.8,8-16.5,11.1
		c3.2,7.3,6.4,14.6,9.3,21.3c5.6-1.2,10-2.2,14.3-3.1c0.5,1.1,0.9,2.2,1.4,3.2c-3.1,3.4-6.1,6.9-9.7,10.9c4.7,6.1,9.3,12,13.8,17.8
		c5.4-2.3,9.9-4.2,18.3-7.8c-4.2,8.3-6.4,12.4-8.9,17.5c6.6,4.9,12.9,9.6,18.6,13.8c4.5-4,7.8-6.9,11.1-9.8c0.9,0.7,1.9,1.4,2.8,2.1
		c-1,4.5-1.9,9-3.1,14.5c7.5,3,14.8,5.8,21.5,8.5c3.5-5.1,6-8.8,8.5-12.4c1,0.4,2,0.9,3,1.3c0.2,4.6,0.4,9.2,0.6,14.7
		c8.3,0.9,16,1.7,23.6,2.6c1.6-9.1,2.9-16.5,4.2-23.8c1.3,0.1,2.6,0.2,3.9,0.3c1.2,7.6,2.4,15.1,3.8,24.1c8.6-1.4,16.3-2.6,24.7-4
		c0-5.6,0-10.1,0-19.1c5.4,7.8,8.1,11.6,11.4,16.3c7.2-3.1,14.4-6.2,21.3-9.2c-1.4-5.7-2.4-10-3.4-14.3c1.1-0.5,2.1-1.1,3.2-1.6
		c3.5,3.1,6.9,6.1,11.2,9.9c6.1-4.9,12.2-9.8,18-14.4c-2.7-5.4-4.8-9.4-6.8-13.4c0.9-0.7,1.7-1.5,2.6-2.2
		C-3017.1-1417.2-3013-1415.2-3007.8-1412.7z"/>
	<circle class="st2" cx="-3109.4" cy="-1504.8" r="12.6"/>
	<circle class="st2" cx="-3091.1" cy="-1448.9" r="30.9"/>
	<line class="st2" x1="-3109.4" y1="-1516.9" x2="-3109.4" y2="-1595.6"/>
	<line class="st2" x1="-3098" y1="-1504.8" x2="-3042.6" y2="-1504.8"/>
	<g>
		<path d="M-3115.4-1473.4c2.9,2.1,5.6,4.2,8.4,6.4l4.1,3.3l4,3.3c1.3,1.1,2.8,2.2,4.2,3.2c1.4,1.1,2.6,2.3,3.7,3.7s2.1,2.8,3,4.4
			c0.9,1.6,1.7,3.2,2.2,5.2l-0.5,0.5c-1.9-0.5-3.6-1.3-5.2-2.2c-1.6-0.9-3-1.9-4.4-3c-1.4-1.1-2.6-2.3-3.7-3.7
			c-1.1-1.4-2.1-2.8-3.2-4.2l-3.4-4l-3.3-4.1c-2.2-2.8-4.3-5.5-6.4-8.4L-3115.4-1473.4z"/>
	</g>
</g>
<g>
	<g>
		<path class="st3" d="M-118.7-109.7c-5,7.7-11.6,12-20.4,12.2c-9.5,0.3-16.7-4-22.2-12.2c1.8,0,3.2,0.1,4.6,0
			c0.6,0,1.4-0.2,1.8-0.6c8.9-8.8,17.7-17.6,26.5-26.4c0.1-0.1,0.2-0.3,0.4-0.5c-3.2-2.5-6.7-3.9-10.7-4.1
			c-6.4-0.3-11.8,1.9-16.1,6.8c-0.2,0.3-0.6,0.6-0.9,0.6c-1.7,0.1-3.5,0-5.5,0c4.6-7.3,10.9-11.5,19.3-12.2c11.5-1,19.8,6,23,12.2
			c-1.6,0-3-0.1-4.4,0c-0.6,0-1.3,0.2-1.7,0.5c-9,8.9-17.9,17.9-27,27c2.2,1.8,4.5,3,7.2,3.6c7.3,1.7,13.6-0.1,18.9-5.4
			c1.1-1.1,2.2-1.6,3.7-1.5C-121.2-109.6-120.2-109.7-118.7-109.7z"/>
		<path class="st3" d="M-136.8-129.5c-0.7,0.1-1.2,0.4-1.6,0.3c-5.4-0.8-9.6,3.3-8.8,8.7c0.1,0.4-0.2,1.1-0.4,1.4
			c-0.8,0.9-1.9,1.7-2.6,2.6c-1.7,2.4-4,3-6.8,2.7c-0.7-0.1-1.1-0.2-1.3-0.9c-0.4-1.3-1.4-2.2-2.7-2.7c-0.4-0.2-0.8-0.8-0.8-1.2
			c-0.1-2.2-0.1-4.4,0-6.7c0-0.4,0.4-1,0.8-1.2c1.3-0.6,2.2-1.5,2.8-2.9c0.1-0.3,0.6-0.7,1-0.7c6.7,0,13.4,0,20.1,0
			C-137.2-129.9-137.2-129.8-136.8-129.5z"/>
		<path class="st3" d="M-121.9-113.7c-7,0-13.9,0-20.8,0c-0.1-0.1-0.1-0.3-0.1-0.4c0.5-0.1,1-0.4,1.5-0.3c5.4,0.8,9.5-3.4,8.7-8.8
			c-0.1-0.4,0.1-1,0.4-1.3c1.5-1.6,3.1-3.2,4.7-4.7c0.3-0.3,0.9-0.6,1.3-0.6c1.4-0.1,2.8,0,4.3,0c0.6,1.8,1.5,3.2,3.4,3.7
			c0.2,0.1,0.5,0.7,0.5,1c0,2.3,0,4.5,0,6.8c0,0.4-0.2,0.9-0.5,1C-120.4-116.9-121.4-115.5-121.9-113.7z"/>
		<path class="st3" d="M-165.1-132.8c10.4,0,20.6,0,31.1,0c-0.9,1.2-1.6,2-3.2,1.9c-6.8-0.1-13.6,0-20.4,0c-1,0-1.5,0.1-1.7,1.3
			c-0.2,1.4-1.2,2.2-2.6,2.4c-0.8,0.1-1,0.4-1,1.2c0,2.8,0,5.7,0,8.5c0,0.4,0.5,1,0.9,1.1c1.6,0.4,2.6,1.2,2.8,2.8
			c0.1,0.8,0.5,1,1.2,1c1.2,0,2.4,0,3.9,0c-0.9,1.2-1.7,2.1-3.3,2c-2.5-0.2-5.1,0-7.7,0C-165.1-118.2-165.1-125.4-165.1-132.8z"/>
		<path class="st3" d="M-125.8-130.9c1-1.5,2-2.1,3.7-2c2.4,0.1,4.8,0,7.3,0c0,7.4,0,14.6,0,22c-10.3,0-20.6,0-31,0
			c0.9-1.2,1.8-1.9,3.4-1.9c6.7,0.1,13.4,0,20.1,0.1c1,0,1.7,0,1.8-1.3c0.2-1.3,1.2-2.2,2.5-2.3c1-0.1,1.1-0.5,1.1-1.4
			c0-2.7,0-5.5,0-8.2c0-0.8-0.2-1.2-1.1-1.3c-1.4-0.2-2.4-1.1-2.6-2.6c-0.1-1-0.6-1.1-1.4-1.1C-123.3-130.9-124.4-130.9-125.8-130.9
			z"/>
		<path class="st3" d="M-146.2-121c-0.7-4.2,3-7.9,7.1-7C-141.5-125.7-143.9-123.3-146.2-121z"/>
		<path class="st3" d="M-133.8-122.7c0.9,4.2-3.5,8.1-7.1,7.1C-138.5-118-136.2-120.3-133.8-122.7z"/>
	</g>
</g>
<image style="overflow:visible;enable-background:new    ;" width="206" height="42" xlink:href="96F3256D.jpeg"  transform="matrix(0.9762 0 0 0.9762 940.5701 -958)">
</image>
<g>
	<path class="st3" d="M26,11.6c4.4,0,8.7,0.1,13.1,0c2.7-0.1,5,1.9,4.9,4.9c-0.1,3.3-0.1,6.7,0,10c0.1,3.2-2.5,5-4.9,4.9
		c-3-0.1-5.9,0-8.9-0.1c-0.7,0-1,0.2-1.2,0.9c-0.6,1.8-1.3,3.7-2,5.4c-0.2,0.4-0.6,0.9-0.9,0.9c-0.3,0-0.8-0.5-0.9-0.9
		c-0.7-1.8-1.4-3.6-2-5.4c-0.2-0.7-0.6-1-1.4-1c-3.1,0.1-6.1,0-9.2,0c-2.4,0-4.3-1.6-4.4-4C8,23.5,8,19.5,8.1,15.6
		c0.1-2.4,1.9-4,4.4-4C17,11.6,21.5,11.6,26,11.6C26,11.6,26,11.6,26,11.6z M12.7,26c-0.2-1.5,0.1-2,1.4-2.5
		c0.2-0.1,0.5-0.2,0.7-0.3c2.6-0.9,3.3-2,3.2-4.7C17.8,17,17,16,15.7,15.4c-1.4-0.6-2.7-0.3-3.8,0.6c-1.1,1-1.4,2.3-1.2,3.7
		c0.1,0.3,0.6,0.8,0.9,0.8c0.4-0.1,0.7-0.5,0.9-0.9c0.1-0.3,0-0.7,0-1c0.1-0.9,0.8-1.6,1.7-1.6c0.9,0,1.6,0.6,1.8,1.5
		c0.3,1.6-0.2,2.3-1.8,2.8c-3,1-3.7,2.1-3.6,5.1c0,1,0.3,1.3,1.3,1.3c1.6,0,3.1,0,4.7,0c0.6,0,1.3-0.1,1.3-1c0-0.8-0.6-0.9-1.3-0.9
		C15.3,26,14,26,12.7,26z M25.1,22.4c0,1.5,0,2.8,0,4.2c0,0.6,0.1,1.2,0.9,1.2c0.8,0,1-0.5,1-1.2c0-3.4,0-6.7,0-10.1
		c0-0.7-0.2-1.3-0.9-1.3c-0.8,0-0.9,0.6-0.9,1.3c0,1.1,0,2.3,0,3.4c0,0.2-0.3,0.7-0.5,0.7c-1,0.1-2,0-3,0c0-1.5,0-2.8,0-4.1
		c0-0.7-0.2-1.3-0.9-1.3c-0.8,0-1,0.6-1,1.3c0,1.6,0,3.1,0,4.7c0,1.1,0.3,1.3,1.4,1.3C22.4,22.4,23.7,22.4,25.1,22.4z M39.4,17
		c0.2,1.3-0.1,2.4-1,3.3c-0.9,1-1.5,2.1-1.6,3.4c-0.1,1,0,2,0,3.1c0,0.6,0.3,1,0.9,1c0.6,0,0.9-0.4,1-0.9c0-0.8-0.1-1.7,0.1-2.5
		c0.2-0.8,0.3-1.8,0.9-2.4c1.5-1.6,1.9-3.5,1.8-5.5c-0.1-1-0.4-1.3-1.4-1.3c-1.5,0-3.1,0-4.6,0c-0.7,0-1.3,0.1-1.3,1
		c0,0.9,0.7,0.9,1.4,0.9C36.8,17,38.1,17,39.4,17z M33.2,16.2c0.1-0.4-0.1-0.8-0.5-1c-0.1,0-0.2,0-0.2-0.1c-0.3,0-0.8,0.1-1,0.6
		c-0.4,0.8-0.6,1.7-0.9,2.5c-0.9,2.7-1.8,5.4-2.7,8c-0.2,0.6-0.2,1.2,0.5,1.4c0.8,0.3,1.1-0.2,1.3-0.8c0,0,0-0.1,0-0.1
		c1.1-3.3,2.2-6.7,3.3-10C33.1,16.7,33.1,16.5,33.2,16.2z"/>
	<path class="st3" d="M40.3,44.4c-1.4-1.7-1.4-3.4-0.7-5.3c1-2.5,1.8-5,2.7-7.4c0.7-2,2-3.1,4.2-3.2c0.6,0,0.7-0.3,0.8-0.8
		C49.2,16,41.7,5.3,30.2,2.9C18.8,0.5,7.1,8.2,4.8,19.7c-0.5,2.6-0.6,5.2-0.2,7.9c0.1,0.6,0.3,0.8,0.9,0.8c2,0.1,3.3,1.2,4,3
		c1,2.7,2,5.4,3,8.2c0.9,2.5-0.2,5-2.6,5.9c-2.4,0.9-4.9-0.3-5.8-2.8c-1-2.7-2-5.5-3-8.2c-0.7-1.9-0.2-3.8,1.4-5.1
		C3,29,3.1,28.7,3,28.2c-0.9-5.1-0.2-10,2.2-14.6C8.9,6.5,14.8,2.2,22.7,1C35-0.9,46.8,7.7,49,20c0.5,2.8,0.5,5.5,0,8.3
		c-0.1,0.5,0,0.8,0.4,1.1c1.6,1.2,2.1,3.1,1.5,5.1c-1,2.8-2,5.5-3,8.2c-0.9,2.5-3,3.6-5.5,3c-0.3-0.1-0.8,0-1,0.2
		c-2.2,1.8-4.7,2.7-7.5,2.7c-1.2,0-2.4,0-3.5,0c-0.6,0-0.9,0.2-1.2,0.8c-0.7,1.4-2.2,2.2-3.6,1.9c-1.5-0.3-2.7-1.4-3-2.8
		c-0.3-1.6,0.5-3.1,1.9-3.9c1.7-0.9,3.9-0.2,4.8,1.6c0.3,0.6,0.6,0.8,1.2,0.8c1.8-0.1,3.6,0,5.3-0.2C37.5,46.5,39,45.6,40.3,44.4z"
		/>
</g>
</svg>
