<svg id="Layer_1" data-name="Layer 1" xmlns="http://www.w3.org/2000/svg" viewBox="0 0 52 52"><defs><style>.cls-1{fill:#ac292a;}</style></defs><path class="cls-1" d="M26,11.6c4.4,0,8.7.1,13.1,0A4.62,4.62,0,0,1,44,16.5c-.1,3.3-.1,6.7,0,10a4.66,4.66,0,0,1-4.9,4.9c-3-.1-5.9,0-8.9-.1a1,1,0,0,0-1.2.9c-.6,1.8-1.3,3.7-2,5.4-.2.4-.6.9-.9.9s-.8-.5-.9-.9c-.7-1.8-1.4-3.6-2-5.4a1.25,1.25,0,0,0-1.4-1c-3.1.1-6.1,0-9.2,0a4.17,4.17,0,0,1-4.4-4C8,23.5,8,19.5,8.1,15.6a4.11,4.11,0,0,1,4.4-4ZM12.7,26c-.2-1.5.1-2,1.4-2.5.2-.1.5-.2.7-.3,2.6-.9,3.3-2,3.2-4.7a3.76,3.76,0,0,0-2.3-3.1,3.51,3.51,0,0,0-3.8.6,4,4,0,0,0-1.2,3.7c.1.3.6.8.9.8a1.59,1.59,0,0,0,.9-.9,3.35,3.35,0,0,0,0-1A1.73,1.73,0,0,1,14.2,17,1.82,1.82,0,0,1,16,18.5c.3,1.6-.2,2.3-1.8,2.8-3,1-3.7,2.1-3.6,5.1,0,1,.3,1.3,1.3,1.3h4.7c.6,0,1.3-.1,1.3-1s-.6-.9-1.3-.9A25.49,25.49,0,0,1,12.7,26Zm12.4-3.6v4.2c0,.6.1,1.2.9,1.2s1-.5,1-1.2V16.5c0-.7-.2-1.3-.9-1.3s-.9.6-.9,1.3v3.4c0,.2-.3.7-.5.7-1,.1-2,0-3,0V16.5c0-.7-.2-1.3-.9-1.3s-1,.6-1,1.3v4.7c0,1.1.3,1.3,1.4,1.3S23.7,22.4,25.1,22.4ZM39.4,17a3.61,3.61,0,0,1-1,3.3,5.69,5.69,0,0,0-1.6,3.4c-.1,1,0,2,0,3.1,0,.6.3,1,.9,1a1,1,0,0,0,1-.9,10.48,10.48,0,0,1,.1-2.5,5,5,0,0,1,.9-2.4,7.09,7.09,0,0,0,1.8-5.5c-.1-1-.4-1.3-1.4-1.3H35.5c-.7,0-1.3.1-1.3,1s.7.9,1.4.9C36.8,17,38.1,17,39.4,17Zm-6.2-.8a.88.88,0,0,0-.5-1c-.1,0-.2,0-.2-.1a1,1,0,0,0-1,.6,25,25,0,0,0-.9,2.5c-.9,2.7-1.8,5.4-2.7,8-.2.6-.2,1.2.5,1.4s1.1-.2,1.3-.8v-.1c1.1-3.3,2.2-6.7,3.3-10C33.1,16.7,33.1,16.5,33.2,16.2Z"/><path class="cls-1" d="M40.3,44.4a4.91,4.91,0,0,1-.7-5.3c1-2.5,1.8-5,2.7-7.4a4.29,4.29,0,0,1,4.2-3.2c.6,0,.7-.3.8-.8a21.63,21.63,0,0,0-42.5-8,23.24,23.24,0,0,0-.2,7.9c.1.6.3.8.9.8a4.3,4.3,0,0,1,4,3c1,2.7,2,5.4,3,8.2a4.47,4.47,0,0,1-2.6,5.9,4.42,4.42,0,0,1-5.8-2.8c-1-2.7-2-5.5-3-8.2a4.37,4.37,0,0,1,1.4-5.1A1.06,1.06,0,0,0,3,28.2,22.4,22.4,0,0,1,5.2,13.6,22.76,22.76,0,0,1,22.7,1,23.4,23.4,0,0,1,49,20a23.15,23.15,0,0,1,0,8.3,1,1,0,0,0,.4,1.1,4.47,4.47,0,0,1,1.5,5.1c-1,2.8-2,5.5-3,8.2a4.41,4.41,0,0,1-5.5,3,1.16,1.16,0,0,0-1,.2,11.52,11.52,0,0,1-7.5,2.7H30.4a1.16,1.16,0,0,0-1.2.8,3.36,3.36,0,0,1-3.6,1.9,3.76,3.76,0,0,1-3-2.8,3.69,3.69,0,0,1,1.9-3.9,3.56,3.56,0,0,1,4.8,1.6,1.16,1.16,0,0,0,1.2.8c1.8-.1,3.6,0,5.3-.2A9,9,0,0,0,40.3,44.4Z"/></svg>