<svg id="Layer_1" data-name="Layer 1" xmlns="http://www.w3.org/2000/svg" viewBox="0 0 52 52"><defs><style>.cls-1{fill:#ac292a;}</style></defs><path class="cls-1" d="M26,.69v3a22.2,22.2,0,0,0-17.17,8.1,21.45,21.45,0,0,0-5.07,12.4A22.32,22.32,0,1,0,42.18,10.66c.1,1.26.19,2.4.29,3.61l-3,.26C39.26,11.73,39,9,38.79,6.1l8.42-.7c.08,1,.16,2,.25,3l-3,.26.88,1a25.17,25.17,0,0,1,5.76,12.83c.09.62.16,1.24.23,1.85v3.46c0,.13-.07.25-.09.38-.24,1.41-.37,2.84-.72,4.22a25.27,25.27,0,0,1-28,18.69A24,24,0,0,1,9.66,45.3c-7.12-6.25-10-14.14-8.61-23.5A23.77,23.77,0,0,1,6.71,9.62,24.87,24.87,0,0,1,21.5,1.1c.9-.16,1.82-.27,2.72-.4Z"/><path class="cls-1" d="M24.5,10.41V13.8h3V10.43c6.43.25,13.49,6,14.14,14.06H38.19v3h3.39a15.58,15.58,0,0,1-14.1,14.11V38.17H24.53v3.38c-6.47-.26-13.5-6-14.14-14.06h3.42v-3H10.42A15.56,15.56,0,0,1,24.5,10.41Zm0,6.59v.58c0,2.45,0,4.91,0,7.36a.94.94,0,0,1-.28.61c-.57.52-1.17,1-1.76,1.51L20,29.13l1.89,2.24.23-.17c1.69-1.42,3.38-2.83,5.05-4.27a1,1,0,0,0,.3-.66c0-2.93,0-5.86,0-8.79V17Z"/></svg>