<svg id="Layer_1" data-name="Layer 1" xmlns="http://www.w3.org/2000/svg" viewBox="0 0 1318 1249.14"><defs><style>.cls-1,.cls-2{fill:#192133;}.cls-1{fill-rule:evenodd;}.cls-3{fill:#ac292a;}</style></defs><path class="cls-1" d="M566.82,622.39h0c-3-.93-5.52-3-8.3-4.52a75.72,75.72,0,0,0-35.93-9.41c-7.8.14-8.21-.62-6.54-7.9a250.91,250.91,0,0,0,3.45-62.33c-2.13-22.07-7.95-42.69-18.62-62.24-1.36-1.7-2.78-3.42-2.62-6,2.31-1.24,3.13.35,4.87.9,46.55,26.91,75.28,85.87,67,138.91-.36,1.16.07,2-.3,3.14l-3,9.42Z"/><path class="cls-1" d="M280.48,532.2h0c3,.93,6.26.7,10,1.23a75.44,75.44,0,0,1,34.8,12.87c6.35,4.6,6.53,4,9.93-2.71a204.56,204.56,0,0,1,32.89-53.06A143.89,143.89,0,0,1,419,450.2c1.52-.8,4.25-1.21,5-3.57-.59-2.16-2.75-1.51-4.49-2.06-53.59-4.62-110.33,27.4-134,75.63-.9,1-1.09,1.62-2.09,2.58l-3,9.42Z"/><path class="cls-1" d="M477.21,425.81h0c4,7.74-6.13,19.46-4.83,27.61.63,4.08,6.93,4.79,10.47,7.87,10.32,10.37,16.64,23.34,20.74,36.95,10.07,29.7,9.6,60,5.25,90.33a82.77,82.77,0,0,1-1.6,13.15c-.93,2.94-1.47,4.67-5,1.65C483.39,589,462.15,578.44,440.49,569c-17.69-7.54-36.3-10.16-55.67-12.33-11.36-1-22.67-2-34.61-1.19-4.46-.13-5.11-2.3-3.42-5.65,3.42-8.63,7.93-16.93,12.51-25.19,13.67-22.87,29.53-44.41,52.31-59.26,11-8.21,23-15.42,37.25-15.5,11.91-.76,11.73-.18,16-11.78,1.68-5.31,1-11.35,7-14l5.31,1.67Z"/><polygon class="cls-2" points="355.35 679.74 321.9 699.05 321.9 737.66 355.35 756.98 388.79 737.66 388.79 699.05 355.35 679.74"/><polygon class="cls-2" points="383.51 627.96 383.51 678.09 355.35 661.83 306.39 690.09 306.39 746.63 262.99 771.68 262.99 665.03 355.35 611.72 383.51 627.96"/><polygon class="cls-2" points="447.71 771.68 355.35 825 262.99 771.68 306.39 746.63 355.35 774.89 404.31 746.63 447.71 771.68"/><polygon class="cls-2" points="446.18 590.94 447.71 771.68 404.31 746.63 402.12 567.91 446.18 590.94"/><path class="cls-2" d="M462.89,667.56v-24.9H475.6v24.51c0,7.7,3.21,10.78,8.53,10.78s8.47-3.08,8.47-10.78V642.66h12.51v24.9c0,13.4-7.83,20.91-21.11,20.91S462.89,681,462.89,667.56Z"/><path class="cls-2" d="M572.48,667.68v19.89H560.29v-17.9c0-5-2-7.12-5.26-7.12-3.53,0-6.09,2.38-6.09,7.76v17.26H536.75v-17.9c0-5-2-7.12-5.27-7.12-3.59,0-6.15,2.38-6.15,7.76v17.26H513.14V652.8h11.61v3.66a13.81,13.81,0,0,1,10.39-4.24c4.75,0,8.79,1.73,11.23,5.46a15.05,15.05,0,0,1,12.06-5.46C566.52,652.22,572.48,656.91,572.48,667.68Z"/><path class="cls-2" d="M619.13,670.12c0,11.1-7.63,18-17.07,18-4.55,0-7.95-1.28-10.26-4v3.46H580.19V640h12.19v15.84c2.37-2.43,5.64-3.59,9.68-3.59C611.5,652.22,619.13,659.09,619.13,670.12Zm-12.32,0c0-5.26-3.21-8.21-7.31-8.21s-7.32,3-7.32,8.21,3.21,8.34,7.32,8.34S606.81,675.45,606.81,670.12Z"/><path class="cls-2" d="M648.07,652.22v11a21.83,21.83,0,0,0-2.76-.19c-4.94,0-8.34,2.5-8.34,8.6v16H624.78V652.8h11.61V657C638.89,653.83,642.94,652.22,648.07,652.22Z"/><path class="cls-2" d="M688.11,673.27H662.83c1,3.52,4,5.58,8.53,5.58a11.11,11.11,0,0,0,8-3l6.42,6.67c-3.34,3.73-8.21,5.65-14.82,5.65-12.39,0-20.41-7.63-20.41-18s8.15-17.9,19.12-17.9c10.27,0,18.61,6.55,18.61,18C688.3,671.15,688.17,672.3,688.11,673.27Zm-25.47-6.42h14.24a7.23,7.23,0,0,0-14.24,0Z"/><path class="cls-2" d="M694,640h12.19v47.6H694Z"/><path class="cls-2" d="M714,640h12.19v47.6H714Z"/><path class="cls-2" d="M766.71,668.26v19.31H755.35v-4.49c-1.73,3.34-5.2,5.07-10.26,5.07-8.34,0-13-4.68-13-10.71,0-6.42,4.68-10.4,15.46-10.4h6.93c-.2-3.53-2.57-5.52-7.38-5.52a16.19,16.19,0,0,0-9.43,3l-4.11-8.28c4-2.63,9.88-4,15.34-4C760.23,652.22,766.71,657.23,766.71,668.26Zm-12.19,8.15v-3h-5.26c-3.92,0-5.33,1.42-5.33,3.53s1.67,3.53,4.56,3.53A6,6,0,0,0,754.52,676.41Z"/><path class="cls-2" d="M782.49,666.91c0-14.43,11-24.66,26.09-24.66,8.74,0,15.79,3.18,20.39,8.94l-8.53,7.73c-3-3.59-6.64-5.56-11.18-5.56-7.8,0-13.22,5.42-13.22,13.55s5.42,13.56,13.22,13.56c4.54,0,8.19-2,11.18-5.56l8.53,7.72c-4.6,5.76-11.65,9-20.39,9C793.53,691.58,782.49,681.35,782.49,666.91Z"/><path class="cls-2" d="M872.14,653.9v36.73H859.88V686.7A14.48,14.48,0,0,1,849,691.24c-9,0-15.59-5.15-15.59-16.81V653.9h12.88v18.43c0,5.7,2.23,7.93,6.1,7.93s6.91-2.51,6.91-8.67V653.9Z"/><path class="cls-2" d="M877.5,687.44l3.86-8.8A25.78,25.78,0,0,0,894.17,682c4.34,0,5.76-.94,5.76-2.5,0-4.95-21.69.67-21.69-14,0-6.91,6.37-12.2,17.89-12.2,5.15,0,10.85,1.09,14.5,3.12l-3.86,8.74a21.56,21.56,0,0,0-10.57-2.71c-4.34,0-5.89,1.22-5.89,2.58,0,5.08,21.61-.41,21.61,14.16,0,6.77-6.23,12.06-18.16,12.06C887.53,691.24,881.09,689.68,877.5,687.44Z"/><path class="cls-2" d="M942.82,689.14a17.3,17.3,0,0,1-8.94,2.1c-9.42,0-14.91-4.61-14.91-14V664.88h-5.35v-9.62H919V645.7h12.88v9.56h8.4v9.62h-8.4v12.2c0,2.71,1.56,4.2,3.86,4.2a7.08,7.08,0,0,0,3.93-1.15Z"/><path class="cls-2" d="M944.38,672.2c0-11.05,8.75-18.91,20.74-18.91s20.74,7.86,20.74,18.91-8.61,19-20.74,19S944.38,683.31,944.38,672.2Zm28.47,0c0-5.56-3.33-8.68-7.73-8.68s-7.72,3.12-7.72,8.68,3.38,8.81,7.72,8.81S972.85,677.82,972.85,672.2Z"/><path class="cls-2" d="M1054.5,669.62v21h-12.87V671.72c0-5.28-2.17-7.52-5.56-7.52-3.73,0-6.44,2.51-6.44,8.2v18.23h-12.87V671.72c0-5.28-2.1-7.52-5.56-7.52-3.79,0-6.5,2.51-6.5,8.2v18.23H991.82V653.9h12.27v3.86a14.59,14.59,0,0,1,11-4.47c5,0,9.29,1.83,11.86,5.76a15.92,15.92,0,0,1,12.74-5.76C1048.2,653.29,1054.5,658.24,1054.5,669.62Z"/><path class="cls-3" d="M531.1,730.22c0,16.84-12.89,27.44-33.16,27.44H487.45v17.88H462.92V702.79h35C518.21,702.79,531.1,713.39,531.1,730.22Zm-24.74,0c0-5.29-3.22-8.52-10-8.52h-8.94v17h8.94C503.14,738.75,506.36,735.52,506.36,730.22Z"/><path class="cls-3" d="M594.08,745v30.56H572.26v-7.49c-2.71,5.72-8.11,8.53-16.11,8.53-13.93,0-21.1-7.9-21.1-17.67,0-11,8.32-17.15,26-17.15h9.46c-.73-4.36-4-6.65-10.71-6.65a25.64,25.64,0,0,0-14.55,4.47l-7.48-15.49c6.65-4.15,16.73-6.44,25.57-6.44C582.86,717.65,594.08,726.07,594.08,745ZM570.59,757v-3.95h-5.82c-5,0-7.17,1.66-7.17,4.78,0,2.6,2.08,4.57,5.61,4.57A7.42,7.42,0,0,0,570.59,757Z"/><path class="cls-3" d="M602.29,747.06c0-17.25,13.93-29.41,33.57-29.41,13.82,0,24.21,6.34,28,16.84l-18.19,8.93c-2.39-5.3-5.82-7.48-9.87-7.48-5.3,0-9.67,3.74-9.67,11.12s4.37,11.22,9.67,11.22c4,0,7.48-2.18,9.87-7.48l18.19,8.94c-3.75,10.5-14.14,16.84-28,16.84C616.22,776.58,602.29,764.42,602.29,747.06Z"/><path class="cls-3" d="M696.45,758.08l-3.74,4v13.41H669.22V698.43h23.49v36.78L709,718.69h27.74l-23.48,24.63,25.35,32.22H710.27Z"/><path class="cls-3" d="M798.51,745v30.56H776.69v-7.49c-2.7,5.72-8.11,8.53-16.11,8.53-13.93,0-21.1-7.9-21.1-17.67,0-11,8.32-17.15,26-17.15h9.46c-.73-4.36-4-6.65-10.7-6.65-5.1,0-10.81,1.66-14.55,4.47l-7.49-15.49c6.66-4.15,16.74-6.44,25.57-6.44C787.29,717.65,798.51,726.07,798.51,745ZM775,757v-3.95H769.2c-5,0-7.17,1.66-7.17,4.78,0,2.6,2.08,4.57,5.62,4.57A7.42,7.42,0,0,0,775,757Z"/><path class="cls-3" d="M873.24,718.69v45.52c0,22-12.89,32.53-34.61,32.53-11.22,0-21.41-2.39-28.48-7.07l7.9-16c4.47,3.42,12.06,5.61,18.19,5.61,9.66,0,13.51-4.26,13.51-11.85v-1c-3.53,4.05-8.73,6-15.69,6-14.45,0-27.34-10.6-27.34-27.44s12.89-27.33,27.34-27.33c7.79,0,13.3,2.39,16.83,7.48v-6.44ZM850,745c0-5.5-4.16-9-9.67-9s-9.77,3.54-9.77,9,4.26,9.15,9.77,9.15S850,750.49,850,745Z"/><path class="cls-3" d="M884.87,707.24c0-5,4.09-8.89,10.51-8.89s10.51,3.56,10.51,8.58c0,5.33-4.1,9.19-10.51,9.19S884.87,712.26,884.87,707.24Z"/><rect class="cls-3" x="883.63" y="718.69" width="23.49" height="56.85"/><path class="cls-3" d="M980.28,743.11v32.43H956.8V747.17c0-7.07-2.71-9.77-7-9.77-4.78,0-8.83,3-8.83,11.43v26.71H917.51V718.69h22.35v5.61c4.47-4.47,10.49-6.65,17.14-6.65C970.1,717.65,980.28,725.24,980.28,743.11Z"/><path class="cls-3" d="M1055,718.69v45.52c0,22-12.89,32.53-34.61,32.53-11.22,0-21.41-2.39-28.47-7.07l7.9-16c4.46,3.42,12,5.61,18.18,5.61,9.67,0,13.51-4.26,13.51-11.85v-1c-3.53,4.05-8.73,6-15.69,6-14.45,0-27.33-10.6-27.33-27.44s12.88-27.33,27.33-27.33c7.79,0,13.3,2.39,16.84,7.48v-6.44ZM1031.73,745c0-5.5-4.16-9-9.66-9s-9.77,3.54-9.77,9,4.26,9.15,9.77,9.15S1031.73,750.49,1031.73,745Z"/></svg>