<?xml version="1.0" encoding="utf-8"?>
<!-- Generator: Adobe Illustrator 25.4.1, SVG Export Plug-In . SVG Version: 6.00 Build 0)  -->
<svg version="1.1" id="Layer_1" xmlns="http://www.w3.org/2000/svg" xmlns:xlink="http://www.w3.org/1999/xlink" x="0px" y="0px"
	 viewBox="0 0 512 512" style="enable-background:new 0 0 512 512;" xml:space="preserve">
<style type="text/css">
	.st0{fill-rule:evenodd;clip-rule:evenodd;fill:#293553;}
	.st1{fill:#293553;}
</style>
<g>
	<g>
		<path class="st0" d="M438.82,253.34L438.82,253.34c-3.6-1.13-6.75-3.68-10.14-5.52c-13.49-7.43-28.12-11.27-43.92-11.51
			c-9.54,0.18-10.03-0.75-8-9.65c4.8-25.34,5.8-51.18,4.22-76.19c-2.61-26.98-9.72-52.18-22.76-76.08c-1.66-2.08-3.4-4.18-3.21-7.3
			c2.82-1.52,3.82,0.43,5.95,1.1c56.91,32.9,92.02,104.96,81.85,169.81c-0.45,1.42,0.08,2.43-0.37,3.84
			C441.31,245.43,439.96,249.74,438.82,253.34L438.82,253.34z"/>
		<path class="st0" d="M88.82,143.09L88.82,143.09c3.61,1.14,7.65,0.85,12.18,1.51c15.37,1.66,29.49,6.88,42.54,15.73
			c7.76,5.62,7.98,4.92,12.13-3.31c9.89-23.74,23.86-45.49,40.21-64.85c16.89-20.84,37.16-37.42,62.25-49.3
			c1.86-0.97,5.19-1.48,6.1-4.36c-0.72-2.63-3.37-1.84-5.49-2.51C193.24,30.32,123.88,69.47,95,128.42
			c-1.09,1.21-1.33,1.98-2.55,3.15C91.31,135.18,89.95,139.49,88.82,143.09L88.82,143.09z"/>
		<path class="st0" d="M329.29,13.04L329.29,13.04c4.93,9.47-7.49,23.78-5.91,33.75c0.77,4.98,8.48,5.86,12.8,9.62
			c12.61,12.67,20.34,28.54,25.35,45.16c12.3,36.31,11.74,73.37,6.42,110.42c-0.19,5.53-0.83,10.06-1.96,16.07
			c-1.13,3.6-1.8,5.72-6.14,2.02c-23.01-17.56-48.98-30.47-75.45-42c-21.62-9.21-44.37-12.42-68.05-15.08
			c-13.88-1.26-27.71-2.44-42.3-1.45c-5.46-0.16-6.25-2.81-4.18-6.9c4.17-10.56,9.69-20.7,15.28-30.8
			c16.72-27.95,36.1-54.28,63.95-72.43c13.48-10.04,28.11-18.85,45.54-18.95c14.56-0.93,14.34-0.22,19.59-14.4
			c2.05-6.49,1.26-13.88,8.57-17.08C324.98,11.69,327.11,12.36,329.29,13.04L329.29,13.04z"/>
	</g>
	<g>
		<polygon class="st1" points="180.33,323.44 139.44,347.05 139.44,394.24 180.33,417.85 221.2,394.24 221.2,347.05 		"/>
		<polygon class="st1" points="214.76,260.14 214.76,321.42 180.33,301.54 120.49,336.09 120.49,405.2 67.43,435.83 67.43,305.46 
			180.33,240.29 		"/>
		<polygon class="st1" points="293.23,435.83 180.33,501 67.43,435.83 120.49,405.2 180.33,439.75 240.18,405.2 		"/>
		<polygon class="st1" points="291.36,214.89 293.23,435.83 240.18,405.2 237.5,186.74 		"/>
		<path class="st1" d="M273,221.01"/>
	</g>
</g>
</svg>
