<svg id="Layer_1" data-name="Layer 1" xmlns="http://www.w3.org/2000/svg" viewBox="0 0 384 353"><defs><style>.cls-1{fill:#ac292a;}.cls-2{fill:#fff;}</style></defs><path class="cls-1" d="M82.5,67h219V286H82.5Zm177.7,58.13h30.45v150.2H114.42c-.71,0-1.43,0-2.14,0a20.49,20.49,0,0,1-.38-40.91c3.95-.24,4.75-1.1,4.75-5.11V125.06h34v-6.83h-34v-2.58q0-20.49,0-41c0-3.05-1.28-4.29-4.28-4.25-.56,0-1.14,0-1.7.08A27.35,27.35,0,0,0,85.93,97.92q0,78.32,0,156.64a27.26,27.26,0,0,0,27.65,27.59q89.73,0,179.48,0c3.5,0,4.61-1.1,4.61-4.58V122.86c0-3.52-1.09-4.63-4.55-4.63q-15.48,0-30.95,0h-2Zm-41.09,34c0-3.65-.05-7,0-10.33a6.82,6.82,0,0,1,5.82-6.65c4.47-.73,5.31-2.28,3.43-6.36q-9.48-20.51-19-41c-.6-1.31-1.38-2.55-2.19-4a32.62,32.62,0,0,0,5.85-.07c2.57-.48,2.7-2.76,2.69-4.89,10.14,1,25,15.93,25.42,25.42-3.72.36-4.92,1.16-5,3.65-.08,4.48-.06,9,0,13.45a3.29,3.29,0,0,0,3.49,3.5q6.72.1,13.44,0a3.29,3.29,0,0,0,3.51-3.49c.07-4.48.06-9,0-13.45a3.32,3.32,0,0,0-3.5-3.5c-1.48-.07-3,0-4.48,0a45.3,45.3,0,0,0-19.28-27.22c.75-.06,1-.1,1.26-.1,8.4,0,16.79,0,25.19,0,1.26,0,1.66.59,2.17,1.52a10.21,10.21,0,0,0,19.17-5,10.15,10.15,0,0,0-7.67-9.83,10,10,0,0,0-11.43,4.91,2.6,2.6,0,0,1-2.78,1.59c-12.52,0-25,0-37.56,0h-2.05c0-1,0-1.89,0-2.73-.05-2.82-1.24-4.07-4-4.1-4.13,0-8.26,0-12.38,0-2.83,0-4.05,1.23-4.1,4,0,.89,0,1.79,0,2.61a4.57,4.57,0,0,1-.66.19c-13.23,0-26.47,0-39.7,0a2.64,2.64,0,0,1-1.8-1.28,10.24,10.24,0,1,0-11.67,14.64,9.93,9.93,0,0,0,11.53-5.1,2.32,2.32,0,0,1,2.48-1.39c7.83,0,15.65,0,23.48,0h2.83C171.43,91,165.14,100,162.21,111.4c-1.44,0-2.78,0-4.13,0-2.54.07-3.82,1.3-3.85,3.82q-.06,6.41,0,12.8c0,2.53,1.3,3.83,3.81,3.86q6.41.06,12.81,0c2.53,0,3.82-1.31,3.85-3.82q.06-6.41,0-12.8c0-2.53-1.25-3.71-3.82-3.86l-1.26-.09c1.17-10.25,16.09-25.09,25.45-25.39.41,4.38,1.09,5,5.58,5h3.09A28.44,28.44,0,0,0,202,93.74Q192.13,115,182.33,136.3c-1.63,3.54-.58,5.38,3.27,5.86,3.06.38,5.75,2.53,6,5.5.31,3.79.08,7.61.08,11.65h-6.59v6.77h7.09c1,8.21,2.06,16.22,3.09,24.33l6.73-.95c-1-8-1.94-15.6-2.89-23.24h12.69c-1,7.84-1.92,15.49-2.88,23.27l6.74.85c1-8.21,2-16.17,3.08-24.32h7.06v-6.85Zm.35,78.59q-28.49,0-57,0a11.17,11.17,0,0,0-3.92.74c-10.63,4.19-21.23,8.47-31.85,12.68-1.76.7-3.27,1.55-3.22,3.72s1.51,2.84,3.19,3.51c10.69,4.25,21.36,8.55,32.05,12.79a8.62,8.62,0,0,0,3.08.65q57.6.06,115.2,0a10.16,10.16,0,0,0,10.37-10.44c.05-4.12,0-8.25,0-12.37,0-7.22-4.14-11.33-11.41-11.33Zm-13.8-41H128c-3.36,0-4.48,1.13-4.48,4.48q0,12.59,0,25.18c0,3.35,1.13,4.49,4.47,4.49h155c3.35,0,4.49-1.14,4.49-4.48q0-12.39,0-24.76c0-3.92-1-4.91-4.91-4.91Z"/><path class="cls-2" d="M260.2,125.13v-6.9h2q15.48,0,30.95,0c3.46,0,4.55,1.11,4.55,4.63V277.58c0,3.48-1.11,4.58-4.61,4.58q-89.74,0-179.48,0a27.26,27.26,0,0,1-27.65-27.59q0-78.31,0-156.64a27.35,27.35,0,0,1,24.74-27.41c.56-.06,1.14-.07,1.7-.08,3,0,4.27,1.2,4.28,4.25q0,20.49,0,41v2.58h34v6.83h-34V229.28c0,4-.8,4.87-4.75,5.11a20.49,20.49,0,0,0,.38,40.91c.71,0,1.43,0,2.14,0H290.65V125.13ZM109.72,77.65c-.59.1-1.09.13-1.56.25C99,80.24,92.76,88.36,92.75,98.2q0,68.16,0,136.32c0,.59.08,1.18.15,2.08a28.49,28.49,0,0,1,16.82-8.92Z"/><path class="cls-2" d="M219.11,159.17h6.68V166h-7.06c-1,8.15-2,16.11-3.08,24.32l-6.74-.85c1-7.78,1.91-15.43,2.88-23.27H199.1c1,7.64,1.9,15.29,2.89,23.24l-6.73.95c-1-8.11-2-16.12-3.09-24.33h-7.09v-6.77h6.59c0-4,.23-7.86-.08-11.65-.24-3-2.93-5.12-6-5.5-3.85-.48-4.9-2.32-3.27-5.86Q192.13,115,202,93.74a28.44,28.44,0,0,1,1.76-2.83h-3.09c-4.49,0-5.17-.61-5.58-5-9.36.3-24.28,15.14-25.45,25.39l1.26.09c2.57.15,3.79,1.33,3.82,3.86q.06,6.39,0,12.8c0,2.51-1.32,3.79-3.85,3.82q-6.4.06-12.81,0c-2.51,0-3.78-1.33-3.81-3.86q-.06-6.39,0-12.8c0-2.52,1.31-3.75,3.85-3.82,1.35,0,2.69,0,4.13,0,2.93-11.42,9.22-20.4,19.48-27.32h-2.83c-7.83,0-15.65,0-23.48,0a2.32,2.32,0,0,0-2.48,1.39,9.93,9.93,0,0,1-11.53,5.1A10.23,10.23,0,1,1,153,75.91a2.64,2.64,0,0,0,1.8,1.28c13.23.06,26.47,0,39.7,0a4.57,4.57,0,0,0,.66-.19c0-.82,0-1.72,0-2.61,0-2.77,1.27-4,4.1-4,4.12,0,8.25,0,12.38,0,2.76,0,3.95,1.28,4,4.1,0,.84,0,1.68,0,2.73h2.05c12.52,0,25,0,37.56,0a2.6,2.6,0,0,0,2.78-1.59,10,10,0,0,1,11.43-4.91,10.21,10.21,0,0,1-.09,19.8,10,10,0,0,1-11.41-5c-.51-.93-.91-1.53-2.17-1.52-8.4.07-16.79,0-25.19,0-.26,0-.51,0-1.26.1a45.3,45.3,0,0,1,19.28,27.22c1.51,0,3-.05,4.48,0a3.32,3.32,0,0,1,3.5,3.5c.06,4.49.07,9,0,13.45a3.29,3.29,0,0,1-3.51,3.49q-6.72.1-13.44,0a3.29,3.29,0,0,1-3.49-3.5c-.06-4.48-.08-9,0-13.45,0-2.49,1.25-3.29,5-3.65-.44-9.49-15.28-24.39-25.42-25.42,0,2.13-.12,4.41-2.69,4.89a32.62,32.62,0,0,1-5.85.07c.81,1.48,1.59,2.72,2.19,4q9.51,20.49,19,41c1.88,4.08,1,5.63-3.43,6.36a6.82,6.82,0,0,0-5.82,6.65C219.06,152.18,219.11,155.52,219.11,159.17Zm-9.78-48.29-.47.08c0,3.1.06,6.2,0,9.31a2.57,2.57,0,0,0,1.59,2.78,10,10,0,0,1,5.07,10.81,10.23,10.23,0,1,1-14.8-11c.54-.3,1.25-.91,1.27-1.39.11-3.5.06-7,.06-10.51l-.45-.08-11.67,25.29c6.88,3.22,9.16,8.75,8.73,15.79-.14,2.38,0,4.77,0,7.1h13.66c0-3.52-.06-6.86,0-10.2A13.35,13.35,0,0,1,218,137.9c.9-.66,1.9-1.18,3-1.84ZM208.75,84v-6.6h-6.57V84Zm-47.58,34.35v6.59h6.55v-6.59Zm88.58,0h-6.6v6.57h6.6ZM147.37,80.69A3.4,3.4,0,1,0,144,84.06,3.44,3.44,0,0,0,147.37,80.69Zm119.55,3.37a3.4,3.4,0,1,0-3.4-3.35A3.43,3.43,0,0,0,266.92,84.06Zm-61.5,51.23a3.4,3.4,0,1,0-3.38-3.37A3.44,3.44,0,0,0,205.42,135.29Z"/><path class="cls-2" d="M219.46,237.76H276c7.27,0,11.4,4.11,11.41,11.33,0,4.12,0,8.25,0,12.37A10.16,10.16,0,0,1,277,271.9q-57.6,0-115.2,0a8.62,8.62,0,0,1-3.08-.65c-10.69-4.24-21.36-8.54-32-12.79-1.68-.67-3.14-1.47-3.19-3.51s1.46-3,3.22-3.72c10.62-4.21,21.22-8.49,31.85-12.68a11.17,11.17,0,0,1,3.92-.74Q191,237.73,219.46,237.76Zm30.3,6.83H247c-23.82,0-47.63.06-71.45-.08-3.07,0-4.54,1.55-6,3.47,1.65,2.81,3.92,3.53,7,3.52,23.53-.14,47.06-.08,70.59-.08h2.57ZM169.57,261.7a7.18,7.18,0,0,0,6.69,3.47c23.67-.16,47.35-.09,71-.09h2.46v-6.83h-2.6c-23.53,0-47.06.06-70.59-.07C173.45,258.16,171.21,258.94,169.57,261.7Zm97.49-17.1v20.47c3.47,0,6.8.06,10.12,0a3.25,3.25,0,0,0,3.37-3.4q.1-6.81,0-13.62a3.25,3.25,0,0,0-3.35-3.41C273.87,244.54,270.55,244.6,267.06,244.6Zm-104.12-.25c-1.28.39-2.05.7-2.86.87-2,.44-2.6,1.58-2.5,3.63.18,3.9,0,7.81,0,11.72,0,3,1.69,4.5,4.93,4.28-2.17-3-2.08-4,.61-6.73,1.08-1.09,2.13-2.19,3.28-3.38-1.26-1.23-2.34-2.26-3.39-3.31C160.5,248.86,160.42,247.77,162.94,244.35ZM150.73,249l-14.62,5.84,14.62,5.82ZM260,265V244.68h-3.16V265Z"/><path class="cls-2" d="M205.66,196.78H282.5c3.92,0,4.91,1,4.91,4.91q0,12.38,0,24.76c0,3.34-1.14,4.48-4.49,4.48H128c-3.34,0-4.47-1.14-4.47-4.49q0-12.58,0-25.18c0-3.35,1.12-4.48,4.48-4.48Zm74.87,7H130.42V224h6.81v-6.59H144v6.55h6.87V210.59h6.86V224h6.79v-6.59h6.79v6.56h6.86V210.58h6.87V224h6.79v-6.54h6.86v6.5h6.79V210.57h6.87V224h6.79v-6.55H226V224h6.87V210.57h6.78V224h6.79v-6.56h6.87V224h6.86v-13.4H267v13.36h13.55Z"/><path class="cls-1" d="M109.72,77.65v150A28.49,28.49,0,0,0,92.9,236.6c-.07-.9-.15-1.49-.15-2.08q0-68.16,0-136.32c0-9.84,6.22-18,15.41-20.3C108.63,77.78,109.13,77.75,109.72,77.65Z"/><path class="cls-1" d="M209.33,110.88,221,136.06c-1.08.66-2.08,1.18-3,1.84a13.35,13.35,0,0,0-5.68,10.94c-.07,3.34,0,6.68,0,10.2H198.62c0-2.33-.12-4.72,0-7.1.43-7-1.85-12.57-8.73-15.79l11.67-25.29.45.08c0,3.5.05,7-.06,10.51,0,.48-.73,1.09-1.27,1.39a10.24,10.24,0,1,0,14.8,11,10,10,0,0,0-5.07-10.81,2.57,2.57,0,0,1-1.59-2.78c.08-3.11,0-6.21,0-9.31Z"/><path class="cls-1" d="M208.75,84h-6.57v-6.6h6.57Z"/><path class="cls-1" d="M161.17,118.33h6.55v6.59h-6.55Z"/><path class="cls-1" d="M249.75,118.34v6.57h-6.6v-6.57Z"/><path class="cls-1" d="M147.37,80.69a3.4,3.4,0,1,1-3.31-3.44A3.43,3.43,0,0,1,147.37,80.69Z"/><path class="cls-1" d="M266.92,84.06a3.4,3.4,0,1,1,3.4-3.34A3.43,3.43,0,0,1,266.92,84.06Z"/><path class="cls-1" d="M205.42,135.29a3.4,3.4,0,1,1,3.43-3.32A3.44,3.44,0,0,1,205.42,135.29Z"/><path class="cls-1" d="M249.76,244.59v6.83h-2.57c-23.53,0-47.06-.06-70.59.08-3.09,0-5.36-.71-7-3.52,1.44-1.92,2.91-3.49,6-3.47,23.82.14,47.63.08,71.45.08Z"/><path class="cls-1" d="M169.57,261.7c1.64-2.76,3.88-3.54,7-3.52,23.53.13,47.06.07,70.59.07h2.6v6.83h-2.46c-23.67,0-47.35-.07-71,.09A7.18,7.18,0,0,1,169.57,261.7Z"/><path class="cls-1" d="M267.06,244.6c3.49,0,6.81-.06,10.14,0a3.25,3.25,0,0,1,3.35,3.41q.1,6.81,0,13.62a3.25,3.25,0,0,1-3.37,3.4c-3.32.08-6.65,0-10.12,0Z"/><path class="cls-1" d="M162.94,244.35c-2.52,3.42-2.44,4.51.12,7.08,1.05,1,2.13,2.08,3.39,3.31-1.15,1.19-2.2,2.29-3.28,3.38-2.69,2.72-2.78,3.69-.61,6.73-3.24.22-4.93-1.24-4.93-4.28,0-3.91.13-7.82,0-11.72-.1-2,.52-3.19,2.5-3.63C160.89,245.05,161.66,244.74,162.94,244.35Z"/><path class="cls-1" d="M150.73,249v11.66l-14.62-5.82Z"/><path class="cls-1" d="M260,265h-3.16V244.68H260Z"/><path class="cls-1" d="M280.53,203.76v20.16H267V210.56h-6.79V224h-6.86v-6.53h-6.87V224h-6.79V210.57h-6.78V224H226v-6.51h-6.86V224h-6.79V210.57H205.5v13.37h-6.79v-6.5h-6.86V224h-6.79v-13.4h-6.87v13.36h-6.86v-6.56h-6.79V224h-6.79V210.59h-6.86v13.34H144v-6.55h-6.79V224h-6.81V203.76Z"/></svg>