<svg id="Layer_1" data-name="Layer 1" xmlns="http://www.w3.org/2000/svg" viewBox="0 0 384 353"><defs><style>.cls-1{fill:#ac292a;}.cls-2{fill:#fff;}</style></defs><rect class="cls-1" x="93.55" y="96.32" width="143" height="117"/><path class="cls-1" d="M148,218.73h86.5c5.37,0,6.75-1.38,6.75-6.77V129.7h32.87v3c0,8.12,0,16.24,0,24.36.06,11.35,8.07,19.35,19.43,19.42,3.72,0,7.44-.1,11.15.08.89,0,1.81.9,2.57,1.56.93.81,1.6,1.95,2.57,2.7,1.71,1.31,3.59,2.37,5.33,3.64a13.38,13.38,0,0,1,5.88,11q.15,11.6,0,23.18c-.06,4.54-2.33,7.42-6.78,9-.4-.62-.83-1.25-1.22-1.91-9.48-15.56-31.31-15.46-40.45.27a3.79,3.79,0,0,1-3.83,2.26q-55.77-.09-111.52,0a3.7,3.7,0,0,1-3.64-2.11A88.93,88.93,0,0,0,148,218.73Z"/><path class="cls-1" d="M133.29,251.58a14.08,14.08,0,1,1,14-14A14.15,14.15,0,0,1,133.29,251.58Z"/><path class="cls-1" d="M292.93,223.43a14.08,14.08,0,1,1-14.11,13.89A14.16,14.16,0,0,1,292.93,223.43Z"/><path class="cls-1" d="M283.53,129.63c3.66.41,6.52,2,7.76,5.19,4,10.55,7.85,21.2,11.87,32.18-4.26,0-8.14.27-12-.07s-7.51-4-7.59-7.83C283.39,149.34,283.53,139.57,283.53,129.63Z"/><path class="cls-1" d="M95.88,218.78h22.4c-2.06,2.86-4.09,5.75-6.22,8.55a2.4,2.4,0,0,1-1.7.75c-4.76.06-9.53,0-14.48,0Z"/><path class="cls-1" d="M152.17,148.78V143.1a27.48,27.48,0,0,1,4.18,1.86,2.21,2.21,0,0,1,0,2A27.14,27.14,0,0,1,152.17,148.78Z"/><path class="cls-2" d="M316.53,237c-1.29,12.48-7.18,20.53-17.5,23-3.92.94-8.12.86-12.2.91-10.07.12-20.15.05-30.22,0-3.74,0-5.89-1.69-6-4.6s2.16-4.77,6.06-4.78h16.61c-1.56-4.6-3.08-9.06-4.73-13.9H157.06a65.22,65.22,0,0,1-1.61,7.06,68.87,68.87,0,0,1-3.14,6.84c2.74,0,5.38,0,8,0,3.63,0,5.82,1.86,5.75,4.78s-2.18,4.59-5.66,4.59q-27.13,0-54.29,0c-3.63,0-5.81-1.87-5.73-4.8s2.16-4.54,5.67-4.57c2.63,0,5.25,0,7.62,0-1.55-4.53-3.08-9-4.83-14.08H97.53c-7.74,0-11.23-3.52-11.23-11.32,0-3.52,0-7,0-10.56,0-4.12.64-5,4.6-6.53v-8.89c-.47-.19-1-.37-1.5-.59-2.25-1-3.42-2.72-3-5.13a4.48,4.48,0,0,1,4.77-3.91c6.16,0,12.33,0,18.49,0,4.5,0,9,0,13.5,0,3.25,0,5.3,1.85,5.36,4.59s-2.06,4.75-5.47,4.78c-7.33.05-14.67.05-22,.08a2.09,2.09,0,0,0-.47.17v9h131V101.56H100.54v4.49h10.07a29.16,29.16,0,0,1,4.39.08,4.38,4.38,0,0,1,4.1,4.57c0,2.6-1.51,4.14-4,4.66a10.66,10.66,0,0,1-2,.07H59.62c-.4,0-.79,0-1.18,0-3-.16-5-2-5-4.68s2-4.63,5-4.68c5.18-.08,10.37,0,15.55,0H91V98.62C91,93.4,92.4,92,97.55,92H234.89c4.82,0,6.35,1.51,6.35,6.27,0,7.14,0,14.28,0,21.9h3.15q18.78,0,37.56,0c9.44,0,15.88,4.56,19.14,13.5,4.51,12.38,9,24.79,13.58,37.13a8.35,8.35,0,0,0,3.05,4c9.14,5.61,13.25,13.65,12.78,24.33-.27,6.15,0,12.32-.05,18.48,0,9.33-4.21,15.43-12.94,18.9A9.28,9.28,0,0,0,316.53,237ZM148,218.73a88.93,88.93,0,0,1,5.61,7.32,3.7,3.7,0,0,0,3.64,2.11q55.76-.09,111.52,0a3.79,3.79,0,0,0,3.83-2.26c9.14-15.73,31-15.83,40.45-.27.39.66.82,1.29,1.22,1.91,4.45-1.54,6.72-4.42,6.78-9q.15-11.58,0-23.18a13.38,13.38,0,0,0-5.88-11c-1.74-1.27-3.62-2.33-5.33-3.64-1-.75-1.64-1.89-2.57-2.7-.76-.66-1.68-1.52-2.57-1.56-3.71-.18-7.43-.05-11.15-.08-11.36-.07-19.37-8.07-19.43-19.42,0-8.12,0-16.24,0-24.36v-3H241.25V212c0,5.39-1.38,6.77-6.75,6.77H148Zm-14.71,32.85a14.08,14.08,0,1,0-14.11-14.18A14.17,14.17,0,0,0,133.29,251.58Zm159.64-28.15a14.08,14.08,0,1,0,14,14A14.16,14.16,0,0,0,292.93,223.43Zm-9.4-93.8c0,9.94-.14,19.71.07,29.47.08,3.83,3.71,7.48,7.59,7.83s7.71.07,12,.07c-4-11-7.82-21.63-11.87-32.18C290.05,131.6,287.19,130,283.53,129.63ZM95.88,218.78v9.33c5,0,9.72,0,14.48,0a2.4,2.4,0,0,0,1.7-.75c2.13-2.8,4.16-5.69,6.22-8.55Z"/><path class="cls-2" d="M91,176.48V153.25c0-9.19,0-18.37,0-27.55,0-3.43,1.86-5.55,4.7-5.54s4.67,2.13,4.67,5.56q0,23.6,0,47.19v3.57c1.61,0,3,0,4.45,0,3,.14,5,2.08,4.92,4.73a4.58,4.58,0,0,1-4.72,4.6q-21.11.1-42.21,0a4.56,4.56,0,0,1-4.67-4.66c0-2.65,2-4.63,5-4.66,8.11-.06,16.22,0,24.33,0Z"/><path class="cls-2" d="M158.06,157.35c2.32,2.21,4.37,4,6.27,6,2.27,2.34,2.36,5.07.39,7s-4.68,1.86-7-.4c-1.74-1.67-3.35-3.47-5.48-5.7-.1,1.62-.11,2.45-.22,3.27a4.65,4.65,0,0,1-4.8,4.22c-2.58-.19-4.41-1.68-4.45-4.22q-.23-14.52,0-29c0-2.68,2-4.15,4.72-4.24,2.25-.08,4.5-.06,6.75,0A11.64,11.64,0,0,1,165.68,143c1.42,5.16-.78,10.31-5.65,13.24Zm-5.89-8.57a27.14,27.14,0,0,0,4.16-1.79,2.21,2.21,0,0,0,0-2,27.48,27.48,0,0,0-4.18-1.86Z"/><path class="cls-2" d="M180.43,148.13c7.22.61,9,1.52,9.12,4.64a4.26,4.26,0,0,1-3.29,4.62,34.75,34.75,0,0,1-5.9.47v4.53c2.72,0,5.51,0,8.3,0,3.46,0,5.58,1.81,5.61,4.63s-2.09,4.71-5.5,4.74q-6.17.06-12.31,0c-3.87,0-5.61-1.71-5.63-5.5q-.06-13.34,0-26.67c0-3.62,1.79-5.32,5.46-5.37q6.3-.06,12.6,0c3.25,0,5.31,1.83,5.38,4.56s-2.06,4.75-5.44,4.8c-2.73.05-5.45,0-8.4,0Z"/><path class="cls-2" d="M208.43,143.61v4.52c.85.06,1.68.16,2.52.17,4.57.06,6.74,1.52,6.79,4.63s-2.19,4.73-6.94,4.77h-2.22v4.69c2.81,0,5.61,0,8.41,0,3.39,0,5.52,1.95,5.45,4.79s-2.12,4.54-5.36,4.58q-6.3.07-12.61,0c-3.67,0-5.45-1.75-5.46-5.36q-.07-13.49,0-27c0-3.43,1.83-5.17,5.31-5.21q6.45-.09,12.9,0c3.19,0,5.25,2,5.22,4.71s-2.07,4.59-5.3,4.65C214.33,143.65,211.51,143.61,208.43,143.61Z"/><path class="cls-2" d="M124,143.61v4.6c3.81.39,8.81-1.11,9.17,5,.19,3.17-1.94,4.15-9.31,4.67,0,2.75,0,5.55,0,8.34,0,3.44-1.86,5.56-4.69,5.56s-4.67-2.13-4.68-5.56q0-13.2,0-26.39c0-3.84,1.73-5.54,5.56-5.58,4.2,0,8.41,0,12.61,0,3.21,0,5.27,1.92,5.27,4.67s-2,4.6-5.25,4.69c-1.47.05-2.93,0-4.4,0Z"/><path class="cls-2" d="M185,251.61c1.57,0,3.14-.09,4.69,0a4.67,4.67,0,0,1,4.54,4.5,4.61,4.61,0,0,1-4.53,4.8c-3.22.14-6.45.14-9.67,0a4.59,4.59,0,0,1-4.53-4.79,4.65,4.65,0,0,1,4.52-4.51C181.71,251.52,183.38,251.61,185,251.61Z"/><path class="cls-2" d="M130.64,115.42a23,23,0,0,1-2.35,0,4.67,4.67,0,0,1-4.4-4.62,4.61,4.61,0,0,1,4.35-4.67,36,36,0,0,1,5,0,4.67,4.67,0,0,1,.06,9.34c-.88.07-1.76,0-2.64,0Z"/></svg>