<svg id="Layer_1" data-name="Layer 1" xmlns="http://www.w3.org/2000/svg" viewBox="0 0 384 353"><defs><style>.cls-1{fill:#ac292a;}</style></defs><path class="cls-1" d="M307.38,151.85A118,118,0,0,0,205,59.19a26.9,26.9,0,0,1-2.9-.65H181.89c-5.18.92-10.39,1.66-15.53,2.78C117.51,72,80.21,113.44,74.73,163.14a30.82,30.82,0,0,1-.69,3.25v20.22c1.3,6.7,2.22,13.49,3.95,20.07A117.74,117.74,0,0,0,179,293.8a24.91,24.91,0,0,1,2.91.66h20.22c6.59-1.27,13.27-2.18,19.75-3.86A117.77,117.77,0,0,0,309.3,189.5a24.14,24.14,0,0,1,.66-2.89V166.39C309.1,161.54,308.39,156.67,307.38,151.85Zm-7.88,33.86a24.47,24.47,0,0,0-.59,2.64,107.37,107.37,0,0,1-79.69,92.14c-5.91,1.53-12,2.36-18,3.51H182.79a24.82,24.82,0,0,0-2.66-.59A107.3,107.3,0,0,1,88.1,204c-1.58-6-2.42-12.18-3.6-18.29V167.29c.21-1,.51-2,.62-3,5-45.29,39-83.1,83.52-92.79,4.67-1,9.43-1.7,14.15-2.53h18.42a22.85,22.85,0,0,0,2.65.58A107.52,107.52,0,0,1,297.15,154c.93,4.38,1.58,8.83,2.35,13.25Z"/><path class="cls-1" d="M240.9,193.23c1.45,0,2.9-.06,4.34,0,11.92.62,21.9,10.67,22.2,22.56.18,7.19,0,14.38.08,21.57,0,2.57-1.06,3.27-3.44,3.27q-37.06-.07-74.13,0c-2.89,0-3.69-1.15-3.64-3.8.1-6.74-.06-13.48.07-20.22.25-13.15,10.18-23,23.37-23.48a17.6,17.6,0,0,0,3.61-.93c-.61-1.23-1-2.67-1.87-3.63-4.24-4.55-6.7-9.78-6.68-16.07,0-1.46-.07-2.92,0-4.38.25-4.73-.14-8.87-3.75-12.86-4.87-5.37-3.06-12.56-2.95-19.11,0-.45,2-1.47,2.44-1.2,5.88,3.34,11.12,1.12,16.22-1.76,8.19-4.63,16.22-3.5,24.14.52a18.94,18.94,0,0,1,9.22,24,13.52,13.52,0,0,0-.77,4.24c-.11,3.36-.06,6.73,0,10.1A22.52,22.52,0,0,1,242.21,189a17.44,17.44,0,0,0-2.11,3.27Zm22.73,43.67c0-7.9.65-15.67-.16-23.29-1.06-9.87-9.67-16.68-19.65-16.93-2.26-.06-3.55.32-4.37,2.86a12.66,12.66,0,0,1-12.27,8.82,13.4,13.4,0,0,1-12.87-8.59c-.37-.93-.66-1.89-1-2.79-11-1.3-20.94,4.65-22.58,15.09-1.27,8.05-.25,16.45-.25,24.76h9.38c0-2.94-.16-5.63.06-8.28.15-1.8-1.21-5,1.62-5,3.22,0,1.6,3.3,1.79,5.14.27,2.64.07,5.33.07,8.16h47c0-3.59-.14-6.94.07-10.27.07-1.1,1-2.15,1.56-3.22.63,1.09,1.74,2.14,1.82,3.27.24,3.4.09,6.83.09,10.26ZM229.84,153c-8.08,5.42-8.09,5.4-19.64,7.53-.71.13-1.77,1.14-1.78,1.75a89.52,89.52,0,0,0,.28,13.11,18.54,18.54,0,0,0,36.68.33c.63-4.7.11-9.57.11-14.64C238.7,161.41,233.74,158.08,229.84,153Zm-28.15-13.68c-.61,6-.75,11.44,3.56,15.85.74.76,1.8,1.73,2.72,1.73,7.26,0,14.12-1.31,19.3-7,2.69-3,2.84-3,5,.26,2.69,4,6.07,6.89,11.11,7.3,2.21.19,4-.46,4-2.9-.07-3.4.21-7.13-1.07-10.11-4-9.22-17-13.21-26.63-8.6C214,138.53,208.5,141.8,201.69,139.31Zm15.7,53.53c-.87,4.7.77,8.46,4.55,10.67a9.94,9.94,0,0,0,11-.7,8.82,8.82,0,0,0,3.26-9.82A23.5,23.5,0,0,1,217.39,192.84Z"/><path class="cls-1" d="M155.4,112.39q16.18,0,32.35,0c4.67,0,6.09,1.37,6.11,6q.06,18.19,0,36.39c0,3.95-1.63,5.47-5.51,5.6-3.66.12-8.2-1-10.73.83s-2.7,6.38-3.92,9.75c-1.29,3.55-2.15,3.79-4.86,1.26-3.54-3.29-6.93-6.75-10.59-9.88a8,8,0,0,0-4.69-1.87c-10.22-.17-20.44-.08-30.67-.09-5,0-6.36-1.33-6.36-6.39q0-17.7,0-35.39c0-4.83,1.38-6.21,6.19-6.22Q139.06,112.37,155.4,112.39ZM170.55,169c1.17-3.33,2.27-5.92,3-8.61s2-3.75,4.73-3.53,5.85-.1,8.76.09c2.52.15,3.3-.77,3.28-3.27-.1-11.45-.12-22.91,0-34.36,0-2.65-.76-3.45-3.44-3.44q-31.67.15-63.33,0c-2.93,0-3.58,1-3.55,3.7.12,11.23.15,22.46,0,33.69,0,3.08,1,3.74,3.9,3.7q15.49-.23,31,0a8.62,8.62,0,0,1,5,2C163.39,162,166.69,165.33,170.55,169Z"/><path class="cls-1" d="M128.06,126.68v7.91h7v-7.91h4.27v20.59H135.1v-8.61h-7v8.61h-4.27V126.68Z"/><path class="cls-1" d="M154.35,138.56h-7v4.89h7.77v3.82h-12V126.68h11.64v3.82h-7.38v4.28h7Z"/><path class="cls-1" d="M158.11,126.68h4.27v16.68h7.51v3.91H158.11Z"/><path class="cls-1" d="M172.42,127a32.79,32.79,0,0,1,5.78-.42c2.64,0,4.52.55,5.78,1.65a6.16,6.16,0,0,1,2,4.76,6.73,6.73,0,0,1-1.74,4.89,8.43,8.43,0,0,1-6.14,2.17,6.88,6.88,0,0,1-1.46-.12v7.39h-4.24Zm4.24,9.35a5.37,5.37,0,0,0,1.43.13c2.27,0,3.67-1.26,3.67-3.33,0-1.9-1.2-3-3.36-3a7.17,7.17,0,0,0-1.74.15Z"/></svg>