<svg id="Layer_1" data-name="Layer 1" xmlns="http://www.w3.org/2000/svg" viewBox="0 0 384 353"><defs><style>.cls-1{fill:#ac292a;}.cls-2{fill:#fff;}</style></defs><path class="cls-1" d="M81.14,176.47q0-23.25,0-46.49c0-5.88.72-6.56,6.63-6.59,5.33,0,10.68.26,16-.14a8.42,8.42,0,0,0,5.57-3c17.21-24,40.1-38.92,69.5-42.41,39.19-4.64,70.83,9.36,94.52,40.9,2.46,3.27,4.72,5,8.92,4.69,5.14-.38,10.32,0,15.49-.1,3.55,0,5.16,1.55,5.15,5.13q0,48,0,96c0,3.6-1.59,5.17-5.13,5.13-5.83-.06-11.68-.25-17.49.15a8.36,8.36,0,0,0-5.58,2.94c-22.51,30.9-52.89,45.76-90.91,43-31-2.24-55.64-17-73.73-42.3-2-2.75-3.89-4.06-7.3-3.89-5.15.27-10.33-.08-15.49.12-4.49.18-6.26-1.61-6.21-6.16C81.24,207.8,81.14,192.13,81.14,176.47Zm97.13-32.79c2,3.58,4,4.73,7.67,3.92,20.49-4.51,39.12,13.35,35.16,33.91-.8,4.18.32,6.59,3.16,9,1.14,1,2.18,2,3.25,3.1,5.38,5.2,9.94,12.44,16.37,15,6.62,2.67,15.07.65,22.71,1,3.27.15,4.91-.93,6.51-3.86a17.83,17.83,0,0,1,6.65-6.42c2.35-1.34,3.36-2.52,3.32-5.27-.15-11.66-.12-23.32,0-35,0-2.59-.59-4-3.15-5.36a16.1,16.1,0,0,1-6.68-6.34c-1.66-3.24-3.59-4-7-4-27.64.12-55.29.06-82.94.08C181.87,143.44,180.4,143.57,178.27,143.68Zm27.44,65.53c-2-3.66-4.15-5-8.16-4.23-21.57,4-38.74-13.58-34.92-35.18a8.19,8.19,0,0,0-1.85-6c-3.95-4.5-8.77-8.26-12.51-12.91-5-6.18-10.91-8.59-18.68-7.56a56.54,56.54,0,0,1-10.49,0c-3.87-.2-6.89.06-8.58,4.62-.86,2.33-3.63,4.49-6,5.58-3.07,1.37-3.54,3.21-3.5,6.15q.23,16.49,0,33c0,3.28.45,5.4,3.92,7a13.59,13.59,0,0,1,6.12,6.21c1.53,3.2,3.5,3.73,6.6,3.72,27.82-.09,55.65-.05,83.47-.06C202.52,209.53,204,209.33,205.71,209.21ZM88.12,222.47H219.24c-3.08-5-6.92-6.52-12.36-6.48-31.33.26-62.65.09-94,.17-3.74,0-5.92-.58-7.11-4.95-.74-2.74-4.1-5.69-6.94-6.69-3.31-1.17-4.64-2.44-4.63-5.8q.12-22.25,0-44.5c0-3.39,1.27-4.74,4.67-5.75,2.65-.79,6.29-3.45,6.66-5.73.94-5.92,4.3-6.15,8.86-6,6,.22,12,.05,18.73.05C127.92,130,127.92,130,121,130H88.12Zm207.53.46V130.36H164.72c3,4.51,6.3,6.63,11.7,6.58,31.49-.27,63-.09,94.48-.18,4,0,6.68.42,7.23,5.28.47,4.11,3.94,5.64,7.63,6.94,1.67.59,3.82,2.92,3.85,4.49q.45,23,0,46c0,1.57-2.18,3.94-3.83,4.49-3.94,1.32-7.23,3.08-7.79,7.41-.51,3.91-2.52,4.91-6.08,4.82-6.74-.16-13.48-.05-20.21-.05l-.67,1.7c2.75,1.7,5.44,4.74,8.26,4.87C271.26,223.24,283.26,222.93,295.65,222.93ZM147.49,113.34c8.45,10,8.45,10,21.09,10h79.21C225.12,97,179.06,89.82,147.49,113.34ZM135.76,229.57c29,30.69,75.07,30.31,100.66,10-5-7-10.89-10.55-20.33-10.23-24.6.82-49.25.27-73.89.27Zm78.59-49.83c3.86-12.46-10.21-29.63-25.27-25.48Zm-19.86,19-25.35-24.83C167.15,188.46,178.66,200.06,194.49,198.76Z"/><path class="cls-2" d="M283.05,159.07c0-2.58-.59-4-3.15-5.36a16.1,16.1,0,0,1-6.68-6.34c-1.66-3.24-3.59-4-7-4-27.64.12-55.29.06-82.94.08-1.46,0-2.93.13-5.06.24,2,3.58,4,4.73,7.67,3.92,20.49-4.51,39.12,13.35,35.16,33.91-.8,4.18.32,6.59,3.16,9,1.14,1,2.18,2,3.25,3.1,5.38,5.19,9.94,12.44,16.37,15,6.62,2.67,15.07.65,22.71,1,3.27.15,4.91-.93,6.51-3.86a17.83,17.83,0,0,1,6.65-6.42c2.35-1.34,3.36-2.52,3.32-5.27C282.92,182.39,283,170.73,283.05,159.07Z"/><path class="cls-2" d="M197.55,205c-21.57,4-38.74-13.58-34.92-35.18a8.19,8.19,0,0,0-1.85-6c-3.95-4.5-8.77-8.26-12.51-12.91-5-6.18-10.91-8.59-18.68-7.56a56.54,56.54,0,0,1-10.49,0c-3.87-.2-6.89.06-8.58,4.62-.86,2.33-3.63,4.49-6,5.58-3.07,1.37-3.54,3.21-3.5,6.15q.23,16.49,0,33c0,3.28.45,5.4,3.92,7a13.59,13.59,0,0,1,6.12,6.21c1.53,3.2,3.5,3.73,6.6,3.72,27.82-.09,55.65-.05,83.47-.06,1.44,0,2.87-.2,4.63-.32C203.73,205.55,201.56,204.25,197.55,205Z"/><path class="cls-2" d="M88.12,222.47V130H121c7,0,7,0,12.17,6.81-6.7,0-12.72.17-18.73-.05-4.56-.17-7.92.06-8.86,6-.37,2.28-4,4.94-6.66,5.73-3.4,1-4.69,2.36-4.67,5.75q.12,22.26,0,44.5c0,3.36,1.32,4.63,4.63,5.8,2.84,1,6.2,3.95,6.94,6.69,1.19,4.37,3.37,5,7.11,4.95,31.33-.08,62.65.09,94-.17,5.44,0,9.28,1.51,12.36,6.48Z"/><path class="cls-2" d="M295.65,222.93c-12.39,0-24.39.31-36.35-.23-2.82-.13-5.51-3.17-8.26-4.87l.67-1.7c6.73,0,13.47-.11,20.21.05,3.56.09,5.57-.91,6.08-4.82.56-4.33,3.85-6.09,7.79-7.41,1.65-.55,3.8-2.92,3.83-4.49q.44-23,0-46c0-1.57-2.18-3.9-3.85-4.49-3.69-1.3-7.16-2.83-7.63-6.94-.55-4.86-3.28-5.29-7.23-5.28-31.49.09-63-.09-94.48.18-5.4.05-8.67-2.07-11.7-6.58H295.65Z"/><path class="cls-2" d="M147.49,113.34c31.57-23.52,77.63-16.34,100.3,10H168.58C155.94,123.38,155.94,123.39,147.49,113.34Z"/><path class="cls-2" d="M135.76,229.57h6.44c24.64,0,49.29.55,73.89-.27,9.44-.32,15.37,3.23,20.33,10.23C210.83,259.88,164.78,260.26,135.76,229.57Z"/><path class="cls-2" d="M214.35,179.74l-25.27-25.48C204.14,150.11,218.21,167.28,214.35,179.74Z"/><path class="cls-2" d="M194.49,198.76c-15.83,1.3-27.34-10.3-25.35-24.83Z"/><path class="cls-1" d="M128.29,191.38a26,26,0,0,1-12.37-4.54l4.12-6.09a20.39,20.39,0,0,0,8.53,3.75V179c-7.38-1.69-11.14-4.21-11.14-9.9V169c0-5.41,3.94-9.17,10.95-9.67v-2.61h4.77v2.75a20.79,20.79,0,0,1,9.67,3.57l-3.76,6.14a18.62,18.62,0,0,0-6.14-2.75v5.32c7.29,1.7,11,4.31,11,10v.1c0,5.59-4.31,9-10.82,9.62V196h-4.77Zm.32-25.35c-2.24.18-3.11,1.1-3.11,2.29v.1c0,1.19.64,1.87,3.11,2.56ZM136,182.44v-.09c0-1.24-.69-1.93-3.07-2.61v5C135,184.55,136,183.77,136,182.44Z"/><path class="cls-1" d="M260.29,191.38a26,26,0,0,1-12.37-4.54l4.12-6.09a20.39,20.39,0,0,0,8.53,3.75V179c-7.38-1.69-11.14-4.21-11.14-9.9V169c0-5.41,3.94-9.17,10.95-9.67v-2.61h4.77v2.75a20.79,20.79,0,0,1,9.67,3.57l-3.76,6.14a18.62,18.62,0,0,0-6.14-2.75v5.32c7.29,1.7,11,4.31,11,10v.1c0,5.59-4.31,9-10.82,9.62V196h-4.77Zm.32-25.35c-2.24.18-3.11,1.1-3.11,2.29v.1c0,1.19.64,1.87,3.11,2.56ZM268,182.44v-.09c0-1.24-.69-1.93-3.07-2.61v5C267,184.55,268,183.77,268,182.44Z"/></svg>