<svg id="Layer_1" data-name="Layer 1" xmlns="http://www.w3.org/2000/svg" viewBox="0 0 384 353"><defs><style>.cls-1{fill:#ac292a;}.cls-2{fill:#fff;}</style></defs><path class="cls-1" d="M313.79,176.33c0,70.32-57.47,127.49-128.1,127.47-70.07,0-127.55-57.9-127.39-128.26.16-70,57.85-127.35,127.94-127.24A127.73,127.73,0,0,1,313.79,176.33Zm-31.59-2.59a97.83,97.83,0,0,0-13-45.84c-2.15-3.79-3.95-4.12-7.11-1q-62.43,62.62-125,125.11c-3.77,3.77-3.66,4.58,1.09,7.27a94.83,94.83,0,0,0,62,11.78C247,264.27,282.12,223.42,282.2,173.74ZM182.85,79.65c-4.43.69-12.44,1.35-20.15,3.22C101.5,97.68,71,168.76,102.35,223.25c3,5.25,3.74,5.47,7.56,1.66q62.6-62.55,125.2-125.09c3.26-3.25,2.6-5-1.09-7.1C219.24,84.27,203.33,80.2,182.85,79.65Z"/><path class="cls-2" d="M282.2,173.74c-.08,49.68-35.22,90.53-82,97.37a94.83,94.83,0,0,1-62-11.78c-4.75-2.69-4.86-3.5-1.09-7.27q62.51-62.55,125-125.11c3.16-3.17,5-2.84,7.11,1A97.83,97.83,0,0,1,282.2,173.74Z"/><path class="cls-2" d="M182.85,79.65c20.48.55,36.39,4.62,51.17,13.07,3.69,2.1,4.35,3.85,1.09,7.1q-62.67,62.48-125.2,125.09c-3.82,3.81-4.55,3.59-7.56-1.66C71,168.76,101.5,97.68,162.7,82.87,170.41,81,178.42,80.34,182.85,79.65Z"/></svg>