<svg id="Layer_1" data-name="Layer 1" xmlns="http://www.w3.org/2000/svg" viewBox="0 0 384 353"><defs><style>.cls-1{fill:#fff;}.cls-2{fill:#ac272a;}</style></defs><path class="cls-1" d="M271.91,172.77c10.08.77,11.27,1.86,11.29,11.63,0,3.25,1.22,4.39,4,6,5.94,3.32,10.07,2.41,14.42-2.61,3-3.42,6.93-2.94,10.26.29s6.81,6.69,10.13,10.12c3.1,3.21,3.19,6.72.37,10.12-1.9,2.28-5,4.31-5.45,6.83-.43,2.36,2.22,5.15,2.92,7.9.77,3,2.38,3.71,5.28,3.65,8-.14,12.64.23,11.92,12.21-.19,3.27,0,6.56,0,9.83-.08,4.36-2.64,7.78-6.87,7.34-7.13-.75-10.52,2.13-12.36,8.71-.72,2.61-1.14,4.25,1,6.1a30.34,30.34,0,0,1,3.81,4.19c2.43,3,2.52,6.44-.07,9.21q-5.5,5.87-11.4,11.37c-2.69,2.5-6.09,2.51-9,.23-2-1.6-3.78-3.55-5.84-5.09a4,4,0,0,0-3.05-.41c-1.7.48-3.21,1.75-4.92,2.06-4.39.81-5.82,3.34-5.17,7.5a11.5,11.5,0,0,1-.1,2.68c-.48,5.13-2.93,7.46-8.16,7.4-2.14,0-3.29.32-4,2.69-2.05,6.48-7.76,10.34-14.8,10.37-11.85,0-23.69,0-35.54,0H64.7q-17.88,0-17.87-17.66V62.56c0-11.32,6-17.33,17.24-17.35,15,0,30.06-.05,45.09,0,2.48,0,3.47-.7,3.16-3.18a23.78,23.78,0,0,1,0-3.27c.06-6.28,2.64-8.87,8.91-8.87h65.1c4,0,8,0,11.94,0,5.28.06,8,2.83,8.13,8.14.14,7.13.14,7.13,7.18,7.13,13.74,0,27.48,0,41.21,0,11.06,0,17.14,6.13,17.14,17.19q0,53.32,0,106.67ZM112.27,52.2h-3.44q-22.1,0-44.19,0c-8,0-10.72,2.77-10.72,10.76q0,121.13,0,242.24c0,8,2.74,10.79,10.68,10.79H254.21c1,0,2,0,3-.05A7.41,7.41,0,0,0,264,310.2c-.7,0-1.36-.11-2-.13-5.87-.16-8.25-2.51-8.47-8.38a14.15,14.15,0,0,1,0-2.68c.5-3.49-1.23-4.78-4.3-6.43-5.75-3.08-9.68-2.37-13.9,2.52-3.21,3.7-7.09,3.21-10.71-.29-3.15-3-6.22-6.15-9.3-9.26-4-4.05-4.38-7.73-.15-11.57s5.27-7.31,2.25-12.57c-2.65-4.6-2.11-4.91-7.65-5.06-7.94-.21-9.57-1.73-10.17-9.49,0-.17-.18-.33-.48-.83h-3.31q-20.16,0-40.31,0c-1.19,0-2.64.18-3.48-.42-1.06-.74-2.36-2.3-2.21-3.31.17-1.19,1.66-2.34,2.83-3.17.6-.43,1.73-.14,2.63-.14h44.18a9,9,0,0,0,.23-1.8c-.87-8,2.94-10.79,10.89-10.56.3,0,.61-.06.9,0,3,.45,4.69-.65,5.44-3.8.65-2.75,3.22-5.51,2.8-7.9s-3.51-4.34-5.36-6.54c-2.86-3.41-2.78-6.92.28-10.13,2.33-2.45,4.77-4.8,7.16-7.18,7.37-7.36,9.1-7.53,16.59-.42,2.47,2.34,4.22,2.16,7.4,1.24,6.31-1.84,8.56-5.13,8-11.61-.41-4.62,2.88-7.2,7.56-7.31,1.07,0,2.13,0,3.54,0V62.49c0-7.28-3-10.27-10.35-10.28q-22.39,0-44.79,0c-1,0-2.08.14-3.29.23,0,2.54,0,4.72,0,6.89-.1,5.31-2.84,8.09-8.15,8.1q-38.82,0-77.64,0c-5.47,0-8.19-2.75-8.32-8.25C112.23,57,112.27,54.84,112.27,52.2Zm193.9,141c-1.77,1.61-3.59,3.3-5.44,5-3.53,3.16-5.81,3.41-10,1.41a82.67,82.67,0,0,0-8-3.32c-5-1.74-6.41-3.62-6.6-9-.08-2.32-.24-4.64-.36-6.92h-15.2c0,2.74.06,5.3,0,7.86-.12,4-2.11,6.61-6,7.89a74.11,74.11,0,0,0-8.53,3.49c-4.21,2-6.49,1.7-10-1.48-1.9-1.7-3.79-3.41-5.41-4.87L219.9,203.7l5.44,6c2.49,2.76,2.77,5.74,1.2,9.08-1.35,2.87-2.6,5.79-3.69,8.77-1.61,4.41-3.62,6-8.36,6.19-2.46.1-4.91.22-7.31.33v15.24c2.83,0,5.41-.1,8,0,3.92.17,6.39,2.15,7.63,5.95a75.16,75.16,0,0,0,3.51,8.52c1.95,4.14,1.68,6.59-1.42,10-1.71,1.89-3.43,3.76-4.82,5.29l10.61,10.57c1.71-1.56,3.69-3.33,5.65-5.14,2.82-2.61,5.88-2.93,9.34-1.28,2.78,1.31,5.63,2.5,8.52,3.53,4.46,1.59,6.11,3.53,6.37,8.25.14,2.45,0,4.92,0,7.76,2.7,0,4.86.05,7,0,2.65-.08,6.1.69,7.71-.67,1.38-1.18.68-4.82.85-7.37.28-4.19,1.9-6.25,5.84-7.7,2.88-1.06,5.75-2.2,8.53-3.51,4.38-2.05,6.67-1.82,10.31,1.41,1.89,1.68,3.75,3.41,5.28,4.8l10.58-10.57c-1.66-1.85-3.52-3.89-5.37-5.95a7.35,7.35,0,0,1-1.24-8.79c1.36-2.86,2.62-5.78,3.69-8.76,1.66-4.61,3.52-6.17,8.52-6.42,2.44-.12,4.89,0,7.42,0V234.44a3.88,3.88,0,0,0-.95-.39c-2.28-.12-4.57-.2-6.85-.32-4.36-.22-6.49-1.88-8-5.91-1.1-3-2.31-5.91-3.64-8.78-1.82-3.93-1.59-6.3,1.28-9.55,1.76-2,3.58-3.93,5.21-5.72ZM199,37.35H119.82v22.7H199Z"/><path class="cls-1" d="M119.57,123.49c0-2.29,0-4.25,0-6.21,0-4.15,1-5.1,5.06-5.11q13.73,0,27.46,0h3.7c0-4,0-7.68,0-11.41,0-4.58.85-5.44,5.35-5.45q13.59,0,27.17,0h3.75c0-4.15,0-8.07,0-12,0-4.8.92-5.71,5.74-5.71h32.54c4.05,0,5.16,1.08,5.16,5.08q0,29.92,0,59.86c0,3.73-1.09,4.84-4.75,4.85q-71.34,0-142.68,0c-3.8,0-4.82-1-4.84-4.72q0-7.15,0-14.3c0-3.8,1.11-4.87,5-4.87q13.89,0,27.76,0Zm80-38.5v54.88H228V85Zm-7.88,17.66c-9.14,0-18,0-26.78.11-.58,0-1.63,1.54-1.64,2.38-.11,10.8,0,21.6-.1,32.4,0,1.92.64,2.6,2.59,2.58,6.55-.09,13.11,0,19.66,0h6.27Zm-36.24,16.9H126.94V140h28.53Z"/><path class="cls-1" d="M107.77,230.64c6.47,0,12.93,0,19.4,0,5.1,0,7.45,2.41,7.46,7.54q0,19.51,0,39c0,4.87-2.43,7.45-7.28,7.48q-19.84.13-39.69,0c-4.64,0-7.2-2.66-7.23-7.3q-.11-19.8,0-39.6c0-4.63,2.66-7.09,7.33-7.12C94.44,230.6,101.1,230.64,107.77,230.64Zm-19.58,7.48a3.41,3.41,0,0,0-.39,1c0,12.1-.09,24.21,0,36.32,0,.63,1.47,1.78,2.27,1.79,11.64.12,23.27.06,34.91.1,1.83,0,2.4-.7,2.37-2.47-.09-5.06,0-10.12,0-15.19v-12c-1.22,1.15-2,1.8-2.63,2.48-4.86,4.83-9.68,9.7-14.57,14.51-2.49,2.45-4.17,2.46-6.64.08s-4.69-4.59-7-7c-1.89-2-2-4.26-.33-5.75,1.94-1.73,3.88-1.32,5.54.4s3,3.41,4,4.61l18.84-18.88Z"/><path class="cls-1" d="M134.64,189.2c0,6.45,0,12.9,0,19.35,0,4.89-2.42,7.38-7.32,7.4q-19.69.09-39.39,0c-5,0-7.48-2.54-7.5-7.58q-.08-19.35,0-38.71c0-5.18,2.47-7.74,7.69-7.77q19.4-.13,38.79,0c5.38,0,7.72,2.55,7.74,8C134.66,176.29,134.64,182.75,134.64,189.2Zm-7.48-10c-1,1-1.77,1.58-2.45,2.26-4.86,4.83-9.69,9.7-14.57,14.51-2.39,2.35-4.3,2.35-6.69,0s-4.66-4.61-7-7c-1.68-1.71-2.11-3.61-.44-5.55,1.47-1.71,3.84-1.65,5.75.31a55.15,55.15,0,0,1,3.82,4.75c7-7,13.19-13.16,19.32-19.26-11.55,0-23.47,0-35.39.1-.62,0-1.76,1.48-1.76,2.29-.12,11.51-.06,23-.11,34.54,0,1.73.52,2.47,2.39,2.46,11.84-.06,23.67,0,35.51-.05a11.5,11.5,0,0,0,1.58-.25Z"/><path class="cls-1" d="M192.29,177.24h-37c-1,0-2.22.28-2.93-.19-1.1-.74-2.52-2-2.59-3.06s1.11-2.66,2.17-3.35,2.5-.42,3.78-.42q36.71,0,73.43,0c1.18,0,2.65-.25,3.49.32,1.14.79,2.53,2.31,2.47,3.43s-1.67,2.35-2.87,3.12c-.71.46-1.93.15-2.93.15Z"/><path class="cls-1" d="M174,272.37c-6.55,0-13.1,0-19.65,0-3.16,0-4.82-1.32-4.8-3.62s1.63-3.44,4.9-3.44h39.61c3.18,0,4.86,1.26,4.82,3.53s-1.8,3.52-4.92,3.53C187.33,272.39,180.67,272.37,174,272.37Z"/><path class="cls-1" d="M174.35,196.62c6.57,0,13.14,0,19.71,0,3.21,0,5,1.28,4.82,3.53-.23,2.77-2.17,3.51-4.64,3.51q-20,0-40,0c-2.42,0-4.43-.62-4.64-3.46-.18-2.3,1.52-3.55,4.76-3.57C161,196.61,167.69,196.62,174.35,196.62Z"/><path class="cls-1" d="M268.36,269.45a27.92,27.92,0,1,1,28-27.87A28.2,28.2,0,0,1,268.36,269.45Zm0-48.56A20.66,20.66,0,1,0,289,241.53,20.77,20.77,0,0,0,268.36,220.89Z"/><path class="cls-2" d="M112.27,52.2c0,2.64,0,4.81,0,7,.13,5.5,2.85,8.24,8.32,8.25q38.82,0,77.64,0c5.31,0,8-2.79,8.15-8.1,0-2.17,0-4.35,0-6.89,1.21-.09,2.25-.23,3.29-.23q22.4,0,44.79,0c7.37,0,10.35,3,10.35,10.28V172.94c-1.41,0-2.47,0-3.54,0-4.68.11-8,2.69-7.56,7.31.57,6.48-1.68,9.77-8,11.61-3.18.92-4.93,1.1-7.4-1.24-7.49-7.11-9.22-6.94-16.59.42-2.39,2.38-4.83,4.73-7.16,7.18-3.06,3.21-3.14,6.72-.28,10.13,1.85,2.2,4.94,4.13,5.36,6.54s-2.15,5.15-2.8,7.9c-.75,3.15-2.42,4.25-5.44,3.8-.29,0-.6,0-.9,0-7.95-.23-11.76,2.53-10.89,10.56a9,9,0,0,1-.23,1.8H155.23c-.9,0-2-.29-2.63.14-1.17.83-2.66,2-2.83,3.17-.15,1,1.15,2.57,2.21,3.31.84.6,2.29.42,3.48.42q20.14,0,40.31,0h3.31c.3.5.47.66.48.83.6,7.76,2.23,9.28,10.17,9.49,5.54.15,5,.46,7.65,5.06,3,5.26,2,8.69-2.25,12.57s-3.86,7.52.15,11.57c3.08,3.11,6.15,6.22,9.3,9.26,3.62,3.5,7.5,4,10.71.29,4.22-4.89,8.15-5.6,13.9-2.52,3.07,1.65,4.8,2.94,4.3,6.43a14.15,14.15,0,0,0,0,2.68c.22,5.87,2.6,8.22,8.47,8.38.66,0,1.32.09,2,.13A7.41,7.41,0,0,1,257.2,316c-1,.09-2,.05-3,.05H64.6c-7.94,0-10.68-2.78-10.68-10.79q0-121.11,0-242.24c0-8,2.73-10.75,10.72-10.76q22.1,0,44.19,0Zm7.3,71.29H116q-13.87,0-27.76,0c-3.92,0-5,1.07-5,4.87q0,7.15,0,14.3c0,3.69,1,4.72,4.84,4.72q71.34,0,142.68,0c3.66,0,4.75-1.12,4.75-4.85q0-29.92,0-59.86c0-4-1.11-5.07-5.16-5.08H197.81c-4.82,0-5.73.91-5.74,5.71,0,3.92,0,7.84,0,12h-3.75q-13.59,0-27.17,0c-4.5,0-5.33.87-5.35,5.45,0,3.73,0,7.45,0,11.41h-3.7q-13.72,0-27.46,0c-4.1,0-5,1-5.06,5.11C119.55,119.24,119.57,121.2,119.57,123.49Zm-11.8,107.15c-6.67,0-13.33,0-20,0-4.67,0-7.3,2.49-7.33,7.12q-.14,19.8,0,39.6c0,4.64,2.59,7.27,7.23,7.3q19.85.13,39.69,0c4.85,0,7.27-2.61,7.28-7.48q0-19.5,0-39c0-5.13-2.36-7.5-7.46-7.54C120.7,230.6,114.24,230.64,107.77,230.64Zm26.87-41.44c0-6.45,0-12.91,0-19.36,0-5.41-2.36-7.93-7.74-8q-19.4-.1-38.79,0c-5.22,0-7.68,2.59-7.69,7.77q-.08,19.35,0,38.71c0,5,2.51,7.56,7.5,7.58q19.69.09,39.39,0c4.9,0,7.29-2.51,7.32-7.4C134.67,202.1,134.64,195.65,134.64,189.2Zm57.65-12h37c1,0,2.22.31,2.93-.15,1.2-.77,2.8-2,2.87-3.12s-1.33-2.64-2.47-3.43c-.84-.57-2.31-.32-3.49-.32q-36.72,0-73.43,0c-1.28,0-2.83-.2-3.78.42s-2.24,2.25-2.17,3.35,1.49,2.32,2.59,3.06c.71.47,1.94.19,2.93.19ZM174,272.37c6.65,0,13.31,0,20,0,3.12,0,4.89-1.31,4.92-3.53s-1.64-3.53-4.82-3.53H154.47c-3.27,0-4.87,1.15-4.9,3.44s1.64,3.61,4.8,3.62C160.92,272.39,167.47,272.37,174,272.37Zm.33-75.75c-6.66,0-13.33,0-20,0-3.24,0-4.94,1.27-4.76,3.57.21,2.84,2.22,3.46,4.64,3.46q20,0,40,0c2.47,0,4.41-.74,4.64-3.51.19-2.25-1.61-3.52-4.82-3.53C187.49,196.61,180.92,196.62,174.35,196.62Z"/><path class="cls-2" d="M306.17,193.2l10.61,10.57c-1.63,1.79-3.45,3.73-5.21,5.72-2.87,3.25-3.1,5.62-1.28,9.55,1.33,2.87,2.54,5.81,3.64,8.78,1.49,4,3.62,5.69,8,5.91,2.28.12,4.57.2,6.85.32a3.88,3.88,0,0,1,.95.39v14.83c-2.53,0-5-.1-7.42,0-5,.25-6.86,1.81-8.52,6.42-1.07,3-2.33,5.9-3.69,8.76a7.35,7.35,0,0,0,1.24,8.79c1.85,2.06,3.71,4.1,5.37,5.95l-10.58,10.57c-1.53-1.39-3.39-3.12-5.28-4.8-3.64-3.23-5.93-3.46-10.31-1.41-2.78,1.31-5.65,2.45-8.53,3.51-3.94,1.45-5.56,3.51-5.84,7.7-.17,2.55.53,6.19-.85,7.37-1.61,1.36-5.06.59-7.71.67-2.16.06-4.32,0-7,0,0-2.84.12-5.31,0-7.76-.26-4.72-1.91-6.66-6.37-8.25-2.89-1-5.74-2.22-8.52-3.53-3.46-1.65-6.52-1.33-9.34,1.28-2,1.81-3.94,3.58-5.65,5.14l-10.61-10.57c1.39-1.53,3.11-3.4,4.82-5.29,3.1-3.45,3.37-5.9,1.42-10a75.16,75.16,0,0,1-3.51-8.52c-1.24-3.8-3.71-5.78-7.63-5.95-2.57-.12-5.15,0-8,0V234.08c2.4-.11,4.85-.23,7.31-.33,4.74-.2,6.75-1.78,8.36-6.19,1.09-3,2.34-5.9,3.69-8.77,1.57-3.34,1.29-6.32-1.2-9.08l-5.44-6,10.64-10.46c1.62,1.46,3.51,3.17,5.41,4.87,3.54,3.18,5.82,3.45,10,1.48a74.11,74.11,0,0,1,8.53-3.49c3.93-1.28,5.92-3.85,6-7.89.07-2.56,0-5.12,0-7.86h15.2c.12,2.28.28,4.6.36,6.92.19,5.35,1.65,7.23,6.6,9a82.67,82.67,0,0,1,8,3.32c4.23,2,6.51,1.75,10-1.41C302.58,196.5,304.4,194.81,306.17,193.2Zm-37.81,76.25a27.92,27.92,0,1,0-28-27.84A28.18,28.18,0,0,0,268.36,269.45Z"/><path class="cls-2" d="M199,37.35v22.7H119.82V37.35Z"/><path class="cls-2" d="M199.59,85H228v54.88H199.59Z"/><path class="cls-2" d="M191.71,102.65v37.44h-6.27c-6.55,0-13.11-.06-19.66,0-1.95,0-2.6-.66-2.59-2.58.06-10.8,0-21.6.1-32.4,0-.84,1.06-2.37,1.64-2.38C173.75,102.61,182.57,102.65,191.71,102.65Z"/><path class="cls-2" d="M155.47,119.55V140H126.94V119.55Z"/><path class="cls-2" d="M88.19,238.12h36.45L105.8,257c-1-1.2-2.47-3-4-4.61s-3.6-2.13-5.54-.4c-1.68,1.49-1.56,3.77.33,5.75,2.27,2.37,4.6,4.68,7,7s4.15,2.37,6.64-.08c4.89-4.81,9.71-9.68,14.57-14.51.68-.68,1.41-1.33,2.63-2.48v12c0,5.07-.06,10.13,0,15.19,0,1.77-.54,2.48-2.37,2.47-11.64,0-23.27,0-34.91-.1-.8,0-2.26-1.16-2.27-1.79-.11-12.11-.06-24.22,0-36.32A3.41,3.41,0,0,1,88.19,238.12Z"/><path class="cls-2" d="M127.16,179.18v29.2a11.5,11.5,0,0,1-1.58.25c-11.84,0-23.67,0-35.51.05-1.87,0-2.39-.73-2.39-2.46,0-11.52,0-23,.11-34.54,0-.81,1.14-2.28,1.76-2.29,11.92-.14,23.84-.1,35.39-.1-6.13,6.1-12.33,12.29-19.32,19.26a55.15,55.15,0,0,0-3.82-4.75c-1.91-2-4.28-2-5.75-.31-1.67,1.94-1.24,3.84.44,5.55,2.3,2.34,4.61,4.67,7,7s4.3,2.31,6.69,0c4.88-4.81,9.71-9.68,14.57-14.51C125.39,180.76,126.12,180.14,127.16,179.18Z"/><path class="cls-2" d="M268.36,220.89a20.66,20.66,0,1,1-20.74,20.62A20.69,20.69,0,0,1,268.36,220.89Z"/></svg>