<svg id="Layer_1" data-name="Layer 1" xmlns="http://www.w3.org/2000/svg" viewBox="0 0 384 353"><defs><style>.cls-1{fill:none;}.cls-2{fill:#ac292a;}.cls-3{fill:#fff;}</style></defs><path class="cls-1" d="M290.13,273.14c.62-3.7.35-7.59.2-11.38-.08-2-2.07-3.6-4.21-3.85a19.51,19.51,0,0,0-2.42-.06H278v25C284.23,282.61,289.16,279,290.13,273.14Z"/><path class="cls-2" d="M107.59,184.79q26.47,0,52.95,0c4.72,0,7-2.27,7-7q.06-13.83,0-27.68c0-4.73-2.3-6.93-7.07-6.93q-13.18,0-26.36,0-13.41,0-26.81,0c-4.45,0-6.76,2.33-6.77,6.77q0,14,0,27.91C100.54,182.52,102.83,184.79,107.59,184.79ZM135.73,153c0-2.83,1.18-4.07,4-4.09q9.56-.06,19.11,0c2.82,0,4.07,1.24,4.08,4q.06,12,0,23.94c0,2.69-1.23,4-3.89,4q-9.66.08-19.33,0c-2.78,0-3.93-1.25-3.94-4.11,0-3.95,0-7.91,0-11.86S135.7,157,135.73,153Zm-30.49,11.89c0-2.7,1.18-3.76,4-3.79,3.22,0,6.43,0,9.65,0s6.43,0,9.65,0c2.61,0,3.77,1.15,3.8,3.72,0,4.1,0,8.19,0,12.28,0,2.54-1.22,3.71-3.83,3.72-6.43.05-12.87,0-19.3,0-2.72,0-3.88-1.18-3.92-3.88Q105.17,171,105.24,164.92Z"/><path class="cls-2" d="M162,99.62a8.74,8.74,0,0,0-17.47,0,8.71,8.71,0,0,0,8.7,8.85A8.81,8.81,0,0,0,162,99.62Z"/><path class="cls-2" d="M123,91.08v5.84c2.32,0,4.63.54,5.85-1.78a3.21,3.21,0,0,0-.27-2.79C127.18,90.41,125.06,90.94,123,91.08Z"/><path class="cls-2" d="M156.17,155.64H142.44v18.51h13.73Z"/><path class="cls-2" d="M125.58,167.86H112V174h13.61Z"/><path class="cls-2" d="M276,208.32c-2.08.74-2.55,2.11-2.2,4.26a20,20,0,0,1-.08,5.68,2.59,2.59,0,0,0,1.65,3.08,15.35,15.35,0,0,1,2.61,1.58V207.1c-.27.2-.54.39-.84.58A5.83,5.83,0,0,1,276,208.32Z"/><path class="cls-2" d="M272.39,245.59c-2,.77-4.36.76-6.77,1.13v4.54H278V239.86C276.26,242.61,274.18,244.91,272.39,245.59Z"/><path class="cls-2" d="M251.45,251.11h7.35v-6.53a49.82,49.82,0,0,1-5.62,3C251.36,248.28,250.86,249.31,251.45,251.11Z"/><path class="cls-2" d="M238.09,204.55a10.47,10.47,0,0,0-.28,20.93,10.47,10.47,0,1,0,.28-20.93Z"/><path class="cls-2" d="M271.05,191.69a2.7,2.7,0,0,0-4.11-1c-1.66.93-3.31,1.87-4.94,2.84s-2.94.59-4.47-.37c-3.37-2.13-6.84-4.12-10.37-6-1.59-.84-2.55-1.84-2.5-3.7s0-3.66,0-5.49c-.06-2.18-.94-3.12-3-3.17-2.42-.06-4.84,0-7.25,0-2,0-3,1-3,3s0,3.81,0,5.71-1,2.83-2.58,3.68c-3.54,1.85-7,3.87-10.37,6-1.54,1-2.88,1.28-4.46.34s-3.28-1.93-4.94-2.85a2.71,2.71,0,0,0-4.1,1.09q-1.83,3.12-3.63,6.27a2.68,2.68,0,0,0,1.06,4.09c1.63,1,3.28,1.93,4.93,2.87s2,2.18,2,4c-.18,4-.21,8,0,12,.1,1.95-.43,3.25-2.07,4.18s-3.18,1.82-4.75,2.74-2.14,2.35-1.17,4.07c1.19,2.11,2.38,4.21,3.63,6.27,1.11,1.82,2.36,2.13,4.27,1.09,1.54-.83,3.08-1.68,4.56-2.63,1.81-1.17,3.27-.75,5,.41a87,87,0,0,0,9.81,5.67c1.91.94,2.9,2.07,2.86,4.15,0,1.37,0,2.75,0,4.22h13.27c0-1.41.07-2.71,0-4-.16-2.32,1-3.46,3-4.44a75.56,75.56,0,0,0,9.6-5.6c1.74-1.17,3.2-1.55,5-.4,1.48.94,3,1.8,4.56,2.64,1.91,1,3.13.72,4.25-1.12,1.22-2,2.39-4,3.51-6.08s.72-3.18-1.27-4.38q-2.34-1.42-4.74-2.76a3.44,3.44,0,0,1-1.84-4.05,29,29,0,0,0,0-12,3.36,3.36,0,0,1,1.77-3.89c1.65-.94,3.31-1.87,4.93-2.86,1.86-1.15,2.22-2.34,1.19-4.24C273.51,195.85,272.28,193.77,271.05,191.69Zm-33,40.38a17.06,17.06,0,1,1,17.12-17.17A17,17,0,0,1,238,232.07Z"/><path class="cls-2" d="M105.64,96.24a4.21,4.21,0,0,0,0-3.59c-1.4-2.33-3.86-1.7-6.2-1.59v6.83C101.76,97.86,104.29,98.68,105.64,96.24Z"/><path class="cls-2" d="M188.76,289.48c-2.38,0-3.83-1.31-3.83-3.29s1.53-3.29,4.27-3.29h88.11l.69,0v-25H124c-5.34,0-6.84,1.48-6.84,6.73,0,9.88,0,9.88-4.46,18.32h58.46a11.41,11.41,0,0,1,2.19.07,3.27,3.27,0,0,1,0,6.45,8.49,8.49,0,0,1-1.75.07q-36.58,0-73.17,0c-9.64,0-17.32-6.22-19.17-15.46a25,25,0,0,1-.33-4.81q0-74.92,0-149.84a14.51,14.51,0,0,1,.07-2,3,3,0,0,1,2.93-2.76,2.93,2.93,0,0,1,3.32,2.26,11.87,11.87,0,0,1,.26,3q0,74.49,0,149c0,3.9.74,7.43,3.6,10.23,3.54,3.46,7.79,4.68,12.52,3.17a11.82,11.82,0,0,0,8.6-9.89,62.19,62.19,0,0,0,.34-8.76c.08-7.69,4.8-12.39,12.54-12.39H224.53c.68-1.93.16-2.9-1.64-3.67a32.07,32.07,0,0,1-5.85-3.42,2.4,2.4,0,0,0-2.92-.15,20,20,0,0,1-6,2.35c-3.74.51-6.67-1.25-8.64-4.46-1.38-2.24-2.7-4.53-4-6.84-2.61-4.77-1.33-10.11,3.44-12.67,2.59-1.39,4-2.85,3.16-5.85a1.43,1.43,0,0,1,0-.65c.73-4.11-.12-7-4.36-9.23-3.77-1.94-4.55-7.24-2.54-11.14q2.07-4,4.5-7.78A8.81,8.81,0,0,1,212,184.83c2.7,1.69,4.73,1.88,7.05-.33a6.84,6.84,0,0,1,2.85-1.6c2.62-.73,3.06-2.4,3-4.91-.14-6.1,3.69-9.78,9.83-9.83,2.41,0,4.83,0,7.25,0,5.36.12,9.38,4,9.21,9.37-.09,3,.62,4.76,3.55,5.66a24.2,24.2,0,0,1,4.16,2.33c0-3.71,0-7.1,0-10.49a27.29,27.29,0,0,1,0-2.86,3.22,3.22,0,0,1,3.47-3.18,3.07,3.07,0,0,1,3,3.35c.08,3.29,0,6.59,0,9.88,0,.5.09,1,.15,1.65,6-1.34,9.78,1.29,12.28,6.43,0,.07.07.13.1.2V65.35A9.35,9.35,0,0,0,268.65,56H80.35A9.35,9.35,0,0,0,71,65.35v223.3A9.35,9.35,0,0,0,80.35,298h188.3a9.34,9.34,0,0,0,9.31-8.56C248.23,289.53,218.49,289.49,188.76,289.48Zm-96.07-178c0-7.82,0-15.64,0-23.46,0-2.06,1.09-3.46,3.11-3.55a46.34,46.34,0,0,1,8.74.22,9.83,9.83,0,0,1,8.32,10.66,10.13,10.13,0,0,1-9.77,9.19c-1.16,0-2.32,0-3.82,0,0,2.49,0,4.67,0,6.85S97.9,115,96,115A3.28,3.28,0,0,1,92.69,111.45Zm41.91-2.37c1.62,1.91,1.6,3.91,0,5.2s-3.34,1-5-.88a82.78,82.78,0,0,0-6.74-7c0,1.67.06,3.34,0,5-.11,2.55-2,4.18-4.15,3.53a3.17,3.17,0,0,1-2.41-3.27c0-8,0-15.93,0-23.9a3,3,0,0,1,3.09-3.31,47.48,47.48,0,0,1,8.09.16,9.38,9.38,0,0,1,3.09,17.75l-1.26.7C131.17,105.13,132.91,107.09,134.6,109.08Zm104.92,12.56c.51,0,1,0,1.54,0a3.27,3.27,0,0,1,.08,6.54c-.72.07-1.46,0-2.19,0H105.19a11.34,11.34,0,0,1-2.41-.09,3.26,3.26,0,0,1-.09-6.39,8.85,8.85,0,0,1,2.19-.1ZM137.91,99.57A15.33,15.33,0,1,1,153.13,115,15.39,15.39,0,0,1,137.91,99.57Zm46.2,7.47a7.69,7.69,0,0,1-4.94,7.39c-3.15,1.35-6,.46-8.57-1.64a3.18,3.18,0,0,1-.71-4.65,3.26,3.26,0,0,1,4.5-.67c2.58,1.49,3.14,1.19,3.15-1.77,0-5.78,0-11.56,0-17.35,0-2.39,1.3-3.9,3.22-4s3.3,1.37,3.34,3.55c0,3.29,0,6.59,0,9.88C184.12,100.89,184.16,104,184.11,107Zm17.15-10.48c2.25,0,3.67,1.28,3.73,3.18s-1.45,3.33-3.77,3.39c-1.75,0-3.5,0-5.39,0v5.31c2,0,3.87,0,5.75,0,2.63,0,4.06,1.17,4.09,3.24s-1.4,3.32-4,3.34c-2.86,0-5.71,0-8.57,0s-4-1.11-4-3.78q-.08-11.43,0-22.85c0-2.62,1.19-3.72,3.8-3.75,3.08-.05,6.15-.05,9.23,0,2.18,0,3.44,1.22,3.52,3.11s-1.23,3.35-3.44,3.44-4.21,0-6.42,0v5.33C197.67,96.55,199.46,96.52,201.26,96.56Zm13.15,6.27c2.36,6,10,7.25,13.27,3.44a3,3,0,0,1,4.82-.16c1.28,1.34,1.16,3.29-.32,4.91-4.2,4.62-12,5.4-17.74,1.66-4.7-3.05-7.1-7.44-7.19-13.32a14.78,14.78,0,0,1,7.94-13c5.06-2.8,10.22-2.61,15.26.24,1.57.88,2.61,2.25,1.88,4a4.71,4.71,0,0,1-2.74,2.36c-.84.25-2.05-.47-3-.93a8.74,8.74,0,0,0-12.17,10.87ZM94,149.74c0-7.91,5.28-13.16,13.24-13.18,9,0,18,0,27,0s17.71,0,26.57,0c8.1,0,13.32,5.16,13.38,13.28q.09,14.06,0,28.1c0,8.25-5.27,13.43-13.48,13.44q-26.67,0-53.35,0c-8.06,0-13.35-5.29-13.37-13.32Q93.91,163.9,94,149.74Zm90,50a16.09,16.09,0,0,1,2.41.1,3.22,3.22,0,0,1,.32,6.27,9.5,9.5,0,0,1-2.39.21H98.84a10.11,10.11,0,0,1-2.4-.18,3.21,3.21,0,0,1,.31-6.31,17.54,17.54,0,0,1,2.41-.09h84.75Zm-44.62,45c-6.95,0-13.9,0-20.85,0s-13.9,0-20.85,0c-2.26,0-3.62-1.31-3.63-3.24s1.35-3.2,3.58-3.33c.44,0,.88,0,1.32,0h38.85c.52,0,1,0,1.54,0,2.32.1,3.82,1.46,3.77,3.4S141.57,244.72,139.29,244.73Zm47.13-13.19a14.3,14.3,0,0,1-2.62.13H99.05a14.86,14.86,0,0,1-2.41-.11,3,3,0,0,1-2.66-3,3,3,0,0,1,2.57-3.31,9.2,9.2,0,0,1,2-.15h85.85a9.88,9.88,0,0,1,2.18.18,3,3,0,0,1,2.44,3.19A2.92,2.92,0,0,1,186.42,231.54Zm8.27-15.82A3.16,3.16,0,0,1,191.5,219c-.73.07-1.47,0-2.2,0H99.07a13.69,13.69,0,0,1-2.4-.12,3.21,3.21,0,0,1,.07-6.35,14.86,14.86,0,0,1,2.41-.11H189.6a18.44,18.44,0,0,1,2,0A3.12,3.12,0,0,1,194.69,215.72Zm28-47.14q-18.11,0-36.22,0c-2.51,0-4-1.35-4-3.38S184,162,186.41,162c6.07,0,12.15,0,18.22,0s12,0,18,0c2.65,0,4.06,1.14,4.08,3.22S225.29,168.58,222.71,168.58Zm24.81-12.77a12.89,12.89,0,0,1-2,.06H187.4c-.52,0-1,0-1.54,0a3.35,3.35,0,0,1-3.37-3.34,3.25,3.25,0,0,1,3.45-3.22c3.65-.06,7.31,0,11,0h49.38c2.42,0,3.81,1,4.09,2.77A3.3,3.3,0,0,1,247.52,155.81Zm4.26-64.88c-.94,0-1.88,0-3.2,0V103c0,2.85.06,5.7,0,8.55a3.28,3.28,0,1,1-6.54-.11c0-5.92,0-11.85,0-17.77V90.93c-1.21,0-2.27,0-3.33,0a3.25,3.25,0,0,1-.23-6.49c4.52-.12,9.06-.12,13.59,0a3.21,3.21,0,0,1,3.18,3.28A3.29,3.29,0,0,1,251.78,90.93ZM78.91,78.68c0-8.28,1.78-11,9.35-14.18H256.12a33,33,0,0,1,5.16,2.74c3,2.34,4.22,5.63,4.2,9.46,0,9.81,0,19.62,0,29.43V154.9c0,.73,0,1.46-.05,2.19a3.23,3.23,0,0,1-6.4.33,13.42,13.42,0,0,1-.14-2.62V77.92c0-5.33-1.49-6.83-6.74-6.83H92.23c-5.19,0-6.72,1.51-6.73,6.62q0,11.54,0,23.07a11.3,11.3,0,0,1-.11,2.18A3.09,3.09,0,0,1,82,105.74a3,3,0,0,1-3-3.12c-.08-3.07,0-6.15,0-9.23Z"/><path class="cls-3" d="M79,102.62a3,3,0,0,0,3,3.12A3.09,3.09,0,0,0,85.39,103a11.3,11.3,0,0,0,.11-2.18q0-11.53,0-23.07c0-5.11,1.54-6.62,6.73-6.62H252.14c5.25,0,6.74,1.5,6.74,6.83V154.8a13.42,13.42,0,0,0,.14,2.62,3.23,3.23,0,0,0,6.4-.33c.06-.73.05-1.46.05-2.19V106.13c0-9.81,0-19.62,0-29.43,0-3.83-1.16-7.12-4.2-9.46a33,33,0,0,0-5.16-2.74H88.26c-7.57,3.2-9.35,5.9-9.35,14.18V93.39C78.92,96.47,78.88,99.55,79,102.62Z"/><path class="cls-3" d="M297.05,262.67c-.09-6.6-5.06-11.35-11.71-11.4-2.45,0-4.89,0-7.34,0v6.6h5.7a19.51,19.51,0,0,1,2.42.06c2.14.25,4.13,1.82,4.21,3.85.15,3.79.42,7.68-.2,11.38-1,5.81-5.9,9.47-12.13,9.73v5.78c0,.27,0,.53,0,.79h.66a18.36,18.36,0,0,0,17.88-14.75C297.25,270.79,297.1,266.68,297.05,262.67Z"/><path class="cls-3" d="M280.5,194.88c-.8-1.47-1.75-2.88-2.5-4.37V207.1A9.2,9.2,0,0,0,280.5,194.88Z"/><path class="cls-3" d="M281.74,229.37a8.87,8.87,0,0,0-3.74-6.45v16.94C280.29,236.26,282,231.88,281.74,229.37Z"/><path class="cls-3" d="M278,282.87l-.69,0H189.2c-2.74,0-4.27,1.2-4.27,3.29s1.45,3.29,3.83,3.29c29.73,0,59.47,0,89.2,0,0-.26,0-.52,0-.79Z"/><path class="cls-3" d="M265.62,183.88c-.06-.65-.14-1.15-.15-1.65,0-3.29,0-6.59,0-9.88a3.07,3.07,0,0,0-3-3.35,3.22,3.22,0,0,0-3.47,3.18,27.29,27.29,0,0,0,0,2.86c0,3.39,0,6.78,0,10.49a24.2,24.2,0,0,0-4.16-2.33c-2.93-.9-3.64-2.69-3.55-5.66.17-5.39-3.85-9.25-9.21-9.37-2.42,0-4.84,0-7.25,0-6.14.05-10,3.73-9.83,9.83.06,2.51-.38,4.18-3,4.91a6.84,6.84,0,0,0-2.85,1.6c-2.32,2.21-4.35,2-7.05.33a8.81,8.81,0,0,0-12.31,2.92q-2.43,3.78-4.5,7.78c-2,3.9-1.23,9.2,2.54,11.14,4.24,2.19,5.09,5.12,4.36,9.23a1.43,1.43,0,0,0,0,.65c.86,3-.57,4.46-3.16,5.85-4.77,2.56-6,7.9-3.44,12.67,1.26,2.31,2.58,4.6,4,6.84,2,3.21,4.9,5,8.64,4.46a20,20,0,0,0,6-2.35,2.4,2.4,0,0,1,2.92.15,32.07,32.07,0,0,0,5.85,3.42c1.8.77,2.32,1.74,1.64,3.67H123.08c-7.74,0-12.46,4.7-12.54,12.39a62.19,62.19,0,0,1-.34,8.76,11.82,11.82,0,0,1-8.6,9.89c-4.73,1.51-9,.29-12.52-3.17-2.86-2.8-3.61-6.33-3.6-10.23q.06-74.49,0-149a11.87,11.87,0,0,0-.26-3,2.93,2.93,0,0,0-3.32-2.26A3,3,0,0,0,79,117.39a14.51,14.51,0,0,0-.07,2q0,74.91,0,149.84a25,25,0,0,0,.33,4.81c1.85,9.24,9.53,15.45,19.17,15.46q36.58,0,73.17,0a8.49,8.49,0,0,0,1.75-.07,3.27,3.27,0,0,0,0-6.45,11.41,11.41,0,0,0-2.19-.07H112.68c4.45-8.44,4.45-8.44,4.46-18.32,0-5.25,1.5-6.73,6.84-6.73H278v-6.6H265.62v-4.54c2.41-.37,4.74-.36,6.77-1.13,1.79-.68,3.87-3,5.61-5.73V222.92a15.35,15.35,0,0,0-2.61-1.58,2.59,2.59,0,0,1-1.65-3.08,20,20,0,0,0,.08-5.68c-.35-2.15.12-3.52,2.2-4.26a5.83,5.83,0,0,0,1.14-.64c.3-.19.57-.38.84-.58V190.51c0-.07-.07-.13-.1-.2C275.4,185.17,271.59,182.54,265.62,183.88Zm-6.82,67.23h-7.35c-.59-1.8-.09-2.83,1.73-3.52a49.82,49.82,0,0,0,5.62-3Zm14.66-48.9c-1.62,1-3.28,1.92-4.93,2.86a3.36,3.36,0,0,0-1.77,3.89,29,29,0,0,1,0,12,3.44,3.44,0,0,0,1.84,4.05q2.4,1.33,4.74,2.76c2,1.2,2.35,2.39,1.27,4.38s-2.29,4.08-3.51,6.08c-1.12,1.84-2.34,2.15-4.25,1.12-1.55-.84-3.08-1.7-4.56-2.64-1.81-1.15-3.27-.77-5,.4a75.56,75.56,0,0,1-9.6,5.6c-2.08,1-3.2,2.12-3,4.44.09,1.3,0,2.6,0,4H231.4c0-1.47,0-2.85,0-4.22,0-2.08-1-3.21-2.86-4.15a87,87,0,0,1-9.81-5.67c-1.73-1.16-3.19-1.58-5-.41-1.48.95-3,1.8-4.56,2.63-1.91,1-3.16.73-4.27-1.09-1.25-2.06-2.44-4.16-3.63-6.27-1-1.72-.5-3.08,1.17-4.07s3.16-1.84,4.75-2.74,2.17-2.23,2.07-4.18c-.2-4-.17-8,0-12,.08-1.84-.39-3.12-2-4s-3.3-1.89-4.93-2.87a2.68,2.68,0,0,1-1.06-4.09q1.8-3.15,3.63-6.27a2.71,2.71,0,0,1,4.1-1.09q2.49,1.38,4.94,2.85c1.58.94,2.92.63,4.46-.34,3.38-2.13,6.83-4.15,10.37-6,1.62-.85,2.56-1.88,2.58-3.68s0-3.81,0-5.71,1-3,3-3c2.41,0,4.83-.05,7.25,0,2.1.05,3,1,3,3.17q.06,2.74,0,5.49c0,1.86.91,2.86,2.5,3.7,3.53,1.88,7,3.87,10.37,6,1.53,1,2.87,1.32,4.47.37s3.28-1.91,4.94-2.84a2.7,2.7,0,0,1,4.11,1c1.23,2.08,2.46,4.16,3.6,6.28C275.68,199.87,275.32,201.06,273.46,202.21Z"/><path class="cls-3" d="M107.31,191.38q26.67,0,53.35,0c8.21,0,13.43-5.19,13.48-13.44q.08-14,0-28.1c-.06-8.12-5.28-13.26-13.38-13.28-8.86,0-17.71,0-26.57,0s-18,0-27,0c-8,0-13.22,5.27-13.24,13.18q0,14.16,0,28.32C94,186.09,99.25,191.37,107.31,191.38Zm-6.77-41.46c0-4.44,2.32-6.76,6.77-6.77q13.41,0,26.81,0,13.17,0,26.36,0c4.77,0,7.05,2.2,7.07,6.93q.06,13.85,0,27.68c0,4.76-2.29,7-7,7q-26.47,0-52.95,0c-4.76,0-7-2.27-7-7Q100.51,163.88,100.54,149.92Z"/><path class="cls-3" d="M102.69,121.75a3.26,3.26,0,0,0,.09,6.39,11.34,11.34,0,0,0,2.41.09H239c.73,0,1.47,0,2.19,0a3.27,3.27,0,0,0-.08-6.54c-.51,0-1,0-1.54,0H104.88A8.85,8.85,0,0,0,102.69,121.75Z"/><path class="cls-3" d="M191.57,212.45a18.44,18.44,0,0,0-2,0H99.15a14.86,14.86,0,0,0-2.41.11,3.21,3.21,0,0,0-.07,6.35,13.69,13.69,0,0,0,2.4.12H189.3c.73,0,1.47,0,2.2,0a3.16,3.16,0,0,0,3.19-3.23A3.12,3.12,0,0,0,191.57,212.45Z"/><path class="cls-3" d="M99.16,199.7a17.54,17.54,0,0,0-2.41.09,3.21,3.21,0,0,0-.31,6.31,10.11,10.11,0,0,0,2.4.18h85.41a9.5,9.5,0,0,0,2.39-.21,3.22,3.22,0,0,0-.32-6.27,16.09,16.09,0,0,0-2.41-.1H99.16Z"/><path class="cls-3" d="M186.54,225.27a9.88,9.88,0,0,0-2.18-.18H98.51a9.2,9.2,0,0,0-2,.15A3,3,0,0,0,94,228.55a3,3,0,0,0,2.66,3,14.86,14.86,0,0,0,2.41.11H183.8a14.3,14.3,0,0,0,2.62-.13,2.92,2.92,0,0,0,2.56-3.08A3,3,0,0,0,186.54,225.27Z"/><path class="cls-3" d="M168.56,99.75a15.33,15.33,0,0,0-30.65-.18,15.33,15.33,0,1,0,30.65.18Zm-24.06-.16a8.74,8.74,0,1,1,8.7,8.85A8.79,8.79,0,0,1,144.5,99.59Z"/><path class="cls-3" d="M135.71,92.3a9.42,9.42,0,0,0-8.2-7.71,47.48,47.48,0,0,0-8.09-.16,3,3,0,0,0-3.09,3.31c0,8,0,15.94,0,23.9a3.17,3.17,0,0,0,2.41,3.27c2.11.65,4-1,4.15-3.53.08-1.66,0-3.33,0-5a82.78,82.78,0,0,1,6.74,7c1.64,1.83,3.45,2.13,5,.88s1.61-3.29,0-5.2-3.43-4-5.26-6l1.26-.7A9.45,9.45,0,0,0,135.71,92.3Zm-6.85,2.84c-1.22,2.32-3.53,1.74-5.85,1.78V91.08c2-.14,4.17-.67,5.58,1.27A3.21,3.21,0,0,1,128.86,95.14Z"/><path class="cls-3" d="M246.29,149.28H196.91c-3.66,0-7.32,0-11,0a3.25,3.25,0,0,0-3.45,3.22,3.35,3.35,0,0,0,3.37,3.34c.51,0,1,0,1.54,0h58.15a12.89,12.89,0,0,0,2-.06,3.3,3.3,0,0,0,2.86-3.76C250.1,150.25,248.71,149.29,246.29,149.28Z"/><path class="cls-3" d="M226.58,92c1,.46,2.17,1.18,3,.93a4.71,4.71,0,0,0,2.74-2.36c.73-1.7-.31-3.07-1.88-4-5-2.85-10.2-3-15.26-.24a14.78,14.78,0,0,0-7.94,13c.09,5.88,2.49,10.27,7.19,13.32,5.77,3.74,13.54,3,17.74-1.66,1.48-1.62,1.6-3.57.32-4.91a3,3,0,0,0-4.82.16c-3.3,3.81-10.91,2.61-13.27-3.44A8.74,8.74,0,0,1,226.58,92Z"/><path class="cls-3" d="M99.25,111.37c0-2.18,0-4.36,0-6.85,1.5,0,2.66,0,3.82,0a10.13,10.13,0,0,0,9.77-9.19,9.83,9.83,0,0,0-8.32-10.66,46.34,46.34,0,0,0-8.74-.22c-2,.09-3.11,1.49-3.11,3.55,0,7.82,0,15.64,0,23.46A3.28,3.28,0,0,0,96,115C97.9,115,99.2,113.58,99.25,111.37Zm.14-20.31c2.34-.11,4.8-.74,6.2,1.59a4.21,4.21,0,0,1,0,3.59c-1.35,2.44-3.88,1.62-6.25,1.65Z"/><path class="cls-3" d="M202.23,91.2c2.21-.09,3.51-1.47,3.44-3.44s-1.34-3.07-3.52-3.11c-3.08-.05-6.15-.05-9.23,0-2.61,0-3.78,1.13-3.8,3.75q-.08,11.41,0,22.85c0,2.67,1.25,3.76,4,3.78s5.71,0,8.57,0c2.57,0,4-1.24,4-3.34s-1.46-3.22-4.09-3.24c-1.88,0-3.77,0-5.75,0v-5.31c1.89,0,3.64,0,5.39,0,2.32-.06,3.83-1.44,3.77-3.39s-1.48-3.14-3.73-3.18c-1.8,0-3.59,0-5.45,0V91.22C198,91.22,200.13,91.28,202.23,91.2Z"/><path class="cls-3" d="M139.25,238.16c-.51,0-1,0-1.54,0H98.86c-.44,0-.88,0-1.32,0-2.23.13-3.59,1.4-3.58,3.33s1.37,3.22,3.63,3.24c7,0,13.9,0,20.85,0s13.9,0,20.85,0c2.28,0,3.67-1.27,3.73-3.17S141.57,238.26,139.25,238.16Z"/><path class="cls-3" d="M222.63,162c-6,0-12,0-18,0s-12.15,0-18.22,0c-2.43,0-3.87,1.22-3.91,3.19s1.48,3.38,4,3.38q18.12,0,36.22,0c2.58,0,4-1.26,4-3.35S225.28,162,222.63,162Z"/><path class="cls-3" d="M252,84.41c-4.53-.1-9.07-.1-13.59,0a3.25,3.25,0,0,0,.23,6.49c1.06.06,2.12,0,3.33,0v2.76c0,5.92,0,11.85,0,17.77a3.28,3.28,0,1,0,6.54.11c.1-2.85,0-5.7,0-8.55V90.94c1.32,0,2.26,0,3.2,0a3.29,3.29,0,0,0,3.42-3.24A3.21,3.21,0,0,0,252,84.41Z"/><path class="cls-3" d="M184.11,87.94c0-2.18-1.46-3.62-3.34-3.55s-3.2,1.57-3.22,4c0,5.79,0,11.57,0,17.35,0,3-.57,3.26-3.15,1.77a3.26,3.26,0,0,0-4.5.67,3.18,3.18,0,0,0,.71,4.65c2.54,2.1,5.42,3,8.57,1.64a7.69,7.69,0,0,0,4.94-7.39c0-3.07,0-6.15,0-9.22C184.12,94.53,184.16,91.23,184.11,87.94Z"/><path class="cls-3" d="M238,198a17.06,17.06,0,1,0,17.12,16.94A17,17,0,0,0,238,198Zm-.2,27.52a10.47,10.47,0,0,1,.28-20.93,10.47,10.47,0,1,1-.28,20.93Z"/><path class="cls-3" d="M135.73,176.75c0,2.86,1.16,4.09,3.94,4.11q9.68.06,19.33,0c2.66,0,3.88-1.27,3.89-4q.06-12,0-23.94c0-2.77-1.26-4-4.08-4q-9.56-.06-19.11,0c-2.79,0-3.95,1.26-4,4.09,0,3.95,0,7.9,0,11.86S135.7,172.8,135.73,176.75Zm6.71-21.11h13.73v18.51H142.44Z"/><path class="cls-3" d="M109.16,180.86c6.43,0,12.87,0,19.3,0,2.61,0,3.8-1.18,3.83-3.72.06-4.09.05-8.18,0-12.28,0-2.57-1.19-3.69-3.8-3.72-3.22,0-6.43,0-9.65,0s-6.43,0-9.65,0c-2.78,0-3.92,1.09-4,3.79q-.08,6,0,12.06C105.28,179.68,106.44,180.84,109.16,180.86Zm2.81-13h13.61V174H112Z"/></svg>