<svg id="Layer_1" data-name="Layer 1" xmlns="http://www.w3.org/2000/svg" viewBox="0 0 384 353"><defs><style>.cls-1{fill:#ac292a;}</style></defs><path class="cls-1" d="M267.74,51.42a38.27,38.27,0,0,1,5.74,3c3.37,2.61,4.69,6.27,4.67,10.52-.06,10.91,0,21.82,0,32.73v54.21c0,.82,0,1.64-.05,2.44a3.59,3.59,0,0,1-7.12.37,14.83,14.83,0,0,1-.15-2.91q0-42.75,0-85.48c0-5.92-1.65-7.59-7.49-7.59H85.52c-5.77,0-7.47,1.67-7.48,7.36V91.75a13.07,13.07,0,0,1-.12,2.43,3.43,3.43,0,0,1-3.77,3.09,3.33,3.33,0,0,1-3.39-3.47c-.08-3.42,0-6.84-.05-10.25V67.18c0-9.21,2-12.2,10.39-15.76Z"/><path class="cls-1" d="M108.25,294.24h65a12.4,12.4,0,0,1,2.44.08,3.46,3.46,0,0,1,3.05,3.57,3.5,3.5,0,0,1-3,3.6,9,9,0,0,1-2,.08q-40.66,0-81.34,0c-10.72,0-19.26-6.92-21.32-17.2a27.15,27.15,0,0,1-.37-5.34q0-83.29,0-166.6a16,16,0,0,1,.07-2.19,3.35,3.35,0,0,1,3.26-3.08,3.26,3.26,0,0,1,3.69,2.52,13.14,13.14,0,0,1,.29,3.38q0,82.82,0,165.62c0,4.34.83,8.27,4,11.38,3.94,3.85,8.66,5.2,13.92,3.52a13.13,13.13,0,0,0,9.56-11,67.08,67.08,0,0,0,.37-9.74c.1-8.55,5.35-13.77,13.95-13.78H232.61c.76-2.14.18-3.22-1.82-4.07a36.69,36.69,0,0,1-6.51-3.81A2.66,2.66,0,0,0,221,251a22.45,22.45,0,0,1-6.71,2.6c-4.16.58-7.42-1.38-9.61-5-1.54-2.49-3-5-4.4-7.6-2.91-5.32-1.48-11.25,3.82-14.1,2.88-1.54,4.47-3.16,3.51-6.5a1.79,1.79,0,0,1,0-.73c.82-4.57-.13-7.82-4.85-10.25-4.19-2.16-5-8.05-2.82-12.38,1.53-3,3.21-5.86,5-8.66a9.78,9.78,0,0,1,13.68-3.24c3,1.88,5.26,2.09,7.84-.37a7.62,7.62,0,0,1,3.17-1.78c2.91-.82,3.4-2.66,3.33-5.45-.15-6.8,4.1-10.88,10.93-10.94,2.69,0,5.37,0,8.06,0,6,.14,10.43,4.43,10.24,10.43-.1,3.29.7,5.28,3.95,6.29,1.5.46,2.8,1.54,4.62,2.58V174.32a30.63,30.63,0,0,1,.05-3.18,3.56,3.56,0,0,1,3.86-3.53c2,.1,3.33,1.43,3.38,3.72.09,3.66,0,7.33.05,11,0,.55.09,1.11.16,1.83,6.64-1.49,10.87,1.43,13.65,7.15.85,1.75,2,3.37,2.9,5.08a10.29,10.29,0,0,1-3.72,14.23,6.68,6.68,0,0,1-1.27.72c-2.31.82-2.84,2.34-2.45,4.73a22.63,22.63,0,0,1-.08,6.31,2.88,2.88,0,0,0,1.83,3.43c3.78,1.82,6.6,4.45,7.06,8.93.52,4.91-5.79,16.28-10.4,18-2.25.86-4.84.84-7.53,1.25v5.05h2.64c6.43,0,12.86,0,19.29,0,7.4.06,12.92,5.34,13,12.68.06,4.46.22,9-.61,13.37a20.39,20.39,0,0,1-19.87,16.39c-33.31.11-66.61.06-99.91.05-2.65,0-4.27-1.46-4.27-3.66s1.7-3.66,4.76-3.66q49,0,98,0c7.29,0,13.14-4.14,14.26-10.84.69-4.12.39-8.43.22-12.65-.09-2.26-2.29-4-4.68-4.29a24,24,0,0,0-2.68-.06H120.82c-5.93,0-7.6,1.64-7.61,7.48C113.2,284.86,113.2,284.86,108.25,294.24ZM255,258.93c0-1.57.08-3,0-4.46-.18-2.58,1.07-3.84,3.37-4.94A83.73,83.73,0,0,0,269,243.31c1.94-1.31,3.56-1.72,5.57-.44,1.64,1,3.35,2,5.07,2.93,2.12,1.14,3.47.8,4.72-1.24q2-3.33,3.9-6.77c1.21-2.21.8-3.53-1.4-4.87q-2.61-1.57-5.27-3.06a3.83,3.83,0,0,1-2.05-4.51,32.14,32.14,0,0,0,0-13.32,3.72,3.72,0,0,1,2-4.32c1.83-1,3.68-2.08,5.48-3.19,2.07-1.27,2.46-2.59,1.32-4.7-1.27-2.36-2.63-4.68-4-7-1.12-1.87-2.69-2.22-4.58-1.16s-3.67,2.09-5.49,3.17-3.26.65-5-.42c-3.75-2.37-7.61-4.58-11.53-6.66-1.78-.95-2.84-2.06-2.79-4.12s0-4.07,0-6.11c-.06-2.42-1-3.47-3.38-3.52-2.68-.06-5.37,0-8.06,0-2.2,0-3.28,1.15-3.29,3.33s0,4.24,0,6.35-1.06,3.15-2.86,4.1c-3.94,2.05-7.78,4.29-11.53,6.66-1.71,1.09-3.2,1.43-5,.38s-3.64-2.14-5.49-3.17-3.45-.67-4.55,1.22c-1.37,2.31-2.7,4.64-4,7-1.09,1.9-.69,3.44,1.18,4.56s3.64,2.14,5.48,3.19,2.27,2.42,2.18,4.47c-.19,4.44-.23,8.9,0,13.33.11,2.17-.48,3.62-2.31,4.65s-3.52,2-5.28,3.06-2.38,2.6-1.29,4.52c1.32,2.34,2.64,4.68,4,7,1.24,2,2.62,2.36,4.75,1.21,1.71-.93,3.42-1.87,5.06-2.93,2-1.3,3.64-.82,5.57.46a94.56,94.56,0,0,0,10.9,6.3c2.13,1,3.23,2.31,3.19,4.62,0,1.53,0,3.05,0,4.69Zm15.72-7.29a57,57,0,0,1-6.25,3.34c-2,.78-2.58,1.92-1.92,3.92h8.17Z"/><path class="cls-1" d="M132.18,131.53c9.84,0,19.69,0,29.53,0,9,0,14.81,5.74,14.88,14.78q.1,15.62,0,31.24c-.05,9.17-5.86,14.93-15,14.94q-29.65,0-59.31,0c-9,0-14.84-5.88-14.86-14.81q0-15.74,0-31.49c0-8.79,5.88-14.62,14.72-14.65C112.16,131.5,122.17,131.53,132.18,131.53Zm-.09,7.33c-9.93,0-19.87,0-29.8,0-5,0-7.52,2.6-7.53,7.54q0,15.51,0,31c0,5.22,2.54,7.74,7.84,7.74q29.43,0,58.87,0c5.25,0,7.78-2.53,7.8-7.81q0-15.39,0-30.78c0-5.26-2.55-7.7-7.86-7.71Q146.75,138.84,132.09,138.86Z"/><path class="cls-1" d="M174.16,122.28H99.93a13.25,13.25,0,0,1-2.68-.1,3.63,3.63,0,0,1-.1-7.11,9.82,9.82,0,0,1,2.43-.11h149.7c.57,0,1.14,0,1.71,0a3.64,3.64,0,0,1,.1,7.28c-.81.08-1.63,0-2.44,0Z"/><path class="cls-1" d="M143.65,223.18H93.13a14.91,14.91,0,0,1-2.68-.14,3.57,3.57,0,0,1,.08-7.06,17.12,17.12,0,0,1,2.68-.12q50.28,0,100.57,0c.73,0,1.47,0,2.19,0,2.23.24,3.49,1.59,3.47,3.65s-1.32,3.35-3.55,3.58c-.81.08-1.63,0-2.44,0Z"/><path class="cls-1" d="M140.34,201.74h47.12a16.94,16.94,0,0,1,2.67.11,3.58,3.58,0,0,1,.36,7,10.72,10.72,0,0,1-2.66.24h-95a11.33,11.33,0,0,1-2.67-.21,3.57,3.57,0,0,1,.35-7,18.29,18.29,0,0,1,2.67-.1Z"/><path class="cls-1" d="M140.21,237.29H93.1a16,16,0,0,1-2.68-.12,3.27,3.27,0,0,1-3-3.34,3.33,3.33,0,0,1,2.86-3.68,9.88,9.88,0,0,1,2.18-.17H188a10.37,10.37,0,0,1,2.43.2,3.58,3.58,0,0,1-.14,7,16.6,16.6,0,0,1-2.91.14Z"/><path class="cls-1" d="M153.23,107.6a17,17,0,1,1,17.16-17A17,17,0,0,1,153.23,107.6Zm.08-7.33a9.72,9.72,0,1,0-9.68-9.83A9.68,9.68,0,0,0,153.31,100.27Z"/><path class="cls-1" d="M126.78,94.27c2,2.33,4,4.5,5.85,6.72s1.78,4.35,0,5.78-3.71,1.06-5.53-1a93.63,93.63,0,0,0-7.5-7.81c0,1.86.06,3.71,0,5.57-.12,2.83-2.27,4.64-4.62,3.91a3.51,3.51,0,0,1-2.67-3.63c0-8.85,0-17.71,0-26.57a3.37,3.37,0,0,1,3.43-3.68,52,52,0,0,1,9,.18,10.45,10.45,0,0,1,9.11,8.57c.72,4.67-1.34,8.72-5.68,11.16Zm-7-6.81c2.58,0,5.15.61,6.5-2a3.54,3.54,0,0,0-.29-3.1c-1.57-2.16-3.93-1.57-6.21-1.42Z"/><path class="cls-1" d="M223.86,145.68q16.47,0,32.94,0c2.7,0,4.24,1.08,4.55,3.08a3.65,3.65,0,0,1-3.17,4.18,14.63,14.63,0,0,1-2.2.06H191.33c-.57,0-1.14,0-1.71,0a3.71,3.71,0,0,1-3.74-3.71,3.58,3.58,0,0,1,3.83-3.57c4.06-.07,8.13,0,12.2,0Z"/><path class="cls-1" d="M213.4,90.18a16.43,16.43,0,0,1,8.83-14.48c5.63-3.11,11.36-2.9,17,.27,1.74,1,2.9,2.5,2.09,4.39a5.33,5.33,0,0,1-3,2.63c-.93.28-2.28-.53-3.35-1A9.71,9.71,0,0,0,221.37,94c2.61,6.72,11.08,8,14.75,3.82a3.39,3.39,0,0,1,5.36-.18c1.42,1.49,1.28,3.66-.36,5.46-4.66,5.14-13.31,6-19.72,1.84C216.17,101.6,213.51,96.72,213.4,90.18Z"/><path class="cls-1" d="M93.33,95.91c0,2.78,0,5.2,0,7.62s-1.49,4-3.6,4.06a3.66,3.66,0,0,1-3.69-4c0-8.7,0-17.39,0-26.08,0-2.3,1.21-3.85,3.46-4a50.88,50.88,0,0,1,9.72.25,10.92,10.92,0,0,1,9.25,11.85A11.26,11.26,0,0,1,97.58,95.91C96.29,96,95,95.91,93.33,95.91Zm.15-7.37c2.64,0,5.45.88,7-1.83a4.7,4.7,0,0,0-.05-4c-1.57-2.58-4.3-1.88-6.9-1.76Z"/><path class="cls-1" d="M200.68,81.13v5.92c2.07,0,4.07,0,6.06,0,2.51,0,4.08,1.43,4.15,3.54s-1.61,3.7-4.2,3.77c-1.94,0-3.89,0-6,0v5.9c2.21,0,4.3,0,6.4,0,2.93,0,4.52,1.3,4.55,3.61s-1.56,3.69-4.42,3.71c-3.18,0-6.35,0-9.53,0s-4.43-1.23-4.45-4.21q-.09-12.69,0-25.4c0-2.91,1.33-4.13,4.23-4.17q5.13-.07,10.26,0c2.43,0,3.83,1.35,3.91,3.45s-1.37,3.73-3.82,3.83S203.14,81.13,200.68,81.13Z"/><path class="cls-1" d="M114.66,251.82c-7.73,0-15.45,0-23.18,0-2.52,0-4-1.45-4-3.6s1.5-3.56,4-3.7c.49,0,1,0,1.46,0h43.2c.57,0,1.14,0,1.71,0,2.58.1,4.25,1.62,4.19,3.78s-1.61,3.51-4.14,3.52C130.12,251.84,122.39,251.82,114.66,251.82Z"/><path class="cls-1" d="M210.49,159.82c6.67,0,13.34,0,20,0,2.94,0,4.5,1.28,4.53,3.59s-1.58,3.72-4.44,3.72q-20.15,0-40.28,0c-2.79,0-4.48-1.5-4.44-3.76s1.65-3.54,4.35-3.55C197,159.81,203.74,159.82,210.49,159.82Z"/><path class="cls-1" d="M259.35,80.81V94.24c0,3.17.07,6.35,0,9.51a3.64,3.64,0,0,1-3.84,3.84c-2-.1-3.41-1.62-3.43-4,0-6.58,0-13.17,0-19.75V80.81c-1.34,0-2.52,0-3.7,0a3.45,3.45,0,0,1-3.62-3.47,3.42,3.42,0,0,1,3.36-3.74c5-.14,10.08-.13,15.12,0a3.57,3.57,0,0,1,3.54,3.64,3.65,3.65,0,0,1-3.81,3.6C261.87,80.86,260.82,80.81,259.35,80.81Z"/><path class="cls-1" d="M187.69,88.47c0,3.41,0,6.83,0,10.25a8.55,8.55,0,0,1-5.48,8.22c-3.51,1.49-6.71.5-9.54-1.83-1.81-1.5-2.06-3.49-.78-5.16s3.1-1.86,5-.75c2.87,1.66,3.49,1.32,3.5-2,0-6.43,0-12.86,0-19.29,0-2.66,1.45-4.34,3.58-4.41s3.67,1.52,3.71,4C187.74,81.14,187.69,84.8,187.69,88.47Z"/><path class="cls-1" d="M247.61,199.8a19,19,0,1,1-19,18.83A19,19,0,0,1,247.61,199.8Zm.08,7.33a11.64,11.64,0,0,0-.31,23.27,11.64,11.64,0,1,0,.31-23.27Z"/><path class="cls-1" d="M133.88,163c0-4.39,0-8.79,0-13.18,0-3.15,1.32-4.53,4.42-4.55q10.62-.06,21.25,0c3.14,0,4.52,1.38,4.54,4.46q0,13.31,0,26.62c0,3-1.38,4.39-4.33,4.41q-10.74.06-21.49,0c-3.09,0-4.37-1.39-4.39-4.57C133.86,171.83,133.88,167.43,133.88,163Zm7.47-10.28v20.58h15.27V152.75Z"/><path class="cls-1" d="M115.12,158.85c3.57,0,7.15,0,10.72,0,2.91,0,4.19,1.27,4.23,4.14.05,4.54.05,9.1,0,13.65,0,2.82-1.37,4.12-4.27,4.14q-10.72.06-21.45,0c-3,0-4.33-1.31-4.36-4.31q-.09-6.71,0-13.41c0-3,1.31-4.19,4.4-4.22C108,158.82,111.54,158.85,115.12,158.85Zm-7.65,14.32H122.6v-6.83H107.47Z"/></svg>