<svg id="Layer_1" data-name="Layer 1" xmlns="http://www.w3.org/2000/svg" viewBox="0 0 384 353"><defs><style>.cls-1{fill:#ac292a;}.cls-2{fill:#fff;}</style></defs><circle class="cls-1" cx="220.73" cy="199.81" r="97"/><path class="cls-1" d="M220.46,71.69c-6.08,0-12.17,0-18.26,0-4.83,0-8-2.91-8.11-7.19s3.16-7.59,8-7.61q18.41-.1,36.8,0c4.85,0,8.22,3.23,8.17,7.53s-3.42,7.26-8.34,7.29C232.64,71.71,226.55,71.69,220.46,71.69Z"/><path class="cls-1" d="M233.23,82.62V93.05h-25.3V82.62Z"/><path class="cls-1" d="M220.73,128.16A71.64,71.64,0,1,1,149,199.39,71.59,71.59,0,0,1,220.73,128.16Zm0,88.11a16.41,16.41,0,0,0,15.47-21.61c-.64-1.88-.19-2.82,1.06-4,7.73-7.64,15.39-15.34,23.07-23a17.29,17.29,0,0,0,1.95-2.16,5.27,5.27,0,0,0-.54-6.58,5.19,5.19,0,0,0-6.55-.82,13.57,13.57,0,0,0-2.19,1.9q-11.82,11.79-23.6,23.63a2.52,2.52,0,0,1-3.18.79,15,15,0,0,0-11.13,0,2.5,2.5,0,0,1-3.18-.78c-3.07-3.18-6.22-6.28-9.35-9.4-2.88-2.85-6.07-3.2-8.38-.95s-2.11,5.42.79,8.35,6.06,6.18,9.2,9.16a3.09,3.09,0,0,1,.94,3.84A16.43,16.43,0,0,0,220.71,216.27Zm5.23-70.63h0c0-.87,0-1.76,0-2.63a5.25,5.25,0,0,0-10.46-.62,28.33,28.33,0,0,0,0,6.31,5.25,5.25,0,0,0,10.44-.42C226,147.41,225.94,146.52,225.94,145.64Zm48.95,59.48v0c.79,0,1.59,0,2.37,0a5.4,5.4,0,0,0,5.35-5.4c-.05-2.92-2.33-5.07-5.53-5.17-1.58,0-3.17-.06-4.75,0a5.09,5.09,0,0,0-5.14,4.94A5.2,5.2,0,0,0,272,205.1,25.32,25.32,0,0,0,274.89,205.12Zm-49.06,48.79h0a25.62,25.62,0,0,0,0-2.63,5.33,5.33,0,0,0-5.44-5,5.28,5.28,0,0,0-5.1,5.33c-.07,1.67-.08,3.34,0,5a5.26,5.26,0,0,0,10.49.48A23.79,23.79,0,0,0,225.83,253.91Zm-59.32-59.52v.1c-1,0-1.95-.08-2.91,0a5.21,5.21,0,0,0-5,4.94,5.07,5.07,0,0,0,4.45,5.38,27.74,27.74,0,0,0,7.11-.13c2.51-.38,4-2.68,3.86-5.26a5,5,0,0,0-4.37-4.88C168.64,194.41,167.57,194.44,166.51,194.39Z"/><path class="cls-1" d="M220.73,194a5.78,5.78,0,0,1,5.73,6,5.84,5.84,0,0,1-11.67-.2A5.78,5.78,0,0,1,220.73,194Z"/><path class="cls-2" d="M327.73,207.33c-.88,5.28-1.56,10.61-2.67,15.85A102.75,102.75,0,0,1,311,257.25c-2,3.12-5,4-7.64,2.4s-3.29-4.84-1.27-8.08a93.22,93.22,0,0,0,14.09-39.29c3.53-30.92-5.17-58-26.94-80.24C242.38,84.1,161.31,98.25,133.14,159a96.27,96.27,0,0,0,68.6,135.18c24.76,4.95,48.09.73,69.72-12.44,4.23-2.57,7.14-2.43,9.06.51s.72,5.92-3.49,8.54c-55.85,34.79-130.44,10.71-155.3-50.2-1-2.33-2.09-2.93-4.44-2.9-10.69.12-21.39.05-32.08.05a28.2,28.2,0,0,1-2.91-.1,5.18,5.18,0,0,1-4.82-5.07,5.24,5.24,0,0,1,4.84-5.35,23.32,23.32,0,0,1,2.65-.08h31.79c-1.11-6.89-2.16-13.47-3.27-20.37H105c-4.86,0-9.72,0-14.58,0a5.28,5.28,0,1,1,0-10.55c6.72-.08,13.43,0,20.15,0h2.8l2.61-20.32h-2.87q-24.65,0-49.3,0a15.07,15.07,0,0,1-3.68-.34,5.19,5.19,0,0,1,.75-10.15,23.52,23.52,0,0,1,2.91-.09c17.67,0,35.34,0,53,0,1.9,0,2.69-.63,3.41-2.37,2.48-6,5.22-11.9,7.93-18-.7,0-1.53-.12-2.36-.12h-27c-3.85,0-6.3-2.09-6.3-5.27s2.49-5.32,6.29-5.32c11.49,0,23-.05,34.46,0a5,5,0,0,0,4.45-2A105.44,105.44,0,0,1,195,95.86c.67-.16,1.32-.42,2.08-.67,0-.83.1-1.62.1-2.4q0-5.42,0-10.87c-6.56-2.11-11.12-6.14-13-12.68A17.89,17.89,0,0,1,201,46.33c13-.31,26-.23,39,0,9.09.14,15.95,6.48,17.47,15.5C258.81,69.88,254,78,245.92,81.12c-1.45.56-2,1.19-2,2.8.13,3.69,0,7.4,0,10.87,6.28,2.17,12.54,3.82,18.36,6.44,36.79,16.54,58.21,44.89,64.45,84.73.34,2.17.63,4.35,1,6.52ZM220.46,71.69c6.09,0,12.18,0,18.27,0,4.92,0,8.28-3,8.34-7.29s-3.32-7.51-8.17-7.53q-18.4-.07-36.8,0c-4.85,0-8.1,3.23-8,7.61s3.28,7.16,8.11,7.19C208.29,71.72,214.38,71.69,220.46,71.69Zm12.77,10.93h-25.3V93.05h25.3Z"/><path class="cls-2" d="M220.75,117.56A82.21,82.21,0,0,1,302.84,200c-.1,45.37-37.21,82.3-82.47,82.09a82.24,82.24,0,0,1,.38-164.48Zm0,10.6a71.64,71.64,0,1,0,71.51,72A71.61,71.61,0,0,0,220.73,128.16Z"/><path class="cls-2" d="M66.84,232.41a5.29,5.29,0,1,1-10.57,0,5.29,5.29,0,0,1,10.57,0Z"/><path class="cls-2" d="M292.57,277a5.24,5.24,0,0,1,0-10.47,5.24,5.24,0,1,1,0,10.47Z"/><path class="cls-2" d="M220.71,216.27a16.43,16.43,0,0,1-15.62-21.71,3.09,3.09,0,0,0-.94-3.84c-3.14-3-6.16-6.08-9.2-9.16s-3.18-6-.79-8.35,5.5-1.9,8.38.95c3.13,3.12,6.28,6.22,9.35,9.4a2.5,2.5,0,0,0,3.18.78,15,15,0,0,1,11.13,0,2.52,2.52,0,0,0,3.18-.79q11.76-11.87,23.6-23.63a13.57,13.57,0,0,1,2.19-1.9,5.19,5.19,0,0,1,6.55.82,5.27,5.27,0,0,1,.54,6.58,17.29,17.29,0,0,1-1.95,2.16c-7.68,7.69-15.34,15.39-23.07,23-1.25,1.23-1.7,2.17-1.06,4A16.41,16.41,0,0,1,220.71,216.27Zm0-22.3a5.78,5.78,0,0,0-5.94,5.77,5.84,5.84,0,0,0,11.67.2A5.78,5.78,0,0,0,220.73,194Z"/><path class="cls-2" d="M225.94,145.64c0,.88.06,1.77,0,2.64a5.25,5.25,0,0,1-10.44.42,28.33,28.33,0,0,1,0-6.31,5.25,5.25,0,0,1,10.46.62c.05.87,0,1.76,0,2.63Z"/><path class="cls-2" d="M274.89,205.12a25.32,25.32,0,0,1-2.89,0,5.2,5.2,0,0,1-4.81-5.57,5.09,5.09,0,0,1,5.14-4.94c1.58-.08,3.17-.06,4.75,0,3.2.1,5.48,2.25,5.53,5.17a5.4,5.4,0,0,1-5.35,5.4c-.78.06-1.58,0-2.37,0Z"/><path class="cls-2" d="M225.83,253.91a23.79,23.79,0,0,1,0,3.16,5.26,5.26,0,0,1-10.49-.48c-.09-1.66-.08-3.33,0-5a5.28,5.28,0,0,1,5.1-5.33,5.33,5.33,0,0,1,5.44,5,25.62,25.62,0,0,1,0,2.63Z"/><path class="cls-2" d="M166.51,194.39c1.06.05,2.13,0,3.18.16a5,5,0,0,1,4.37,4.88c.11,2.58-1.35,4.88-3.86,5.26a27.74,27.74,0,0,1-7.11.13,5.07,5.07,0,0,1-4.45-5.38,5.21,5.21,0,0,1,5-4.94c1-.09,1.94,0,2.91,0Z"/></svg>