<svg id="Layer_1" data-name="Layer 1" xmlns="http://www.w3.org/2000/svg" viewBox="0 0 384 353"><defs><style>.cls-1{fill:#ac292a;}</style></defs><path class="cls-1" d="M240.85,223.79c-2.89,5.75-6.17,11.11-8.33,16.89s-3.12,11.83-4.7,18.12c-8-2.55-14,1.72-19.79,7a70.55,70.55,0,0,1-9.12,7.48c-5.06,3.29-8.27,1.88-9.92-3.93-.89-3.1-1.52-6.28-2.37-9.39-3.12-11.43-13-15.78-23.57-10.16a30.49,30.49,0,0,0-7.79,6.16,28.78,28.78,0,0,1-21.55,9.52c-3.7.05-5.64,1.93-5.53,5s2.29,4.73,5.89,4.68c10.13-.13,19.06-3.18,26.24-10.64a35.27,35.27,0,0,1,6.66-5.68c5.06-3.1,8.73-1.56,10.38,4.1,1,3.29,1.59,6.68,2.5,10,3,10.82,12.17,15.05,22.13,9.72,4.21-2.25,7.76-5.73,11.58-8.71,2-1.55,3.77-3.39,5.86-4.78,4.14-2.77,9-.65,9.87,4.25a64.19,64.19,0,0,0,19.09,35.72c.28.27.52.58,1.07,1.19-1.29.07-2.23.17-3.18.17H97.44c-5.33,0-6.52-1.2-6.52-6.64q0-120.33.06-240.66c0-9.92-1.46-19.1-8.85-27,1.34-.1,2.18-.22,3-.22q93.25,0,186.5,0c13.42,0,23.05,9.34,23.06,22.48q.07,69,0,137.91c0,.7-.07,1.39-.11,2.06-5,.57-9.9.88-14.73,1.74-9.94,1.76-18.75,6.13-26.83,12.13A9.32,9.32,0,0,1,247.9,214q-62.86.15-125.75.08c-5,0-7.26,1.5-7.27,4.82s2.3,4.88,7.25,4.88H240.85Zm-48.14-30.42h70.75c4.87,0,7.29-1.62,7.33-4.87s-2.3-4.83-7.26-4.83H122c-.81,0-1.62,0-2.43,0-2.75.21-4.7,2.05-4.71,4.57a4.65,4.65,0,0,0,4,4.92,15.25,15.25,0,0,0,3.32.17Zm.14-30.55q36,0,72,0c3.82,0,6.06-1.92,6-4.92s-2.23-4.67-5.89-4.75c-2.83-.06-5.67,0-8.5,0H121.59c-4.41,0-6.69,1.67-6.72,4.82s2.28,4.84,6.63,4.87c.61,0,1.21,0,1.82,0Zm-56-38.94c.7-.28,1.46-.55,2.2-.87,6.4-2.76,10.43-9.46,9.64-16a15.8,15.8,0,0,0-12.87-13.91c-1.77-.32-3.63-.14-5.45-.3a6,6,0,0,1,.06-12c3.42-.24,6.57,0,9.06,3,1.7,2.06,4.15,2,6.3.41a4.41,4.41,0,0,0,.91-6.46c-1.51-1.83-3.32-3.83-5.42-4.66-3.38-1.32-5.2-2.8-4.78-6.8.27-2.64-2.19-4.43-4.78-4.4s-4.6,1.9-4.76,4.84c-.07,1.51,0,3,0,4.6l-2,.84a15.67,15.67,0,0,0,3.57,30.21c1.69.24,3.45,0,5.15.24a5.86,5.86,0,0,1,5.3,5.07,6,6,0,0,1-3.63,6.36,10.3,10.3,0,0,1-10.66-2c-2.47-2.41-5.11-2.64-7.23-.62a4.64,4.64,0,0,0,.07,7c2.69,2.44,5.9,4.3,9.34,6.73.65,6.69,1.65,8.46,5.1,8.35S136.17,131.68,136.89,123.88Zm82.17,8.48h44.33a21.73,21.73,0,0,0,3.33-.11,4.46,4.46,0,0,0,4-4.3,4.4,4.4,0,0,0-3.23-4.89,10.88,10.88,0,0,0-3.28-.38q-45.39,0-90.78,0a10.07,10.07,0,0,0-3.56.51A4.31,4.31,0,0,0,167,128a4.41,4.41,0,0,0,3.75,4.18,16,16,0,0,0,3.33.15Zm-.32-70.55H174.11a19.07,19.07,0,0,0-3,.1,4.39,4.39,0,0,0-4,4.23,4.31,4.31,0,0,0,3.12,4.93,13.21,13.21,0,0,0,3.88.42q44.79,0,89.57,0a13.92,13.92,0,0,0,3.6-.31,4.75,4.75,0,0,0-.82-9.31c-1-.1-2-.07-3-.07Zm0,30.42H181.4c-3.24,0-6.49-.08-9.72,0A4.61,4.61,0,0,0,167,96.89a4.74,4.74,0,0,0,4.6,5c.8.08,1.61,0,2.42,0h89.58c1,0,2.24.31,3-.14,1.45-.89,3.23-2,3.74-3.41a5.27,5.27,0,0,0-1.11-4.55,7,7,0,0,0-4.64-1.53C249.31,92.19,234,92.23,218.74,92.23Z"/><path class="cls-1" d="M238.17,262.74a54.38,54.38,0,1,1,54.43,54.33A54.21,54.21,0,0,1,238.17,262.74Zm46.66,2.64c-2.3-2.52-4.49-5.18-6.94-7.58-3.91-3.81-8.75-3.91-12.13-.45s-3,8.34.78,12.1q6.13,6.09,12.36,12.07c4.75,4.57,9,4.55,13.66-.11q12.85-12.87,25.64-25.79a19.41,19.41,0,0,0,1.81-2,8.22,8.22,0,0,0,.38-9.1,7.74,7.74,0,0,0-8.64-3.57,13.66,13.66,0,0,0-5,3.18C299.59,250.9,292.56,257.85,284.83,265.38Z"/><path class="cls-1" d="M81,81.11c-.93.06-1.62.16-2.31.16q-17.91,0-35.81,0c-4.3,0-5.81-1.56-5.82-5.87,0-5.85-.07-11.71,0-17.56A22.12,22.12,0,0,1,58.34,36a21.74,21.74,0,0,1,22.6,20.31C81.44,64.49,81,72.76,81,81.11Z"/></svg>