<svg id="Layer_1" data-name="Layer 1" xmlns="http://www.w3.org/2000/svg" viewBox="0 0 384 353"><defs><style>.cls-1{fill:#ac292a;}.cls-2{fill:#fff;}</style></defs><path class="cls-1" d="M103.39,276.46c-1.1-18.74-2.15-36.71-3.22-54.67-.44-7.33-1-14.64-1.38-22-.52-11,6.29-18.54,17.35-18.84,9-.25,18-.07,27-.07q71.06,0,142.11,0c13.44,0,20.23,7.48,19.29,20.87q-.71,10-1.29,20c-1.08,18-2.12,35.94-3.22,54.69,5.61,0,11.05,0,16.48,0,2.66,0,5.31.17,5.44,3.61s-2.46,3.88-5.15,3.92c-1.17,0-2.34,0-3.5,0H90.14c-1.66,0-3.55.43-4.94-.21s-2.55-2.42-3.8-3.7c1.33-1.2,2.59-3.34,4-3.43C91.17,276.23,97,276.46,103.39,276.46Zm98.53-64.1a20.34,20.34,0,0,0-20.67,20.47,20.47,20.47,0,1,0,40.94-.09A20.33,20.33,0,0,0,201.92,212.36Z"/><path class="cls-1" d="M225.68,163.42c14,.88,29.53-2.88,41.92,9.68H135.94a28.83,28.83,0,0,1,19.84-9.27c7.38-.53,14.83-.11,22.45-.64a83.61,83.61,0,0,1-20.38-28.85c-.4-.93-2.33-1.59-3.59-1.66-4.16-.21-8.34,0-12.5-.13-4.91-.13-8.78-2.71-9.52-7.33-.88-5.5-2.33-12.49.15-16.62,5.14-8.55,5.42-18.28,9.35-27,11.93-26.39,39.49-41.83,69-38.21C238,46.78,260.8,68.5,266.06,95.92a29.75,29.75,0,0,0,3.94,9.24c2.43,4.08,3.2,19.2-.1,22.61-2.29,2.37-6.28,4.88-9.19,4.54-10.36-1.23-16.52,1.88-20.72,12.1C237.09,151.44,230.66,157,225.68,163.42Zm-53.07-18.63c14.18,23,38.09,24.94,54.92,4.85a65,65,0,0,0,14.9-33.29c1.56-11.17-.22-21.8-6.71-31.4-4.64,2.94-8.86,5.91-13.33,8.4-11.24,6.27-22.59,8.49-35.37,3.47-6-2.38-13.34-1.71-20.09-2-3.12-.16-5.36,1.5-5.42,5.11-.11,5.79-1.39,11.82-.24,17.34,4,19.27,2.73,17.85,22.2,21.4.33.06.72.24,1,.13,1.74-.73,4-1.08,5.07-2.39,4.13-5.06,9.58-7.09,15.46-5.18,5.71,1.85,9.23,6.6,9.13,12.3a12.74,12.74,0,0,1-9.1,11.87c-6.09,1.86-11.86-.35-15.73-5.71a7.67,7.67,0,0,0-4-3C181.25,145.77,177.11,145.41,172.61,144.79Zm86.07-44.48c-1.89-28.66-31.72-52.5-61.55-49.74-27.46,2.54-54.2,28.11-51.89,49.66h8.16c8.15-26.36,23.33-40.51,44.65-41.85a47.16,47.16,0,0,1,28.2,6.77c13.29,8.11,20.58,20.37,23.76,35.16Z"/><path class="cls-2" d="M201.92,212.36a20.33,20.33,0,0,1,20.27,20.38,20.47,20.47,0,1,1-40.94.09A20.34,20.34,0,0,1,201.92,212.36Z"/><path class="cls-2" d="M172.61,144.79c4.5.62,8.64,1,12.67,1.87a7.67,7.67,0,0,1,4,3c3.87,5.36,9.64,7.57,15.73,5.71a12.74,12.74,0,0,0,9.1-11.87c.1-5.7-3.42-10.45-9.13-12.3-5.88-1.91-11.33.12-15.46,5.18-1.07,1.31-3.33,1.66-5.07,2.39-.26.11-.65-.07-1-.13-19.47-3.55-18.2-2.13-22.2-21.4-1.15-5.52.13-11.55.24-17.34.06-3.61,2.3-5.27,5.42-5.11,6.75.33,14-.34,20.09,2,12.78,5,24.13,2.8,35.37-3.47,4.47-2.49,8.69-5.46,13.33-8.4,6.49,9.6,8.27,20.23,6.71,31.4a65,65,0,0,1-14.9,33.29C210.7,169.73,186.79,167.81,172.61,144.79Z"/><path class="cls-2" d="M258.68,100.31H250c-3.18-14.79-10.47-27-23.76-35.16a47.16,47.16,0,0,0-28.2-6.77c-21.32,1.34-36.5,15.49-44.65,41.85h-8.16c-2.31-21.55,24.43-47.12,51.89-49.66C227,47.81,256.79,71.65,258.68,100.31Z"/></svg>