<svg id="Layer_1" data-name="Layer 1" xmlns="http://www.w3.org/2000/svg" viewBox="0 0 384 353"><defs><style>.cls-1{fill:#ac292a;}.cls-2{fill:#fff;}</style></defs><circle class="cls-1" cx="211" cy="178" r="134"/><path class="cls-2" d="M91.91,137c10.27-52.84,74.49-93.19,135.92-85.9,63.69,7.55,111.46,65.38,109.11,132.09-2.25,64.08-55.62,116.5-121.67,119.48-55.69,2.52-117.48-41-123.22-86.76,11.28-2.35,12.4-1.81,17.28,8.25,20.27,41.76,62.11,66.74,107.51,64.17,44.54-2.51,84.47-31.75,99-72.52,20.75-58.11-6.25-119.53-63-143.35-54-22.67-116.4,1.72-143.13,55.94C104.8,138.41,103.74,138.94,91.91,137Z"/><path class="cls-2" d="M210.17,242.92c-14.17,0-28.34.08-42.5,0-7.9-.06-15.12-2.26-18.39-10.2-3.83-9.27-4.3-19,.66-28,1.24-2.26,4.55-3.78,7.23-4.79,7.9-3,16-5.45,24-8.26,7.39-2.6,14.62-3.7,22.55-1.68a30.78,30.78,0,0,0,15.43,0c8.23-2.35,15.61-.93,23.19,1.87,6.76,2.5,13.67,4.6,20.4,7.15,10.6,4,13.54,10.53,12,25.69-1.05,10.22-6.74,17.29-16.82,17.79-15.86.8-31.79.22-47.69.22Z"/><path class="cls-2" d="M211.9,182.3c-20.72.13-36.88-15.55-37-35.9a36,36,0,1,1,72-.61C246.94,165.48,231,182.19,211.9,182.3Z"/><path class="cls-2" d="M138.74,181.9H47V167.72h88.45c.51-.85,1-1.7,1.55-2.54-4.74-4.23-9.6-8.34-14.18-12.73-3.56-3.42-6.78-7.53-2.12-12.14s8.57-1.65,12.16,2c10.8,10.95,21.61,21.89,33.09,33.51-12.06,12.57-23.45,24.65-35.11,36.47-3.12,3.17-7.8,4-10.24-.18-1.38-2.38-1-7.66.79-9.66,5.74-6.43,12.51-11.94,18.89-17.8Z"/></svg>